mtllib model_0.mtl
o model_0
v -0.5894245505332947 0.4869603216648102 0.1292334496974945 
v -0.5894245505332947 0.7857924699783325 0.22975066304206848 
v -0.5894245505332947 0.4995299279689789 0.09563199430704117 
v -0.5894245505332947 0.7979565858840942 0.19614918529987335 
v -0.5894245505332947 0.789441704750061 0.23319695889949799 
v -0.5894245505332947 0.8259340524673462 0.21711421012878418 
v -0.5894245505332947 0.7914690375328064 0.2380792200565338 
v -0.5894245505332947 0.8263395428657532 0.24956689774990082 
v -0.5894245505332947 0.8149863481521606 0.2811580300331116 
v -0.5894245505332947 0.7829541563987732 0.27053192257881165 
v 0.589421808719635 0.4869603216648102 0.1292334496974945 
v 0.589421808719635 0.4995299279689789 0.09563199430704117 
v 0.589421808719635 0.7857924699783325 0.22975066304206848 
v 0.589421808719635 0.7979565858840942 0.19614918529987335 
v 0.589421808719635 0.789441704750061 0.23319695889949799 
v 0.589421808719635 0.8259340524673462 0.21711421012878418 
v 0.589421808719635 0.7914690375328064 0.2380792200565338 
v 0.589421808719635 0.8263395428657532 0.24956689774990082 
v 0.589421808719635 0.8149863481521606 0.2811580300331116 
v 0.589421808719635 0.4995299279689789 0.09563199430704117 
v 0.589421808719635 0.4869603216648102 0.1292334496974945 
v -0.5894245505332947 0.4995299279689789 0.09563199430704117 
v -0.5894245505332947 0.4869603216648102 0.1292334496974945 
v 0.589421808719635 0.7857924699783325 0.22975066304206848 
v -0.5894245505332947 0.7857924699783325 0.22975066304206848 
v -0.5894245505332947 0.789441704750061 0.23319695889949799 
v 0.589421808719635 0.789441704750061 0.23319695889949799 
v 0.589421808719635 0.7914690375328064 0.2380792200565338 
v -0.5894245505332947 0.7914690375328064 0.2380792200565338 
v 0.589421808719635 0.7829541563987732 0.27053192257881165 
v -0.5894245505332947 0.7829541563987732 0.27053192257881165 
v 0.589421808719635 0.8149863481521606 0.2811580300331116 
v -0.5894245505332947 0.8149863481521606 0.2811580300331116 
v -0.5900009870529175 0.3073366582393646 -0.30672401189804077 
v -0.5900009870529175 0.34058529138565063 -0.30643680691719055 
v 0.5899983048439026 0.3073366582393646 -0.30672401189804077 
v 0.5899983048439026 0.34058529138565063 -0.30643680691719055 
v -0.5900009870529175 0.3709956109523773 -0.2958106994628906 
v 0.5899983048439026 0.3709956109523773 -0.2958106994628906 
v 0.5899983048439026 0.38153785467147827 -0.26508116722106934 
v -0.5900009870529175 0.38153785467147827 -0.26508116722106934 
v 0.5899983048439026 0.3807269036769867 0.06662560254335403 
v -0.5900009870529175 0.3807269036769867 0.06662560254335403 
v 0.33924123644828796 0.7318648099899292 0.21194475889205933 
v 0.33924123644828796 0.6892903447151184 0.23951518535614014 
v 0.4222504794597626 0.7318648099899292 0.21194475889205933 
v 0.4222504794597626 0.6892903447151184 0.23951518535614014 
v 0.33924123644828796 0.6252259016036987 0.23290976881980896 
v 0.4222504794597626 0.6252259016036987 0.23290976881980896 
v 0.33924123644828796 0.44681867957115173 0.19356445968151093 
v 0.4222504794597626 0.44681867957115173 0.19356445968151093 
v 0.5899983048439026 0.30693119764328003 -0.27570727467536926 
v 0.5899983048439026 0.3073366582393646 -0.30672401189804077 
v 0.5899983048439026 0.34017983078956604 -0.2725481390953064 
v 0.5899983048439026 0.34058529138565063 -0.30643680691719055 
v 0.5899983048439026 0.34423452615737915 -0.2693890333175659 
v 0.5899983048439026 0.3709956109523773 -0.2958106994628906 
v 0.5899983048439026 0.3462618887424469 -0.26508116722106934 
v 0.5899983048439026 0.38153785467147827 -0.26508116722106934 
v 0.5899983048439026 0.3807269036769867 0.06662560254335403 
v 0.4222504794597626 0.7318648099899292 0.21194475889205933 
v 0.4222504794597626 0.6487432718276978 0.18466150760650635 
v 0.33924123644828796 0.7318648099899292 0.21194475889205933 
v 0.33924123644828796 0.6487432718276978 0.18466150760650635 
v 0.4222504794597626 0.4642539322376251 0.1211920827627182 
v 0.33924123644828796 0.4642539322376251 0.1211920827627182 
v 0.4222504794597626 0.3434235751628876 0.06490244716405869 
v 0.33924123644828796 0.3434235751628876 0.06490244716405869 
v 0.4222504794597626 0.3434235751628876 -0.2314796894788742 
v 0.33924123644828796 0.3434235751628876 -0.2314796894788742 
v 0.4222504794597626 0.3434235751628876 -0.13584476709365845 
v 0.33924123644828796 0.3434235751628876 -0.13584476709365845 
v 0.4222504794597626 0.3434235751628876 0.06490244716405869 
v 0.33924123644828796 0.3434235751628876 0.06490244716405869 
v 0.33924123644828796 0.25624731183052063 0.06490244716405869 
v 0.4222504794597626 0.25624731183052063 0.06490244716405869 
v 0.3490409255027771 0.03404921293258667 0.1326797604560852 
v 0.41187432408332825 0.03404921293258667 0.1326797604560852 
v 0.41187432408332825 -0.002848648000508547 0.15019847452640533 
v 0.3490409255027771 -0.002848648000508547 0.15019847452640533 
v 0.3490409255027771 -0.003254119073972106 0.1898309737443924 
v 0.3490409255027771 0.03323826938867569 0.2151038646697998 
v 0.3490409255027771 0.05067352578043938 0.19385164976119995 
v 0.3490409255027771 -0.003254119073972106 0.1898309737443924 
v 0.3490409255027771 -0.002848648000508547 0.15019847452640533 
v 0.3490409255027771 0.03404921293258667 0.1326797604560852 
v 0.33924123644828796 0.25624731183052063 0.06490244716405869 
v 0.33924123644828796 0.2903068959712982 0.1588142365217209 
v 0.33924123644828796 0.3434235751628876 0.06490244716405869 
v 0.33924123644828796 0.25624731183052063 -0.13584476709365845 
v 0.33924123644828796 0.3434235751628876 -0.13584476709365845 
v 0.33924123644828796 0.25624731183052063 -0.21338659524917603 
v 0.33924123644828796 0.3434235751628876 -0.2314796894788742 
v 0.3490409255027771 0.058377474546432495 -0.19443193078041077 
v 0.3490409255027771 0.058377474546432495 -0.13584476709365845 
v 0.3490409255027771 -0.0024431769270449877 -0.15508662164211273 
v 0.3490409255027771 -0.0036595899146050215 -0.19672946631908417 
v 0.41187432408332825 0.03323826938867569 0.2151038646697998 
v 0.41187432408332825 -0.003254119073972106 0.1898309737443924 
v 0.41187432408332825 0.05067352578043938 0.19385164976119995 
v 0.41187432408332825 -0.002848648000508547 0.15019847452640533 
v 0.41187432408332825 0.03404921293258667 0.1326797604560852 
v 0.4222504794597626 0.25624731183052063 0.06490244716405869 
v 0.4222504794597626 0.2903068959712982 0.1588142365217209 
v 0.4222504794597626 0.3434235751628876 0.06490244716405869 
v 0.4222504794597626 0.44681867957115173 0.19356445968151093 
v 0.4222504794597626 0.3434235751628876 -0.13584476709365845 
v 0.4222504794597626 0.25624731183052063 -0.13584476709365845 
v 0.4222504794597626 0.3434235751628876 -0.2314796894788742 
v 0.4222504794597626 0.25624731183052063 -0.21338659524917603 
v 0.41187432408332825 0.058377474546432495 -0.19443193078041077 
v 0.41187432408332825 0.058377474546432495 -0.13584476709365845 
v 0.41187432408332825 -0.0024431769270449877 -0.15508662164211273 
v 0.41187432408332825 -0.0036595899146050215 -0.19672946631908417 
v 0.41187432408332825 0.019857728853821754 -0.2188432514667511 
v 0.41187432408332825 0.03323826938867569 0.2151038646697998 
v 0.3490409255027771 0.03323826938867569 0.2151038646697998 
v 0.41187432408332825 -0.003254119073972106 0.1898309737443924 
v 0.3490409255027771 -0.003254119073972106 0.1898309737443924 
v 0.33924123644828796 0.25624731183052063 0.06490244716405869 
v 0.33924123644828796 0.25624731183052063 -0.13584476709365845 
v 0.4222504794597626 0.25624731183052063 0.06490244716405869 
v 0.4222504794597626 0.25624731183052063 -0.13584476709365845 
v 0.3490409255027771 0.058377474546432495 -0.13584476709365845 
v 0.41187432408332825 0.058377474546432495 -0.13584476709365845 
v 0.3490409255027771 -0.0024431769270449877 -0.15508662164211273 
v 0.41187432408332825 -0.0024431769270449877 -0.15508662164211273 
v 0.3490409255027771 -0.0036595899146050215 -0.19672946631908417 
v 0.41187432408332825 -0.0036595899146050215 -0.19672946631908417 
v -0.433205783367157 0.25624731183052063 0.06490244716405869 
v -0.433205783367157 0.25624731183052063 -0.13584476709365845 
v -0.3501965403556824 0.25624731183052063 0.06490244716405869 
v -0.3501965403556824 0.25624731183052063 -0.13584476709365845 
v -0.42513543367385864 0.058377474546432495 -0.13584476709365845 
v -0.3588433563709259 0.058377474546432495 -0.13584476709365845 
v -0.42513543367385864 -0.0024431769270449877 -0.15508662164211273 
v -0.3588433563709259 -0.0024431769270449877 -0.15508662164211273 
v -0.42513543367385864 -0.0036595899146050215 -0.19672946631908417 
v -0.3588433563709259 -0.0036595899146050215 -0.19672946631908417 
v -0.433205783367157 0.3434235751628876 0.06490244716405869 
v -0.3501965403556824 0.3434235751628876 0.06490244716405869 
v -0.433205783367157 0.3434235751628876 -0.13584476709365845 
v -0.3501965403556824 0.3434235751628876 -0.13584476709365845 
v -0.433205783367157 0.3434235751628876 -0.2314796894788742 
v -0.3501965403556824 0.3434235751628876 -0.2314796894788742 
v -0.433205783367157 0.3434235751628876 -0.2314796894788742 
v -0.433205783367157 0.25624731183052063 -0.21338659524917603 
v -0.433205783367157 0.3434235751628876 -0.13584476709365845 
v -0.433205783367157 0.25624731183052063 -0.13584476709365845 
v -0.433205783367157 0.3434235751628876 0.06490244716405869 
v -0.433205783367157 0.25624731183052063 0.06490244716405869 
v -0.433205783367157 0.2903068959712982 0.1588142365217209 
v -0.42513543367385864 0.05067352578043938 0.19385164976119995 
v -0.42513543367385864 0.03404921293258667 0.1326797604560852 
v -0.42513543367385864 -0.002848648000508547 0.15019847452640533 
v -0.42513543367385864 -0.003254119073972106 0.1898309737443924 
v -0.3588433563709259 -0.003254119073972106 0.1898309737443924 
v -0.3588433563709259 0.03323826938867569 0.2151038646697998 
v -0.42513543367385864 -0.003254119073972106 0.1898309737443924 
v -0.42513543367385864 0.03323826938867569 0.2151038646697998 
v -0.433205783367157 0.44681867957115173 0.19356445968151093 
v -0.433205783367157 0.4642539322376251 0.1211920827627182 
v -0.433205783367157 0.6252259016036987 0.23290976881980896 
v -0.433205783367157 0.6487432718276978 0.18466150760650635 
v -0.433205783367157 0.6892903447151184 0.23951518535614014 
v -0.433205783367157 0.7318648099899292 0.21194475889205933 
v -0.5894245505332947 0.4995299279689789 0.09563199430704117 
v -0.5894245505332947 0.7979565858840942 0.19614918529987335 
v 0.589421808719635 0.4995299279689789 0.09563199430704117 
v 0.589421808719635 0.7979565858840942 0.19614918529987335 
v 0.589421808719635 0.8259340524673462 0.21711421012878418 
v -0.5894245505332947 0.8259340524673462 0.21711421012878418 
v 0.589421808719635 0.8263395428657532 0.24956689774990082 
v -0.5894245505332947 0.8263395428657532 0.24956689774990082 
v -0.5894245505332947 0.8149863481521606 0.2811580300331116 
v -0.5900009870529175 0.3807269036769867 0.06662560254335403 
v -0.5900009870529175 0.3454509377479553 0.06662560254335403 
v 0.5899983048439026 0.3807269036769867 0.06662560254335403 
v 0.5899983048439026 0.3454509377479553 0.06662560254335403 
v 0.5899983048439026 0.3462618887424469 -0.26508116722106934 
v -0.5900009870529175 0.3462618887424469 -0.26508116722106934 
v 0.5899983048439026 0.34423452615737915 -0.2693890333175659 
v -0.5900009870529175 0.34423452615737915 -0.2693890333175659 
v 0.5899983048439026 0.34017983078956604 -0.2725481390953064 
v -0.5900009870529175 0.34017983078956604 -0.2725481390953064 
v -0.5900009870529175 0.30693119764328003 -0.27570727467536926 
v 0.5899983048439026 0.30693119764328003 -0.27570727467536926 
v 0.5899983048439026 0.3073366582393646 -0.30672401189804077 
v -0.42513543367385864 0.019857728853821754 -0.2188432514667511 
v -0.42513543367385864 -0.0036595899146050215 -0.19672946631908417 
v -0.42513543367385864 0.058377474546432495 -0.19443193078041077 
v -0.42513543367385864 -0.0024431769270449877 -0.15508662164211273 
v -0.42513543367385864 0.058377474546432495 -0.13584476709365845 
v -0.3588433563709259 0.03323826938867569 0.2151038646697998 
v -0.3588433563709259 0.05067352578043938 0.19385164976119995 
v -0.42513543367385864 0.03323826938867569 0.2151038646697998 
v -0.42513543367385864 0.05067352578043938 0.19385164976119995 
v -0.433205783367157 0.2903068959712982 0.1588142365217209 
v -0.3501965403556824 0.2903068959712982 0.1588142365217209 
v -0.3501965403556824 0.44681867957115173 0.19356445968151093 
v -0.3501965403556824 0.44681867957115173 0.19356445968151093 
v -0.3501965403556824 0.6252259016036987 0.23290976881980896 
v -0.433205783367157 0.44681867957115173 0.19356445968151093 
v -0.433205783367157 0.6252259016036987 0.23290976881980896 
v -0.3501965403556824 0.6892903447151184 0.23951518535614014 
v -0.433205783367157 0.6892903447151184 0.23951518535614014 
v -0.3501965403556824 0.7318648099899292 0.21194475889205933 
v -0.433205783367157 0.7318648099899292 0.21194475889205933 
v -0.3588433563709259 0.019857728853821754 -0.2188432514667511 
v -0.3588433563709259 0.058377474546432495 -0.19443193078041077 
v -0.3588433563709259 -0.0036595899146050215 -0.19672946631908417 
v -0.3588433563709259 -0.0024431769270449877 -0.15508662164211273 
v -0.3588433563709259 0.058377474546432495 -0.13584476709365845 
v -0.3501965403556824 0.25624731183052063 -0.21338659524917603 
v -0.3501965403556824 0.25624731183052063 -0.13584476709365845 
v -0.3501965403556824 0.3434235751628876 -0.2314796894788742 
v -0.3501965403556824 0.3434235751628876 -0.13584476709365845 
v -0.3501965403556824 0.25624731183052063 0.06490244716405869 
v -0.3501965403556824 0.3434235751628876 0.06490244716405869 
v -0.3501965403556824 0.2903068959712982 0.1588142365217209 
v -0.3501965403556824 0.44681867957115173 0.19356445968151093 
v -0.3501965403556824 0.4642539322376251 0.1211920827627182 
v -0.3501965403556824 0.6252259016036987 0.23290976881980896 
v -0.3501965403556824 0.6487432718276978 0.18466150760650635 
v -0.3501965403556824 0.6892903447151184 0.23951518535614014 
v 0.33924123644828796 0.44681867957115173 0.19356445968151093 
v 0.33924123644828796 0.2903068959712982 0.1588142365217209 
v 0.4222504794597626 0.44681867957115173 0.19356445968151093 
v 0.4222504794597626 0.2903068959712982 0.1588142365217209 
v 0.3490409255027771 0.05067352578043938 0.19385164976119995 
v 0.41187432408332825 0.05067352578043938 0.19385164976119995 
v 0.41187432408332825 0.03323826938867569 0.2151038646697998 
v 0.3490409255027771 0.03323826938867569 0.2151038646697998 
v -0.42513543367385864 -0.003254119073972106 0.1898309737443924 
v -0.42513543367385864 -0.002848648000508547 0.15019847452640533 
v -0.3588433563709259 -0.003254119073972106 0.1898309737443924 
v -0.3588433563709259 -0.002848648000508547 0.15019847452640533 
v -0.42513543367385864 0.03404921293258667 0.1326797604560852 
v -0.3588433563709259 0.03404921293258667 0.1326797604560852 
v -0.433205783367157 0.25624731183052063 0.06490244716405869 
v -0.3501965403556824 0.25624731183052063 0.06490244716405869 
v 0.4222504794597626 0.4642539322376251 0.1211920827627182 
v 0.4222504794597626 0.6252259016036987 0.23290976881980896 
v 0.4222504794597626 0.6487432718276978 0.18466150760650635 
v 0.4222504794597626 0.6892903447151184 0.23951518535614014 
v -0.3501965403556824 0.7318648099899292 0.21194475889205933 
v -0.3501965403556824 0.6487432718276978 0.18466150760650635 
v -0.433205783367157 0.7318648099899292 0.21194475889205933 
v -0.433205783367157 0.6487432718276978 0.18466150760650635 
v -0.3501965403556824 0.4642539322376251 0.1211920827627182 
v -0.433205783367157 0.4642539322376251 0.1211920827627182 
v -0.3501965403556824 0.3434235751628876 0.06490244716405869 
v -0.433205783367157 0.3434235751628876 0.06490244716405869 
v -0.3588433563709259 0.05067352578043938 0.19385164976119995 
v -0.3588433563709259 0.03404921293258667 0.1326797604560852 
v -0.3588433563709259 -0.002848648000508547 0.15019847452640533 
v -0.3588433563709259 -0.003254119073972106 0.1898309737443924 
v 0.33924123644828796 0.7318648099899292 0.21194475889205933 
v 0.33924123644828796 0.6487432718276978 0.18466150760650635 
v 0.33924123644828796 0.6892903447151184 0.23951518535614014 
v 0.33924123644828796 0.6252259016036987 0.23290976881980896 
v 0.33924123644828796 0.4642539322376251 0.1211920827627182 
v 0.33924123644828796 0.44681867957115173 0.19356445968151093 
v 0.4222504794597626 0.3434235751628876 -0.2314796894788742 
v 0.4222504794597626 0.25624731183052063 -0.21338659524917603 
v 0.33924123644828796 0.3434235751628876 -0.2314796894788742 
v 0.33924123644828796 0.25624731183052063 -0.21338659524917603 
v 0.41187432408332825 0.058377474546432495 -0.19443193078041077 
v 0.3490409255027771 0.058377474546432495 -0.19443193078041077 
v 0.41187432408332825 0.019857728853821754 -0.2188432514667511 
v 0.3490409255027771 0.019857728853821754 -0.2188432514667511 
v 0.41187432408332825 -0.0036595899146050215 -0.19672946631908417 
v 0.3490409255027771 -0.0036595899146050215 -0.19672946631908417 
v -0.5900009870529175 0.3454509377479553 0.06662560254335403 
v -0.5900009870529175 0.3807269036769867 0.06662560254335403 
v -0.5900009870529175 0.3462618887424469 -0.26508116722106934 
v -0.5900009870529175 0.38153785467147827 -0.26508116722106934 
v -0.5900009870529175 0.3709956109523773 -0.2958106994628906 
v -0.5900009870529175 0.34423452615737915 -0.2693890333175659 
v -0.5900009870529175 0.34058529138565063 -0.30643680691719055 
v -0.5900009870529175 0.34017983078956604 -0.2725481390953064 
v -0.5900009870529175 0.3073366582393646 -0.30672401189804077 
v -0.5900009870529175 0.30693119764328003 -0.27570727467536926 
v -0.3501965403556824 0.3434235751628876 -0.2314796894788742 
v -0.3501965403556824 0.25624731183052063 -0.21338659524917603 
v -0.433205783367157 0.3434235751628876 -0.2314796894788742 
v -0.433205783367157 0.25624731183052063 -0.21338659524917603 
v -0.3588433563709259 0.058377474546432495 -0.19443193078041077 
v -0.42513543367385864 0.058377474546432495 -0.19443193078041077 
v -0.3588433563709259 0.019857728853821754 -0.2188432514667511 
v -0.42513543367385864 0.019857728853821754 -0.2188432514667511 
v -0.3588433563709259 -0.0036595899146050215 -0.19672946631908417 
v -0.42513543367385864 -0.0036595899146050215 -0.19672946631908417 
v 0.589421808719635 0.8149863481521606 0.2811580300331116 
v 0.589421808719635 0.7829541563987732 0.27053192257881165 
v 0.5899983048439026 0.3454509377479553 0.06662560254335403 
v -0.5900009870529175 0.3073366582393646 -0.30672401189804077 
v 0.3490409255027771 0.019857728853821754 -0.2188432514667511 
v 0.4222504794597626 0.7318648099899292 0.21194475889205933 
v 0.41187432408332825 -0.003254119073972106 0.1898309737443924 
v -0.433205783367157 0.44681867957115173 0.19356445968151093 
v -0.3501965403556824 0.7318648099899292 0.21194475889205933 
v -0.42513543367385864 0.03323826938867569 0.2151038646697998 
v -0.3588433563709259 0.03323826938867569 0.2151038646697998 
vn -0.5762247443199158 -0.7372615933418274 0.3527185618877411 
vn -0.7593540549278259 -0.340564101934433 0.5544344186782837 
vn -0.5773738622665405 -0.3522631824016571 -0.736579954624176 
vn -0.6734887957572937 0.3423113524913788 -0.6551609039306641 
vn -0.7580783367156982 -0.5377200841903687 0.3690181374549866 
vn -0.6200190186500549 0.6987614035606384 -0.3568037748336792 
vn -0.7835252285003662 -0.6196651458740234 0.04586252197623253 
vn -0.6702814698219299 0.73163902759552 0.1242060661315918 
vn -0.5775418877601624 0.35812070965766907 0.7336177229881287 
vn -0.5816388130187988 -0.7120724320411682 0.3932546079158783 
vn 0.5732467770576477 -0.739579439163208 0.3527185618877411 
vn 0.5773738622665405 -0.3522631824016571 -0.736579954624176 
vn 0.7608901262283325 -0.3371182084083557 0.5544344186782837 
vn 0.6734887957572937 0.3423113524913788 -0.6551609039306641 
vn 0.7580783367156982 -0.5377200841903687 0.3690181374549866 
vn 0.6171886920928955 0.7012625932693481 -0.3568037748336792 
vn 0.7858622670173645 -0.6166986227035522 0.04586252197623253 
vn 0.6702814698219299 0.73163902759552 0.1242060661315918 
vn 0.5775418877601624 0.35812070965766907 0.7336177229881287 
vn 0.5773738622665405 -0.3522631824016571 -0.736579954624176 
vn 0.5732467770576477 -0.739579439163208 0.3527185618877411 
vn -0.5773738622665405 -0.3522631824016571 -0.736579954624176 
vn -0.5762247443199158 -0.7372615933418274 0.3527185618877411 
vn 0.7608901262283325 -0.3371182084083557 0.5544344186782837 
vn -0.7593540549278259 -0.340564101934433 0.5544344186782837 
vn -0.7580783367156982 -0.5377200841903687 0.3690181374549866 
vn 0.7580783367156982 -0.5377200841903687 0.3690181374549866 
vn 0.7858622670173645 -0.6166986227035522 0.04586252197623253 
vn -0.7835252285003662 -0.6196651458740234 0.04586252197623253 
vn 0.5816388130187988 -0.7120724320411682 0.3932546079158783 
vn -0.5816388130187988 -0.7120724320411682 0.3932546079158783 
vn 0.5775418877601624 0.35812070965766907 0.7336177229881287 
vn -0.5775418877601624 0.35812070965766907 0.7336177229881287 
vn -0.577076256275177 -0.5717373490333557 -0.5831804275512695 
vn -0.6707243323326111 0.12763994932174683 -0.7306414246559143 
vn 0.577076256275177 -0.5717373490333557 -0.5831804275512695 
vn 0.6707243323326111 0.12763994932174683 -0.7306414246559143 
vn -0.6200913190841675 0.5586716532707214 -0.5507928133010864 
vn 0.6200913190841675 0.5586716532707214 -0.5507928133010864 
vn 0.6706416606903076 0.7320321798324585 -0.11986933648586273 
vn -0.6706416606903076 0.7320321798324585 -0.11986933648586273 
vn 0.5755424499511719 0.5768754482269287 0.5796254277229309 
vn -0.5782053470611572 0.5742063522338867 0.5796254277229309 
vn -0.5506221652030945 0.8278884291648865 -0.10684575140476227 
vn -0.6378375291824341 0.18228711187839508 0.7482877969741821 
vn 0.5474731922149658 0.8299741148948669 -0.10684575140476227 
vn 0.6388628482818604 0.17866064608097076 0.7482877969741821 
vn -0.6951079368591309 -0.11639554053544998 0.7094202041625977 
vn 0.695720911026001 -0.11267371475696564 0.7094202041625977 
vn -0.7067047357559204 -0.1532960683107376 0.6907016038894653 
vn 0.707493782043457 -0.14961211383342743 0.6907016038894653 
vn 0.5793925523757935 -0.6074008941650391 0.5434780716896057 
vn 0.577076256275177 -0.5717373490333557 -0.5831804275512695 
vn 0.7798116207122803 -0.24504993855953217 0.5760593414306641 
vn 0.6707243323326111 0.12763994932174683 -0.7306414246559143 
vn 0.7573630213737488 -0.5120111703872681 0.405272513628006 
vn 0.6200913190841675 0.5586716532707214 -0.5507928133010864 
vn 0.7653419971466064 -0.6268801093101501 0.1458524912595749 
vn 0.6706416606903076 0.7320321798324585 -0.11986933648586273 
vn 0.5755424499511719 0.5768754482269287 0.5796254277229309 
vn 0.5474731922149658 0.8299741148948669 -0.10684575140476227 
vn 0.7096976041793823 0.2230519950389862 -0.6682642698287964 
vn -0.5506221652030945 0.8278884291648865 -0.10684575140476227 
vn -0.7085564136505127 0.22665102779865265 -0.6682642698287964 
vn 0.7186521291732788 0.2593332827091217 -0.6452018022537231 
vn -0.7173603177070618 0.26288557052612305 -0.6452018022537231 
vn 0.8507862687110901 0.44324609637260437 -0.28230419754981995 
vn -0.8507862687110901 0.44324609637260437 -0.28230419754981995 
vn 0.5651502013206482 0.5224194526672363 -0.6385006904602051 
vn -0.5651502013206482 0.5224194526672363 -0.6385006904602051 
vn 0.7071051001548767 0.7071051001548767 0.002184694167226553 
vn -0.7071051001548767 0.7071051001548767 0.002184694167226553 
vn 0.8507862687110901 0.44324609637260437 -0.28230419754981995 
vn -0.8507862687110901 0.44324609637260437 -0.28230419754981995 
vn -0.8675723671913147 -0.4094172716140747 -0.28230419754981995 
vn 0.8675723671913147 -0.4094172716140747 -0.28230419754981995 
vn -0.6857811808586121 -0.2728196680545807 -0.67473965883255 
vn 0.6857811808586121 -0.2728196680545807 -0.67473965883255 
vn 0.6051461696624756 -0.6705770492553711 -0.42909738421440125 
vn -0.6023356914520264 -0.673102617263794 -0.42909738421440125 
vn -0.6133171319961548 -0.7025710940361023 0.36088213324546814 
vn -0.5812772512435913 0.11226438730955124 0.8059239983558655 
vn -0.7946564555168152 0.2847708463668823 0.5361219048500061 
vn -0.6133171319961548 -0.7025710940361023 0.36088213324546814 
vn -0.6023356914520264 -0.673102617263794 -0.42909738421440125 
vn -0.6857811808586121 -0.2728196680545807 -0.67473965883255 
vn -0.8675723671913147 -0.4094172716140747 -0.28230419754981995 
vn -0.751854419708252 -0.03392760083079338 0.6584556698799133 
vn -0.8507862687110901 0.44324609637260437 -0.28230419754981995 
vn -0.9036160111427307 -0.31461912393569946 0.29067665338516235 
vn -0.7071051001548767 0.7071051001548767 0.002184694167226553 
vn -0.7215484380722046 -0.12403260171413422 -0.681163489818573 
vn -0.5651502013206482 0.5224194526672363 -0.6385006904602051 
vn -0.7849339246749878 0.12049417197704315 -0.607749879360199 
vn -0.6674972176551819 -0.1274854987859726 0.7336177229881287 
vn -0.5951825380325317 -0.6418504118919373 0.4835140109062195 
vn -0.6252279877662659 -0.722599983215332 -0.2948545813560486 
vn 0.5812772512435913 0.11226438730955124 0.8059239983558655 
vn 0.616152822971344 -0.7000855803489685 0.36088213324546814 
vn 0.7959210872650146 0.2812168300151825 0.5361219048500061 
vn 0.6051461696624756 -0.6705770492553711 -0.42909738421440125 
vn 0.6857811808586121 -0.2728196680545807 -0.67473965883255 
vn 0.8675723671913147 -0.4094172716140747 -0.28230419754981995 
vn 0.751675009727478 -0.037694334983825684 0.6584556698799133 
vn 0.8507862687110901 0.44324609637260437 -0.28230419754981995 
vn 0.707493782043457 -0.14961211383342743 0.6907016038894653 
vn 0.7071051001548767 0.7071051001548767 0.002184694167226553 
vn 0.9023688435554504 -0.31817853450775146 0.29067665338516235 
vn 0.5651502013206482 0.5224194526672363 -0.6385006904602051 
vn 0.7221786975860596 -0.1203087791800499 -0.681163489818573 
vn 0.7849339246749878 0.12049417197704315 -0.607749879360199 
vn 0.6674972176551819 -0.1274854987859726 0.7336177229881287 
vn 0.5979430675506592 -0.6392795443534851 0.4835140109062195 
vn 0.6280785799026489 -0.7201236486434937 -0.2948545813560486 
vn 0.5897390842437744 -0.08288241922855377 -0.8033295273780823 
vn 0.5812772512435913 0.11226438730955124 0.8059239983558655 
vn -0.5812772512435913 0.11226438730955124 0.8059239983558655 
vn 0.616152822971344 -0.7000855803489685 0.36088213324546814 
vn -0.6133171319961548 -0.7025710940361023 0.36088213324546814 
vn -0.8675723671913147 -0.4094172716140747 -0.28230419754981995 
vn -0.9036160111427307 -0.31461912393569946 0.29067665338516235 
vn 0.8675723671913147 -0.4094172716140747 -0.28230419754981995 
vn 0.9023688435554504 -0.31817853450775146 0.29067665338516235 
vn -0.6674972176551819 -0.1274854987859726 0.7336177229881287 
vn 0.6674972176551819 -0.1274854987859726 0.7336177229881287 
vn -0.5951825380325317 -0.6418504118919373 0.4835140109062195 
vn 0.5979430675506592 -0.6392795443534851 0.4835140109062195 
vn -0.6252279877662659 -0.722599983215332 -0.2948545813560486 
vn 0.6280785799026489 -0.7201236486434937 -0.2948545813560486 
vn -0.8678291440010071 -0.40594860911369324 -0.2864931523799896 
vn -0.9035100936889648 -0.311014860868454 0.2948545813560486 
vn 0.8662222623825073 -0.4093662202358246 -0.2864931523799896 
vn 0.9035100936889648 -0.311014860868454 0.2948545813560486 
vn -0.6674972176551819 -0.1274854987859726 0.7336177229881287 
vn 0.6674972176551819 -0.1274854987859726 0.7336177229881287 
vn -0.5951825380325317 -0.6418504118919373 0.4835140109062195 
vn 0.5979430675506592 -0.6392795443534851 0.4835140109062195 
vn -0.6252279877662659 -0.722599983215332 -0.2948545813560486 
vn 0.6280785799026489 -0.7201236486434937 -0.2948545813560486 
vn -0.8507862687110901 0.44324609637260437 -0.28230419754981995 
vn 0.8507862687110901 0.44324609637260437 -0.28230419754981995 
vn -0.7071051001548767 0.7071051001548767 0.002184694167226553 
vn 0.7071051001548767 0.7071051001548767 0.002184694167226553 
vn -0.5651502013206482 0.5224194526672363 -0.6385006904602051 
vn 0.5651502013206482 0.5224194526672363 -0.6385006904602051 
vn -0.5651502013206482 0.5224194526672363 -0.6385006904602051 
vn -0.7227897047996521 -0.1165817603468895 -0.681163489818573 
vn -0.7071051001548767 0.7071051001548767 0.002184694167226553 
vn -0.9035100936889648 -0.311014860868454 0.2948545813560486 
vn -0.8507862687110901 0.44324609637260437 -0.28230419754981995 
vn -0.8678291440010071 -0.40594860911369324 -0.2864931523799896 
vn -0.751854419708252 -0.03392760083079338 0.6584556698799133 
vn -0.7946564555168152 0.2847708463668823 0.5361219048500061 
vn -0.6857811808586121 -0.2728196680545807 -0.67473965883255 
vn -0.6023356914520264 -0.673102617263794 -0.42909738421440125 
vn -0.6133171319961548 -0.7025710940361023 0.36088213324546814 
vn 0.616152822971344 -0.7000855803489685 0.36088213324546814 
vn 0.5812772512435913 0.11226438730955124 0.8059239983558655 
vn -0.6133171319961548 -0.7025710940361023 0.36088213324546814 
vn -0.5812772512435913 0.11226438730955124 0.8059239983558655 
vn -0.7067047357559204 -0.1532960683107376 0.6907016038894653 
vn -0.7173603177070618 0.26288557052612305 -0.6452018022537231 
vn -0.6951079368591309 -0.11639554053544998 0.7094202041625977 
vn -0.7085564136505127 0.22665102779865265 -0.6682642698287964 
vn -0.6378375291824341 0.18228711187839508 0.7482877969741821 
vn -0.5506221652030945 0.8278884291648865 -0.10684575140476227 
vn -0.5773738622665405 -0.3522631824016571 -0.736579954624176 
vn -0.6734887957572937 0.3423113524913788 -0.6551609039306641 
vn 0.5773738622665405 -0.3522631824016571 -0.736579954624176 
vn 0.6734887957572937 0.3423113524913788 -0.6551609039306641 
vn 0.6171886920928955 0.7012625932693481 -0.3568037748336792 
vn -0.6200190186500549 0.6987614035606384 -0.3568037748336792 
vn 0.6702814698219299 0.73163902759552 0.1242060661315918 
vn -0.6702814698219299 0.73163902759552 0.1242060661315918 
vn -0.5775418877601624 0.35812070965766907 0.7336177229881287 
vn -0.5782053470611572 0.5742063522338867 0.5796254277229309 
vn -0.5759913921356201 -0.5799909830093384 0.5760593414306641 
vn 0.5755424499511719 0.5768754482269287 0.5796254277229309 
vn 0.5786608457565308 -0.5773276686668396 0.5760593414306641 
vn 0.7653419971466064 -0.6268801093101501 0.1458524912595749 
vn -0.7653419971466064 -0.6268801093101501 0.1458524912595749 
vn 0.7573630213737488 -0.5120111703872681 0.405272513628006 
vn -0.7552428841590881 -0.5151333808898926 0.405272513628006 
vn 0.7798116207122803 -0.24504993855953217 0.5760593414306641 
vn -0.7809337973594666 -0.24144990742206573 0.5760593414306641 
vn -0.5821166038513184 -0.6047907471656799 0.5434780716896057 
vn 0.5793925523757935 -0.6074008941650391 0.5434780716896057 
vn 0.577076256275177 -0.5717373490333557 -0.5831804275512695 
vn -0.5902532339096069 -0.0791379064321518 -0.8033295273780823 
vn -0.6252279877662659 -0.722599983215332 -0.2948545813560486 
vn -0.7837512493133545 0.1279611438512802 -0.607749879360199 
vn -0.5951825380325317 -0.6418504118919373 0.4835140109062195 
vn -0.6674972176551819 -0.1274854987859726 0.7336177229881287 
vn 0.5812772512435913 0.11226438730955124 0.8059239983558655 
vn 0.7959210872650146 0.2812168300151825 0.5361219048500061 
vn -0.5812772512435913 0.11226438730955124 0.8059239983558655 
vn -0.7946564555168152 0.2847708463668823 0.5361219048500061 
vn -0.751854419708252 -0.03392760083079338 0.6584556698799133 
vn 0.751675009727478 -0.037694334983825684 0.6584556698799133 
vn 0.707493782043457 -0.14961211383342743 0.6907016038894653 
vn 0.707493782043457 -0.14961211383342743 0.6907016038894653 
vn 0.695720911026001 -0.11267371475696564 0.7094202041625977 
vn -0.7067047357559204 -0.1532960683107376 0.6907016038894653 
vn -0.6951079368591309 -0.11639554053544998 0.7094202041625977 
vn 0.6388628482818604 0.17866064608097076 0.7482877969741821 
vn -0.6378375291824341 0.18228711187839508 0.7482877969741821 
vn 0.5474731922149658 0.8299741148948669 -0.10684575140476227 
vn -0.5506221652030945 0.8278884291648865 -0.10684575140476227 
vn 0.5897390842437744 -0.08288241922855377 -0.8033295273780823 
vn 0.7837512493133545 0.1279611438512802 -0.607749879360199 
vn 0.6280785799026489 -0.7201236486434937 -0.2948545813560486 
vn 0.5979430675506592 -0.6392795443534851 0.4835140109062195 
vn 0.6674972176551819 -0.1274854987859726 0.7336177229881287 
vn 0.7221786975860596 -0.1203087791800499 -0.681163489818573 
vn 0.9035100936889648 -0.311014860868454 0.2948545813560486 
vn 0.5651502013206482 0.5224194526672363 -0.6385006904602051 
vn 0.7071051001548767 0.7071051001548767 0.002184694167226553 
vn 0.8662222623825073 -0.4093662202358246 -0.2864931523799896 
vn 0.8507862687110901 0.44324609637260437 -0.28230419754981995 
vn 0.751675009727478 -0.037694334983825684 0.6584556698799133 
vn 0.707493782043457 -0.14961211383342743 0.6907016038894653 
vn 0.7186521291732788 0.2593332827091217 -0.6452018022537231 
vn 0.695720911026001 -0.11267371475696564 0.7094202041625977 
vn 0.7096976041793823 0.2230519950389862 -0.6682642698287964 
vn 0.6388628482818604 0.17866064608097076 0.7482877969741821 
vn -0.7067047357559204 -0.1532960683107376 0.6907016038894653 
vn -0.751854419708252 -0.03392760083079338 0.6584556698799133 
vn 0.707493782043457 -0.14961211383342743 0.6907016038894653 
vn 0.751675009727478 -0.037694334983825684 0.6584556698799133 
vn -0.7946564555168152 0.2847708463668823 0.5361219048500061 
vn 0.7959210872650146 0.2812168300151825 0.5361219048500061 
vn 0.5812772512435913 0.11226438730955124 0.8059239983558655 
vn -0.5812772512435913 0.11226438730955124 0.8059239983558655 
vn -0.6133171319961548 -0.7025710940361023 0.36088213324546814 
vn -0.6023356914520264 -0.673102617263794 -0.42909738421440125 
vn 0.616152822971344 -0.7000855803489685 0.36088213324546814 
vn 0.6051461696624756 -0.6705770492553711 -0.42909738421440125 
vn -0.6857811808586121 -0.2728196680545807 -0.67473965883255 
vn 0.6857811808586121 -0.2728196680545807 -0.67473965883255 
vn -0.8678291440010071 -0.40594860911369324 -0.2864931523799896 
vn 0.8662222623825073 -0.4093662202358246 -0.2864931523799896 
vn 0.7186521291732788 0.2593332827091217 -0.6452018022537231 
vn 0.695720911026001 -0.11267371475696564 0.7094202041625977 
vn 0.7096976041793823 0.2230519950389862 -0.6682642698287964 
vn 0.6388628482818604 0.17866064608097076 0.7482877969741821 
vn 0.5474731922149658 0.8299741148948669 -0.10684575140476227 
vn 0.7096976041793823 0.2230519950389862 -0.6682642698287964 
vn -0.5506221652030945 0.8278884291648865 -0.10684575140476227 
vn -0.7085564136505127 0.22665102779865265 -0.6682642698287964 
vn 0.7186521291732788 0.2593332827091217 -0.6452018022537231 
vn -0.7173603177070618 0.26288557052612305 -0.6452018022537231 
vn 0.8507862687110901 0.44324609637260437 -0.28230419754981995 
vn -0.8507862687110901 0.44324609637260437 -0.28230419754981995 
vn 0.7959210872650146 0.2812168300151825 0.5361219048500061 
vn 0.6857811808586121 -0.2728196680545807 -0.67473965883255 
vn 0.6051461696624756 -0.6705770492553711 -0.42909738421440125 
vn 0.616152822971344 -0.7000855803489685 0.36088213324546814 
vn -0.5506221652030945 0.8278884291648865 -0.10684575140476227 
vn -0.7085564136505127 0.22665102779865265 -0.6682642698287964 
vn -0.6378375291824341 0.18228711187839508 0.7482877969741821 
vn -0.6951079368591309 -0.11639554053544998 0.7094202041625977 
vn -0.7173603177070618 0.26288557052612305 -0.6452018022537231 
vn -0.7067047357559204 -0.1532960683107376 0.6907016038894653 
vn 0.5651502013206482 0.5224194526672363 -0.6385006904602051 
vn 0.7221786975860596 -0.1203087791800499 -0.681163489818573 
vn -0.5651502013206482 0.5224194526672363 -0.6385006904602051 
vn -0.7215484380722046 -0.12403260171413422 -0.681163489818573 
vn 0.7849339246749878 0.12049417197704315 -0.607749879360199 
vn -0.7849339246749878 0.12049417197704315 -0.607749879360199 
vn 0.5897390842437744 -0.08288241922855377 -0.8033295273780823 
vn -0.5902532339096069 -0.0791379064321518 -0.8033295273780823 
vn 0.6280785799026489 -0.7201236486434937 -0.2948545813560486 
vn -0.6252279877662659 -0.722599983215332 -0.2948545813560486 
vn -0.5759913921356201 -0.5799909830093384 0.5760593414306641 
vn -0.5782053470611572 0.5742063522338867 0.5796254277229309 
vn -0.7653419971466064 -0.6268801093101501 0.1458524912595749 
vn -0.6706416606903076 0.7320321798324585 -0.11986933648586273 
vn -0.6200913190841675 0.5586716532707214 -0.5507928133010864 
vn -0.7552428841590881 -0.5151333808898926 0.405272513628006 
vn -0.6707243323326111 0.12763994932174683 -0.7306414246559143 
vn -0.7809337973594666 -0.24144990742206573 0.5760593414306641 
vn -0.577076256275177 -0.5717373490333557 -0.5831804275512695 
vn -0.5821166038513184 -0.6047907471656799 0.5434780716896057 
vn 0.5651502013206482 0.5224194526672363 -0.6385006904602051 
vn 0.7221786975860596 -0.1203087791800499 -0.681163489818573 
vn -0.5651502013206482 0.5224194526672363 -0.6385006904602051 
vn -0.7227897047996521 -0.1165817603468895 -0.681163489818573 
vn 0.7837512493133545 0.1279611438512802 -0.607749879360199 
vn -0.7837512493133545 0.1279611438512802 -0.607749879360199 
vn 0.5897390842437744 -0.08288241922855377 -0.8033295273780823 
vn -0.5902532339096069 -0.0791379064321518 -0.8033295273780823 
vn 0.6280785799026489 -0.7201236486434937 -0.2948545813560486 
vn -0.6252279877662659 -0.722599983215332 -0.2948545813560486 
vn 0.5775418877601624 0.35812070965766907 0.7336177229881287 
vn 0.5816388130187988 -0.7120724320411682 0.3932546079158783 
vn 0.5786608457565308 -0.5773276686668396 0.5760593414306641 
vn -0.577076256275177 -0.5717373490333557 -0.5831804275512695 
vn -0.5902532339096069 -0.0791379064321518 -0.8033295273780823 
vn 0.5474731922149658 0.8299741148948669 -0.10684575140476227 
vn 0.616152822971344 -0.7000855803489685 0.36088213324546814 
vn -0.7067047357559204 -0.1532960683107376 0.6907016038894653 
vn 0.5474731922149658 0.8299741148948669 -0.10684575140476227 
vn -0.5812772512435913 0.11226438730955124 0.8059239983558655 
vn 0.5812772512435913 0.11226438730955124 0.8059239983558655 
vt 0.10466202348470688 0.4899439215660095 
vt 0.3771320581436157 0.49125730991363525 
vt 0.10466202348470688 0.5154953002929688 
vt 0.3770110309123993 0.5214652419090271 
vt 0.40376174449920654 0.490063339471817 
vt 0.42264461517333984 0.5092865824699402 
vt 0.4061826169490814 0.48719775676727295 
vt 0.42978620529174805 0.48743653297424316 
vt 0.43075454235076904 0.4567510187625885 
vt 0.4066667854785919 0.4571092128753662 
vt 0.10345157980918884 0.4894663393497467 
vt 0.10260426998138428 0.5152565240859985 
vt 0.37580057978630066 0.49209311604499817 
vt 0.37640580534935 0.5209876894950867 
vt 0.40279337763786316 0.49066030979156494 
vt 0.4228866994380951 0.5095253586769104 
vt 0.4054563641548157 0.48755595088005066 
vt 0.43027037382125854 0.48695895075798035 
vt 0.43075454235076904 0.4567510187625885 
vt 0.7185971736907959 0.022496841847896576 
vt 0.7355433702468872 0.022496841847896576 
vt 0.7185971736907959 0.5650458931922913 
vt 0.7355433702468872 0.5650458931922913 
vt 0.8866062760353088 0.022496841847896576 
vt 0.8866062760353088 0.5650458931922913 
vt 0.8960477113723755 0.5651652812957764 
vt 0.8960477113723755 0.02261623926460743 
vt 0.9056101441383362 0.022735638543963432 
vt 0.9056101441383362 0.5652846693992615 
vt 0.9215880036354065 0.022735638543963432 
vt 0.9215880036354065 0.5652846693992615 
vt 0.9369605779647827 0.022735638543963432 
vt 0.9369605779647827 0.5652846693992615 
vt 0.00661638006567955 0.9934495091438293 
vt 0.00661638006567955 0.9633609652519226 
vt 0.9971194267272949 0.9934495091438293 
vt 0.9971194267272949 0.9633609652519226 
vt 0.00661638006567955 0.9339888095855713 
vt 0.9971194267272949 0.9339888095855713 
vt 0.9971194267272949 0.9035420417785645 
vt 0.00661638006567955 0.9035420417785645 
vt 0.9971194267272949 0.5910748839378357 
vt 0.00661638006567955 0.5910748839378357 
vt 0.5647502541542053 0.11276248842477798 
vt 0.5647502541542053 0.1458360105752945 
vt 0.5110067129135132 0.11276248842477798 
vt 0.5110067129135132 0.1458360105752945 
vt 0.5647502541542053 0.18726746737957 
vt 0.5110067129135132 0.18726746737957 
vt 0.5647502541542053 0.3049948811531067 
vt 0.5110067129135132 0.3049948811531067 
vt 0.4076351523399353 0.45770618319511414 
vt 0.43075454235076904 0.4573479890823364 
vt 0.40594053268432617 0.48779475688934326 
vt 0.42990726232528687 0.4880335330963135 
vt 0.40388280153274536 0.4901827275753021 
vt 0.4228866994380951 0.5092865824699402 
vt 0.3776162266731262 0.49125730991363525 
vt 0.3776162266731262 0.5219428539276123 
vt 0.1032094955444336 0.5151371359825134 
vt 0.5157274603843689 0.30189049243927 
vt 0.5157274603843689 0.25329509377479553 
vt 0.5619662404060364 0.30189049243927 
vt 0.5619662404060364 0.25329509377479553 
vt 0.5157274603843689 0.14500021934509277 
vt 0.5619662404060364 0.14500021934509277 
vt 0.5157274603843689 0.07085343450307846 
vt 0.5619662404060364 0.07085343450307846 
vt 0.4536318778991699 0.21640081703662872 
vt 0.4774775505065918 0.21640081703662872 
vt 0.4536318778991699 0.24481777846813202 
vt 0.4774775505065918 0.24481777846813202 
vt 0.4536318778991699 0.3045172691345215 
vt 0.4774775505065918 0.3045172691345215 
vt 0.5712866187095642 0.3049948811531067 
vt 0.5042282342910767 0.3049948811531067 
vt 0.5630556344985962 0.14308983087539673 
vt 0.5125802755355835 0.14308983087539673 
vt 0.5125802755355835 0.11013570427894592 
vt 0.5630556344985962 0.11013570427894592 
vt 0.5630556344985962 0.07682338356971741 
vt 0.05830216780304909 0.39705151319503784 
vt 0.07585354894399643 0.378425270318985 
vt 0.031067268922924995 0.374723881483078 
vt 0.031672488898038864 0.3426055610179901 
vt 0.06411228328943253 0.3260090947151184 
vt 0.211301788687706 0.2775331139564514 
vt 0.2368420660495758 0.34726211428642273 
vt 0.2749709188938141 0.26308581233024597 
vt 0.21299639344215393 0.08947967737913132 
vt 0.26928186416625977 0.10965811461210251 
vt 0.21202804148197174 0.02381023019552231 
vt 0.2678293287754059 0.016049295663833618 
vt 0.05709172785282135 0.04434685781598091 
vt 0.0644754096865654 0.08792749047279358 
vt 0.021988967433571815 0.07753977924585342 
vt 0.015089459717273712 0.04721243306994438 
vt 0.0568496398627758 0.3982454836368561 
vt 0.03021995909512043 0.3743656873703003 
vt 0.07500623911619186 0.3778282701969147 
vt 0.03143040090799332 0.3426055610179901 
vt 0.06338601559400558 0.3257702887058258 
vt 0.21069656312465668 0.275861531496048 
vt 0.2368420660495758 0.34726211428642273 
vt 0.27484989166259766 0.26272761821746826 
vt 0.3544968366622925 0.3834400177001953 
vt 0.269523948431015 0.10882231593132019 
vt 0.21190699934959412 0.08816628903150558 
vt 0.26770830154418945 0.015452300198376179 
vt 0.21154387295246124 0.024049028754234314 
vt 0.05806007981300354 0.04351106658577919 
vt 0.0644754096865654 0.08792749047279358 
vt 0.021020615473389626 0.07789797335863113 
vt 0.015452591702342033 0.04649604111909866 
vt 0.03445649892091751 0.022019244730472565 
vt 0.5571244955062866 0.058435939252376556 
vt 0.517422080039978 0.058435939252376556 
vt 0.5571244955062866 0.03001897782087326 
vt 0.517422080039978 0.03001897782087326 
vt 0.5124592781066895 0.3091738522052765 
vt 0.5124592781066895 0.1871480643749237 
vt 0.561240017414093 0.3091738522052765 
vt 0.561240017414093 0.1871480643749237 
vt 0.5185114741325378 0.09139006584882736 
vt 0.5551877617835999 0.09139006584882736 
vt 0.5185114741325378 0.05401817709207535 
vt 0.5551877617835999 0.05401817709207535 
vt 0.5185114741325378 0.02882498875260353 
vt 0.5551877617835999 0.02882498875260353 
vt 0.5142748951911926 0.3003383278846741 
vt 0.5142748951911926 0.18356609344482422 
vt 0.5608768463134766 0.3003383278846741 
vt 0.5608768463134766 0.18356609344482422 
vt 0.5189956426620483 0.09210646152496338 
vt 0.5561561584472656 0.09210646152496338 
vt 0.5189956426620483 0.05640615522861481 
vt 0.5561561584472656 0.05640615522861481 
vt 0.5189956426620483 0.032287560403347015 
vt 0.5561561584472656 0.032287560403347015 
vt 0.4768723249435425 0.3047560751438141 
vt 0.4530266523361206 0.3047560751438141 
vt 0.4768723249435425 0.24505656957626343 
vt 0.4530266523361206 0.24505656957626343 
vt 0.4768723249435425 0.21663960814476013 
vt 0.4530266523361206 0.21663960814476013 
vt 0.2683134973049164 0.015452300198376179 
vt 0.21142283082008362 0.02392962947487831 
vt 0.27025020122528076 0.1090611144900322 
vt 0.21142283082008362 0.0888826847076416 
vt 0.2744867503643036 0.26260823011398315 
vt 0.21021239459514618 0.2761003077030182 
vt 0.23659998178482056 0.34750092029571533 
vt 0.07500623911619186 0.3778282701969147 
vt 0.06326497346162796 0.325292706489563 
vt 0.030704135075211525 0.3418891727924347 
vt 0.029977871105074883 0.3749626874923706 
vt 0.5561561584472656 0.03037717565894127 
vt 0.5561561584472656 0.05819714069366455 
vt 0.5148801207542419 0.03037717565894127 
vt 0.5148801207542419 0.05819714069366455 
vt 0.35377058386802673 0.3835594058036804 
vt 0.3939571678638458 0.3342476189136505 
vt 0.49091342091560364 0.4286922514438629 
vt 0.5095542073249817 0.37317171692848206 
vt 0.579638659954071 0.45042285323143005 
vt 0.6194621324539185 0.4114987850189209 
vt 0.007826820015907288 0.9929718971252441 
vt 0.007826820015907288 0.6868329048156738 
vt 0.9980877637863159 0.9929718971252441 
vt 0.9980877637863159 0.6868329048156738 
vt 0.9980877637863159 0.6541175246238708 
vt 0.007826820015907288 0.6541175246238708 
vt 0.9980877637863159 0.6227155923843384 
vt 0.007826820015907288 0.6227155923843384 
vt 0.007826820015907288 0.5903584957122803 
vt 0.9370816349983215 0.5597923398017883 
vt 0.9209827780723572 0.5597923398017883 
vt 0.9370816349983215 0.021661048755049706 
vt 0.9209827780723572 0.021661048755049706 
vt 0.7642307877540588 0.021661048755049706 
vt 0.7642307877540588 0.5597923398017883 
vt 0.754910409450531 0.02178044617176056 
vt 0.754910409450531 0.5599117279052734 
vt 0.7454689741134644 0.021899845451116562 
vt 0.7454689741134644 0.5599117279052734 
vt 0.730338454246521 0.5599117279052734 
vt 0.730338454246521 0.021899845451116562 
vt 0.7156921029090881 0.021899845451116562 
vt 0.03506172075867653 0.021541649475693703 
vt 0.015815723687410355 0.04673483967781067 
vt 0.0573338158428669 0.04339166730642319 
vt 0.020899571478366852 0.07861436903476715 
vt 0.0639912337064743 0.08828569203615189 
vt 0.5573666095733643 0.059271734207868576 
vt 0.5573666095733643 0.07730098068714142 
vt 0.5150011777877808 0.059271734207868576 
vt 0.5150011777877808 0.07730098068714142 
vt 0.5096752643585205 0.21055026352405548 
vt 0.5628135800361633 0.21055026352405548 
vt 0.5628135800361633 0.3126364052295685 
vt 0.5102804899215698 0.3057112693786621 
vt 0.5102804899215698 0.18929724395275116 
vt 0.5634188055992126 0.3057112693786621 
vt 0.5634188055992126 0.18929724395275116 
vt 0.5102804899215698 0.14822398126125336 
vt 0.5634188055992126 0.14822398126125336 
vt 0.5102804899215698 0.11550866067409515 
vt 0.5634188055992126 0.11550866067409515 
vt 0.034577544778585434 0.021302850916981697 
vt 0.0573338158428669 0.0437498614192009 
vt 0.014968415722250938 0.04649604111909866 
vt 0.02150479145348072 0.07706218212842941 
vt 0.0644754096865654 0.08840508759021759 
vt 0.21154387295246124 0.0234520323574543 
vt 0.21227014064788818 0.0887632891535759 
vt 0.26819247007369995 0.016049295663833618 
vt 0.2694028913974762 0.10965811461210251 
vt 0.21009133756160736 0.2765779197216034 
vt 0.2746078073978424 0.2647574245929718 
vt 0.23817355930805206 0.33257603645324707 
vt 0.354012668132782 0.382843017578125 
vt 0.39298883080482483 0.33579981327056885 
vt 0.49103447794914246 0.4274982511997223 
vt 0.5094331502914429 0.3746044933795929 
vt 0.5781861543655396 0.45018404722213745 
vt 0.5114908814430237 0.31072601675987244 
vt 0.5114908814430237 0.20959506928920746 
vt 0.564145028591156 0.31072601675987244 
vt 0.564145028591156 0.20959506928920746 
vt 0.5180273056030273 0.07742038369178772 
vt 0.5577297210693359 0.07742038369178772 
vt 0.5577297210693359 0.059629928320646286 
vt 0.5180273056030273 0.059629928320646286 
vt 0.563176691532135 0.09568842500448227 
vt 0.563176691532135 0.12697096168994904 
vt 0.5128223896026611 0.09568842500448227 
vt 0.5128223896026611 0.12697096168994904 
vt 0.563176691532135 0.1580146998167038 
vt 0.5128223896026611 0.1580146998167038 
vt 0.5695919990539551 0.3103678226470947 
vt 0.5065280795097351 0.3103678226470947 
vt 0.39407822489738464 0.3346058130264282 
vt 0.4912765622138977 0.4290504455566406 
vt 0.5088279247283936 0.37352991104125977 
vt 0.5785492658615112 0.44994527101516724 
vt 0.5127013325691223 0.30726346373558044 
vt 0.5127013325691223 0.2556830942630768 
vt 0.5617241859436035 0.30726346373558044 
vt 0.5617241859436035 0.2556830942630768 
vt 0.5127013325691223 0.14082124829292297 
vt 0.5617241859436035 0.14082124829292297 
vt 0.5127013325691223 0.062017910182476044 
vt 0.5617241859436035 0.062017910182476044 
vt 0.07549041509628296 0.3779476583003998 
vt 0.06290183961391449 0.32672548294067383 
vt 0.031309355050325394 0.3427249491214752 
vt 0.030462047085165977 0.3749626874923706 
vt 0.6183727383613586 0.4117375910282135 
vt 0.509312093257904 0.3736492991447449 
vt 0.5781861543655396 0.44970646500587463 
vt 0.4912765622138977 0.4278564453125 
vt 0.39310985803604126 0.3341282308101654 
vt 0.354012668132782 0.3836788237094879 
vt 0.5036230683326721 0.30750223994255066 
vt 0.5036230683326721 0.23705685138702393 
vt 0.5695919990539551 0.30750223994255066 
vt 0.5695919990539551 0.23705685138702393 
vt 0.5118540525436401 0.10655373334884644 
vt 0.5614820718765259 0.10655373334884644 
vt 0.5118540525436401 0.06977884471416473 
vt 0.5614820718765259 0.06977884471416473 
vt 0.5118540525436401 0.0438692606985569 
vt 0.5614820718765259 0.0438692606985569 
vt 0.10429888963699341 0.49030211567878723 
vt 0.10441993176937103 0.5150176882743835 
vt 0.3776162266731262 0.49149611592292786 
vt 0.37676894664764404 0.5212264657020569 
vt 0.422523558139801 0.5094059705734253 
vt 0.4041248857975006 0.49030211567878723 
vt 0.4300282895565033 0.48707833886146545 
vt 0.40642470121383667 0.48755595088005066 
vt 0.43075454235076904 0.4567510187625885 
vt 0.40727201104164124 0.456631600856781 
vt 0.5044703483581543 0.30403968691825867 
vt 0.5044703483581543 0.23657925426959991 
vt 0.5676553249359131 0.30403968691825867 
vt 0.5676553249359131 0.23657925426959991 
vt 0.5108856558799744 0.11168789118528366 
vt 0.561240017414093 0.11168789118528366 
vt 0.5108856558799744 0.0765845850110054 
vt 0.561240017414093 0.0765845850110054 
vt 0.5108856558799744 0.05174959450960159 
vt 0.561240017414093 0.05174959450960159 
vt 0.9980877637863159 0.5903584957122803 
vt 0.4066667854785919 0.4561540186405182 
vt 0.1032094955444336 0.490063339471817 
vt 0.7156921029090881 0.5599117279052734 
vt 0.03409336879849434 0.021661048755049706 
vt 0.6186148524284363 0.4113793969154358 
vt 0.5125802755355835 0.07682338356971741 
vt 0.5096752643585205 0.3126364052295685 
vt 0.6181306838989258 0.4111405909061432 
vt 0.05672859773039818 0.39740970730781555 
vt 0.05672859773039818 0.39776790142059326 
s on 
f 1/1/1 2/2/2 3/3/3 
f 2/2/2 4/4/4 3/3/3 
f 3/3/3 4/4/4 4/4/4 
f 4/4/4 2/2/2 4/4/4 
f 4/4/4 2/2/2 2/2/2 
f 2/2/2 5/5/5 2/2/2 
f 2/2/2 5/5/5 4/4/4 
f 5/5/5 6/6/6 4/4/4 
f 4/4/4 6/6/6 6/6/6 
f 6/6/6 5/5/5 6/6/6 
f 6/6/6 5/5/5 5/5/5 
f 5/5/5 7/7/7 5/5/5 
f 5/5/5 7/7/7 6/6/6 
f 7/7/7 8/8/8 6/6/6 
f 6/6/6 8/8/8 8/8/8 
f 8/8/8 7/7/7 8/8/8 
f 8/8/8 7/7/7 9/9/9 
f 7/7/7 10/10/10 9/9/9 
f 9/9/9 10/10/10 10/10/10 
f 10/10/10 11/11/11 10/10/10 
f 10/10/10 11/11/11 11/11/11 
f 11/11/11 12/12/12 11/11/11 
f 11/11/11 12/12/12 13/13/13 
f 12/12/12 14/14/14 13/13/13 
f 13/13/13 14/14/14 15/15/15 
f 14/14/14 16/16/16 15/15/15 
f 15/15/15 16/16/16 17/17/17 
f 16/16/16 18/18/18 17/17/17 
f 17/17/17 18/18/18 19/19/19 
f 18/18/18 19/19/19 19/19/19 
f 19/19/19 19/19/19 20/20/20 
f 19/19/19 20/20/20 20/20/20 
f 20/20/20 20/20/20 20/20/20 
f 20/20/20 21/21/21 20/20/20 
f 20/20/20 21/21/21 22/22/22 
f 21/21/21 23/23/23 22/22/22 
f 22/22/22 23/23/23 23/23/23 
f 23/23/23 21/21/21 23/23/23 
f 23/23/23 21/21/21 21/21/21 
f 21/21/21 24/24/24 21/21/21 
f 21/21/21 24/24/24 23/23/23 
f 24/24/24 25/25/25 23/23/23 
f 23/23/23 25/25/25 25/25/25 
f 25/25/25 24/24/24 25/25/25 
f 25/25/25 24/24/24 26/26/26 
f 24/24/24 27/27/27 26/26/26 
f 26/26/26 27/27/27 28/28/28 
f 27/27/27 28/28/28 28/28/28 
f 28/28/28 28/28/28 26/26/26 
f 28/28/28 26/26/26 26/26/26 
f 26/26/26 26/26/26 26/26/26 
f 26/26/26 28/28/28 26/26/26 
f 26/26/26 28/28/28 29/29/29 
f 28/28/28 30/30/30 29/29/29 
f 29/29/29 30/30/30 31/31/31 
f 30/30/30 32/32/32 31/31/31 
f 31/31/31 32/32/32 33/33/33 
f 32/32/32 33/33/33 33/33/33 
f 33/33/33 33/33/33 34/34/34 
f 33/33/33 34/34/34 34/34/34 
f 34/34/34 34/34/34 34/34/34 
f 34/34/34 35/35/35 34/34/34 
f 34/34/34 35/35/35 36/36/36 
f 35/35/35 37/37/37 36/36/36 
f 36/36/36 37/37/37 37/37/37 
f 37/37/37 35/35/35 37/37/37 
f 37/37/37 35/35/35 35/35/35 
f 35/35/35 38/38/38 35/35/35 
f 35/35/35 38/38/38 37/37/37 
f 38/38/38 39/39/39 37/37/37 
f 37/37/37 39/39/39 39/39/39 
f 39/39/39 38/38/38 39/39/39 
f 39/39/39 38/38/38 40/40/40 
f 38/38/38 41/41/41 40/40/40 
f 40/40/40 41/41/41 42/42/42 
f 41/41/41 43/43/43 42/42/42 
f 42/42/42 43/43/43 43/43/43 
f 43/43/43 44/44/44 43/43/43 
f 43/43/43 44/44/44 44/44/44 
f 44/44/44 45/45/45 44/44/44 
f 44/44/44 45/45/45 46/46/46 
f 45/45/45 47/47/47 46/46/46 
f 46/46/46 47/47/47 47/47/47 
f 47/47/47 45/45/45 47/47/47 
f 47/47/47 45/45/45 45/45/45 
f 45/45/45 48/48/48 45/45/45 
f 45/45/45 48/48/48 47/47/47 
f 48/48/48 49/49/49 47/47/47 
f 47/47/47 49/49/49 49/49/49 
f 49/49/49 48/48/48 49/49/49 
f 49/49/49 48/48/48 48/48/48 
f 48/48/48 50/50/50 48/48/48 
f 48/48/48 50/50/50 49/49/49 
f 50/50/50 51/51/51 49/49/49 
f 49/49/49 51/51/51 51/51/51 
f 51/51/51 52/52/52 51/51/51 
f 51/51/51 52/52/52 52/52/52 
f 52/52/52 53/53/53 52/52/52 
f 52/52/52 53/53/53 54/54/54 
f 53/53/53 55/55/55 54/54/54 
f 54/54/54 55/55/55 56/56/56 
f 55/55/55 57/57/57 56/56/56 
f 56/56/56 57/57/57 58/58/58 
f 57/57/57 59/59/59 58/58/58 
f 58/58/58 59/59/59 60/60/60 
f 59/59/59 60/60/60 60/60/60 
f 60/60/60 60/60/60 61/61/61 
f 60/60/60 61/61/61 61/61/61 
f 61/61/61 61/61/61 61/61/61 
f 61/61/61 62/62/62 61/61/61 
f 61/61/61 62/62/62 63/63/63 
f 62/62/62 64/64/64 63/63/63 
f 63/63/63 64/64/64 64/64/64 
f 64/64/64 62/62/62 64/64/64 
f 64/64/64 62/62/62 62/62/62 
f 62/62/62 65/65/65 62/62/62 
f 62/62/62 65/65/65 64/64/64 
f 65/65/65 66/66/66 64/64/64 
f 64/64/64 66/66/66 66/66/66 
f 66/66/66 65/65/65 66/66/66 
f 66/66/66 65/65/65 65/65/65 
f 65/65/65 67/67/67 65/65/65 
f 65/65/65 67/67/67 66/66/66 
f 67/67/67 68/68/68 66/66/66 
f 66/66/66 68/68/68 68/68/68 
f 68/68/68 69/69/69 68/68/68 
f 68/68/68 69/69/69 69/69/69 
f 69/69/69 70/70/70 69/69/69 
f 69/69/69 70/70/70 71/71/71 
f 70/70/70 72/72/72 71/71/71 
f 71/71/71 72/72/72 73/73/73 
f 72/72/72 74/74/74 73/73/73 
f 73/73/73 74/74/74 74/74/74 
f 74/74/74 75/75/75 74/74/74 
f 74/74/74 75/75/75 75/75/75 
f 75/75/75 76/76/76 75/75/75 
f 75/75/75 76/76/76 77/77/77 
f 76/76/76 78/78/78 77/77/77 
f 77/77/77 78/78/78 79/79/79 
f 78/78/78 79/79/79 79/79/79 
f 79/79/79 79/79/79 77/77/77 
f 79/79/79 77/77/77 77/77/77 
f 77/77/77 77/77/77 77/77/77 
f 77/77/77 79/79/79 77/77/77 
f 77/77/77 79/79/79 80/80/80 
f 79/79/79 81/81/81 80/80/80 
f 80/80/80 81/81/81 81/81/81 
f 81/81/81 82/82/82 81/81/81 
f 81/81/81 82/82/82 82/82/82 
f 82/82/82 83/83/83 82/82/82 
f 82/82/82 83/83/83 84/84/84 
f 83/83/83 85/85/85 84/84/84 
f 84/84/84 85/85/85 85/85/85 
f 85/85/85 83/83/83 85/85/85 
f 85/85/85 83/83/83 86/86/86 
f 83/83/83 87/87/87 86/86/86 
f 86/86/86 87/87/87 87/87/87 
f 87/87/87 83/83/83 87/87/87 
f 87/87/87 83/83/83 83/83/83 
f 83/83/83 88/88/88 83/83/83 
f 83/83/83 88/88/88 87/87/87 
f 88/88/88 89/89/89 87/87/87 
f 87/87/87 89/89/89 90/90/90 
f 89/89/89 91/91/91 90/90/90 
f 90/90/90 91/91/91 92/92/92 
f 91/91/91 93/93/93 92/92/92 
f 92/92/92 93/93/93 93/93/93 
f 93/93/93 92/92/92 93/93/93 
f 93/93/93 92/92/92 92/92/92 
f 92/92/92 94/94/94 92/92/92 
f 92/92/92 94/94/94 90/90/90 
f 94/94/94 95/95/95 90/90/90 
f 90/90/90 95/95/95 95/95/95 
f 95/95/95 94/94/94 95/95/95 
f 95/95/95 94/94/94 96/96/96 
f 94/94/94 97/97/97 96/96/96 
f 96/96/96 97/97/97 97/97/97 
f 97/97/97 98/98/98 97/97/97 
f 97/97/97 98/98/98 98/98/98 
f 98/98/98 99/99/99 98/98/98 
f 98/98/98 99/99/99 100/100/100 
f 99/99/99 101/101/101 100/100/100 
f 100/100/100 101/101/101 102/102/102 
f 101/101/101 102/102/102 102/102/102 
f 102/102/102 102/102/102 102/102/102 
f 102/102/102 103/103/103 102/102/102 
f 102/102/102 103/103/103 100/100/100 
f 103/103/103 104/104/104 100/100/100 
f 100/100/100 104/104/104 104/104/104 
f 104/104/104 103/103/103 104/104/104 
f 104/104/104 103/103/103 103/103/103 
f 103/103/103 105/105/105 103/103/103 
f 103/103/103 105/105/105 104/104/104 
f 105/105/105 106/106/106 104/104/104 
f 104/104/104 106/106/106 106/106/106 
f 106/106/106 105/105/105 106/106/106 
f 106/106/106 105/105/105 105/105/105 
f 105/105/105 103/103/103 105/105/105 
f 105/105/105 103/103/103 107/107/107 
f 103/103/103 108/108/108 107/107/107 
f 107/107/107 108/108/108 109/109/109 
f 108/108/108 110/110/110 109/109/109 
f 109/109/109 110/110/110 110/110/110 
f 110/110/110 108/108/108 110/110/110 
f 110/110/110 108/108/108 111/111/111 
f 108/108/108 112/112/112 111/111/111 
f 111/111/111 112/112/112 113/113/113 
f 112/112/112 113/113/113 113/113/113 
f 113/113/113 113/113/113 113/113/113 
f 113/113/113 114/114/114 113/113/113 
f 113/113/113 114/114/114 111/111/111 
f 114/114/114 115/115/115 111/111/111 
f 111/111/111 115/115/115 115/115/115 
f 115/115/115 116/116/116 115/115/115 
f 115/115/115 116/116/116 116/116/116 
f 116/116/116 117/117/117 116/116/116 
f 116/116/116 117/117/117 118/118/118 
f 117/117/117 119/119/119 118/118/118 
f 118/118/118 119/119/119 119/119/119 
f 119/119/119 120/120/120 119/119/119 
f 119/119/119 120/120/120 120/120/120 
f 120/120/120 121/121/121 120/120/120 
f 120/120/120 121/121/121 122/122/122 
f 121/121/121 123/123/123 122/122/122 
f 122/122/122 123/123/123 123/123/123 
f 123/123/123 121/121/121 123/123/123 
f 123/123/123 121/121/121 121/121/121 
f 121/121/121 124/124/124 121/121/121 
f 121/121/121 124/124/124 123/123/123 
f 124/124/124 125/125/125 123/123/123 
f 123/123/123 125/125/125 125/125/125 
f 125/125/125 124/124/124 125/125/125 
f 125/125/125 124/124/124 124/124/124 
f 124/124/124 126/126/126 124/124/124 
f 124/124/124 126/126/126 125/125/125 
f 126/126/126 127/127/127 125/125/125 
f 125/125/125 127/127/127 127/127/127 
f 127/127/127 126/126/126 127/127/127 
f 127/127/127 126/126/126 126/126/126 
f 126/126/126 128/128/128 126/126/126 
f 126/126/126 128/128/128 127/127/127 
f 128/128/128 129/129/129 127/127/127 
f 127/127/127 129/129/129 129/129/129 
f 129/129/129 130/130/130 129/129/129 
f 129/129/129 130/130/130 130/130/130 
f 130/130/130 131/131/131 130/130/130 
f 130/130/130 131/131/131 132/132/132 
f 131/131/131 133/133/133 132/132/132 
f 132/132/132 133/133/133 133/133/133 
f 133/133/133 131/131/131 133/133/133 
f 133/133/133 131/131/131 131/131/131 
f 131/131/131 134/134/134 131/131/131 
f 131/131/131 134/134/134 133/133/133 
f 134/134/134 135/135/135 133/133/133 
f 133/133/133 135/135/135 135/135/135 
f 135/135/135 134/134/134 135/135/135 
f 135/135/135 134/134/134 134/134/134 
f 134/134/134 136/136/136 134/134/134 
f 134/134/134 136/136/136 135/135/135 
f 136/136/136 137/137/137 135/135/135 
f 135/135/135 137/137/137 137/137/137 
f 137/137/137 136/136/136 137/137/137 
f 137/137/137 136/136/136 136/136/136 
f 136/136/136 138/138/138 136/136/136 
f 136/136/136 138/138/138 137/137/137 
f 138/138/138 139/139/139 137/137/137 
f 137/137/137 139/139/139 139/139/139 
f 139/139/139 140/140/140 139/139/139 
f 139/139/139 140/140/140 140/140/140 
f 140/140/140 141/141/141 140/140/140 
f 140/140/140 141/141/141 142/142/142 
f 141/141/141 143/143/143 142/142/142 
f 142/142/142 143/143/143 144/144/144 
f 143/143/143 145/145/145 144/144/144 
f 144/144/144 145/145/145 145/145/145 
f 145/145/145 146/146/146 145/145/145 
f 145/145/145 146/146/146 146/146/146 
f 146/146/146 147/147/147 146/146/146 
f 146/146/146 147/147/147 148/148/148 
f 147/147/147 149/149/149 148/148/148 
f 148/148/148 149/149/149 150/150/150 
f 149/149/149 151/151/151 150/150/150 
f 150/150/150 151/151/151 152/152/152 
f 151/151/151 153/153/153 152/152/152 
f 152/152/152 153/153/153 153/153/153 
f 153/153/153 151/151/151 153/153/153 
f 153/153/153 151/151/151 151/151/151 
f 151/151/151 154/154/154 151/151/151 
f 151/151/151 154/154/154 153/153/153 
f 154/154/154 155/155/155 153/153/153 
f 153/153/153 155/155/155 156/156/156 
f 155/155/155 156/156/156 156/156/156 
f 156/156/156 156/156/156 157/157/157 
f 156/156/156 157/157/157 157/157/157 
f 157/157/157 157/157/157 157/157/157 
f 157/157/157 158/158/158 157/157/157 
f 157/157/157 158/158/158 159/159/159 
f 158/158/158 160/160/160 159/159/159 
f 159/159/159 160/160/160 160/160/160 
f 160/160/160 152/152/152 160/160/160 
f 160/160/160 152/152/152 152/152/152 
f 152/152/152 161/161/161 152/152/152 
f 152/152/152 161/161/161 150/150/150 
f 161/161/161 162/162/162 150/150/150 
f 150/150/150 162/162/162 162/162/162 
f 162/162/162 161/161/161 162/162/162 
f 162/162/162 161/161/161 161/161/161 
f 161/161/161 163/163/163 161/161/161 
f 161/161/161 163/163/163 162/162/162 
f 163/163/163 164/164/164 162/162/162 
f 162/162/162 164/164/164 164/164/164 
f 164/164/164 163/163/163 164/164/164 
f 164/164/164 163/163/163 163/163/163 
f 163/163/163 165/165/165 163/163/163 
f 163/163/163 165/165/165 164/164/164 
f 165/165/165 166/166/166 164/164/164 
f 164/164/164 166/166/166 166/166/166 
f 166/166/166 167/167/167 166/166/166 
f 166/166/166 167/167/167 167/167/167 
f 167/167/167 168/168/168 167/167/167 
f 167/167/167 168/168/168 169/169/169 
f 168/168/168 170/170/170 169/169/169 
f 169/169/169 170/170/170 170/170/170 
f 170/170/170 168/168/168 170/170/170 
f 170/170/170 168/168/168 171/171/171 
f 168/168/168 172/172/172 171/171/171 
f 171/171/171 172/172/172 173/173/173 
f 172/172/172 174/174/174 173/173/173 
f 173/173/173 174/174/174 175/175/175 
f 174/174/174 175/175/175 175/175/175 
f 175/175/175 175/175/175 176/176/176 
f 175/175/175 176/176/176 176/176/176 
f 176/176/176 176/176/176 176/176/176 
f 176/176/176 177/177/177 176/176/176 
f 176/176/176 177/177/177 178/178/178 
f 177/177/177 179/179/179 178/178/178 
f 178/178/178 179/179/179 179/179/179 
f 179/179/179 177/177/177 179/179/179 
f 179/179/179 177/177/177 180/180/180 
f 177/177/177 181/181/181 180/180/180 
f 180/180/180 181/181/181 182/182/182 
f 181/181/181 183/183/183 182/182/182 
f 182/182/182 183/183/183 184/184/184 
f 183/183/183 185/185/185 184/184/184 
f 184/184/184 185/185/185 186/186/186 
f 185/185/185 186/186/186 186/186/186 
f 186/186/186 186/186/186 184/184/184 
f 186/186/186 184/184/184 184/184/184 
f 184/184/184 184/184/184 184/184/184 
f 184/184/184 186/186/186 184/184/184 
f 184/184/184 186/186/186 187/187/187 
f 186/186/186 188/188/188 187/187/187 
f 187/187/187 188/188/188 188/188/188 
f 188/188/188 189/189/189 188/188/188 
f 188/188/188 189/189/189 189/189/189 
f 189/189/189 190/190/190 189/189/189 
f 189/189/189 190/190/190 191/191/191 
f 190/190/190 192/192/192 191/191/191 
f 191/191/191 192/192/192 193/193/193 
f 192/192/192 193/193/193 193/193/193 
f 193/193/193 193/193/193 193/193/193 
f 193/193/193 149/149/149 193/193/193 
f 193/193/193 149/149/149 191/191/191 
f 149/149/149 147/147/147 191/191/191 
f 191/191/191 147/147/147 147/147/147 
f 147/147/147 194/194/194 147/147/147 
f 147/147/147 194/194/194 194/194/194 
f 194/194/194 195/195/195 194/194/194 
f 194/194/194 195/195/195 196/196/196 
f 195/195/195 197/197/197 196/196/196 
f 196/196/196 197/197/197 197/197/197 
f 197/197/197 195/195/195 197/197/197 
f 197/197/197 195/195/195 198/198/198 
f 195/195/195 199/199/199 198/198/198 
f 198/198/198 199/199/199 200/200/200 
f 199/199/199 200/200/200 200/200/200 
f 200/200/200 200/200/200 201/201/201 
f 200/200/200 201/201/201 201/201/201 
f 201/201/201 201/201/201 201/201/201 
f 201/201/201 202/202/202 201/201/201 
f 201/201/201 202/202/202 203/203/203 
f 202/202/202 204/204/204 203/203/203 
f 203/203/203 204/204/204 204/204/204 
f 204/204/204 202/202/202 204/204/204 
f 204/204/204 202/202/202 202/202/202 
f 202/202/202 205/205/205 202/202/202 
f 202/202/202 205/205/205 204/204/204 
f 205/205/205 206/206/206 204/204/204 
f 204/204/204 206/206/206 206/206/206 
f 206/206/206 205/205/205 206/206/206 
f 206/206/206 205/205/205 205/205/205 
f 205/205/205 207/207/207 205/205/205 
f 205/205/205 207/207/207 206/206/206 
f 207/207/207 208/208/208 206/206/206 
f 206/206/206 208/208/208 208/208/208 
f 208/208/208 209/209/209 208/208/208 
f 208/208/208 209/209/209 209/209/209 
f 209/209/209 210/210/210 209/209/209 
f 209/209/209 210/210/210 211/211/211 
f 210/210/210 212/212/212 211/211/211 
f 211/211/211 212/212/212 212/212/212 
f 212/212/212 210/210/210 212/212/212 
f 212/212/212 210/210/210 213/213/213 
f 210/210/210 214/214/214 213/213/213 
f 213/213/213 214/214/214 215/215/215 
f 214/214/214 216/216/216 215/215/215 
f 215/215/215 216/216/216 217/217/217 
f 216/216/216 217/217/217 217/217/217 
f 217/217/217 217/217/217 215/215/215 
f 217/217/217 215/215/215 215/215/215 
f 215/215/215 215/215/215 215/215/215 
f 215/215/215 217/217/217 215/215/215 
f 215/215/215 217/217/217 218/218/218 
f 217/217/217 219/219/219 218/218/218 
f 218/218/218 219/219/219 220/220/220 
f 219/219/219 221/221/221 220/220/220 
f 220/220/220 221/221/221 221/221/221 
f 221/221/221 219/219/219 221/221/221 
f 221/221/221 219/219/219 219/219/219 
f 219/219/219 222/222/222 219/219/219 
f 219/219/219 222/222/222 221/221/221 
f 222/222/222 223/223/223 221/221/221 
f 221/221/221 223/223/223 223/223/223 
f 223/223/223 222/222/222 223/223/223 
f 223/223/223 222/222/222 222/222/222 
f 222/222/222 224/224/224 222/222/222 
f 222/222/222 224/224/224 223/223/223 
f 224/224/224 225/225/225 223/223/223 
f 223/223/223 225/225/225 225/225/225 
f 225/225/225 226/226/226 225/225/225 
f 225/225/225 226/226/226 226/226/226 
f 226/226/226 227/227/227 226/226/226 
f 226/226/226 227/227/227 228/228/228 
f 227/227/227 229/229/229 228/228/228 
f 228/228/228 229/229/229 229/229/229 
f 229/229/229 227/227/227 229/229/229 
f 229/229/229 227/227/227 227/227/227 
f 227/227/227 230/230/230 227/227/227 
f 227/227/227 230/230/230 229/229/229 
f 230/230/230 231/231/231 229/229/229 
f 229/229/229 231/231/231 231/231/231 
f 231/231/231 230/230/230 231/231/231 
f 231/231/231 230/230/230 232/232/232 
f 230/230/230 233/233/233 232/232/232 
f 232/232/232 233/233/233 233/233/233 
f 233/233/233 234/234/234 233/233/233 
f 233/233/233 234/234/234 234/234/234 
f 234/234/234 235/235/235 234/234/234 
f 234/234/234 235/235/235 236/236/236 
f 235/235/235 237/237/237 236/236/236 
f 236/236/236 237/237/237 237/237/237 
f 237/237/237 235/235/235 237/237/237 
f 237/237/237 235/235/235 235/235/235 
f 235/235/235 238/238/238 235/235/235 
f 235/235/235 238/238/238 237/237/237 
f 238/238/238 239/239/239 237/237/237 
f 237/237/237 239/239/239 239/239/239 
f 239/239/239 238/238/238 239/239/239 
f 239/239/239 238/238/238 238/238/238 
f 238/238/238 240/240/240 238/238/238 
f 238/238/238 240/240/240 239/239/239 
f 240/240/240 241/241/241 239/239/239 
f 239/239/239 241/241/241 241/241/241 
f 241/241/241 105/105/105 241/241/241 
f 241/241/241 105/105/105 105/105/105 
f 105/105/105 242/242/242 105/105/105 
f 105/105/105 242/242/242 106/106/106 
f 242/242/242 243/243/243 106/106/106 
f 106/106/106 243/243/243 243/243/243 
f 243/243/243 242/242/242 243/243/243 
f 243/243/243 242/242/242 242/242/242 
f 242/242/242 244/244/244 242/242/242 
f 242/242/242 244/244/244 243/243/243 
f 244/244/244 245/245/245 243/243/243 
f 243/243/243 245/245/245 245/245/245 
f 245/245/245 246/246/246 245/245/245 
f 245/245/245 246/246/246 246/246/246 
f 246/246/246 247/247/247 246/246/246 
f 246/246/246 247/247/247 248/248/248 
f 247/247/247 249/249/249 248/248/248 
f 248/248/248 249/249/249 249/249/249 
f 249/249/249 247/247/247 249/249/249 
f 249/249/249 247/247/247 247/247/247 
f 247/247/247 250/250/250 247/247/247 
f 247/247/247 250/250/250 249/249/249 
f 250/250/250 251/251/251 249/249/249 
f 249/249/249 251/251/251 251/251/251 
f 251/251/251 250/250/250 251/251/251 
f 251/251/251 250/250/250 250/250/250 
f 250/250/250 252/252/252 250/250/250 
f 250/250/250 252/252/252 251/251/251 
f 252/252/252 253/253/253 251/251/251 
f 251/251/251 253/253/253 253/253/253 
f 253/253/253 220/220/220 253/253/253 
f 253/253/253 220/220/220 220/220/220 
f 220/220/220 254/254/254 220/220/220 
f 220/220/220 254/254/254 218/218/218 
f 254/254/254 255/255/255 218/218/218 
f 218/218/218 255/255/255 255/255/255 
f 255/255/255 254/254/254 255/255/255 
f 255/255/255 254/254/254 256/256/256 
f 254/254/254 257/257/257 256/256/256 
f 256/256/256 257/257/257 257/257/257 
f 257/257/257 258/258/258 257/257/257 
f 257/257/257 258/258/258 258/258/258 
f 258/258/258 259/259/259 258/258/258 
f 258/258/258 259/259/259 260/260/260 
f 259/259/259 261/261/261 260/260/260 
f 260/260/260 261/261/261 261/261/261 
f 261/261/261 259/259/259 261/261/261 
f 261/261/261 259/259/259 259/259/259 
f 259/259/259 262/262/262 259/259/259 
f 259/259/259 262/262/262 261/261/261 
f 262/262/262 263/263/263 261/261/261 
f 261/261/261 263/263/263 263/263/263 
f 263/263/263 262/262/262 263/263/263 
f 263/263/263 262/262/262 262/262/262 
f 262/262/262 89/89/89 262/262/262 
f 262/262/262 89/89/89 263/263/263 
f 89/89/89 88/88/88 263/263/263 
f 263/263/263 88/88/88 88/88/88 
f 88/88/88 264/264/264 88/88/88 
f 88/88/88 264/264/264 264/264/264 
f 264/264/264 265/265/265 264/264/264 
f 264/264/264 265/265/265 266/266/266 
f 265/265/265 267/267/267 266/266/266 
f 266/266/266 267/267/267 267/267/267 
f 267/267/267 265/265/265 267/267/267 
f 267/267/267 265/265/265 265/265/265 
f 265/265/265 268/268/268 265/265/265 
f 265/265/265 268/268/268 267/267/267 
f 268/268/268 269/269/269 267/267/267 
f 267/267/267 269/269/269 269/269/269 
f 269/269/269 268/268/268 269/269/269 
f 269/269/269 268/268/268 268/268/268 
f 268/268/268 270/270/270 268/268/268 
f 268/268/268 270/270/270 269/269/269 
f 270/270/270 271/271/271 269/269/269 
f 269/269/269 271/271/271 271/271/271 
f 271/271/271 270/270/270 271/271/271 
f 271/271/271 270/270/270 270/270/270 
f 270/270/270 272/272/272 270/270/270 
f 270/270/270 272/272/272 271/271/271 
f 272/272/272 273/273/273 271/271/271 
f 271/271/271 273/273/273 273/273/273 
f 273/273/273 274/274/274 273/273/273 
f 273/273/273 274/274/274 274/274/274 
f 274/274/274 275/275/275 274/274/274 
f 274/274/274 275/275/275 276/276/276 
f 275/275/275 277/277/277 276/276/276 
f 276/276/276 277/277/277 278/278/278 
f 277/277/277 278/278/278 278/278/278 
f 278/278/278 278/278/278 276/276/276 
f 278/278/278 276/276/276 276/276/276 
f 276/276/276 276/276/276 276/276/276 
f 276/276/276 278/278/278 276/276/276 
f 276/276/276 278/278/278 279/279/279 
f 278/278/278 280/280/280 279/279/279 
f 279/279/279 280/280/280 281/281/281 
f 280/280/280 282/282/282 281/281/281 
f 281/281/281 282/282/282 283/283/283 
f 282/282/282 283/283/283 283/283/283 
f 283/283/283 283/283/283 284/284/284 
f 283/283/283 284/284/284 284/284/284 
f 284/284/284 284/284/284 284/284/284 
f 284/284/284 285/285/285 284/284/284 
f 284/284/284 285/285/285 286/286/286 
f 285/285/285 287/287/287 286/286/286 
f 286/286/286 287/287/287 287/287/287 
f 287/287/287 285/285/285 287/287/287 
f 287/287/287 285/285/285 285/285/285 
f 285/285/285 288/288/288 285/285/285 
f 285/285/285 288/288/288 287/287/287 
f 288/288/288 289/289/289 287/287/287 
f 287/287/287 289/289/289 289/289/289 
f 289/289/289 288/288/288 289/289/289 
f 289/289/289 288/288/288 288/288/288 
f 288/288/288 290/290/290 288/288/288 
f 288/288/288 290/290/290 289/289/289 
f 290/290/290 291/291/291 289/289/289 
f 289/289/289 291/291/291 291/291/291 
f 291/291/291 290/290/290 291/291/291 
f 291/291/291 290/290/290 290/290/290 
f 290/290/290 292/292/292 290/290/290 
f 290/290/290 292/292/292 291/291/291 
f 292/292/292 293/293/293 291/291/291 
f 173/173/173 175/175/175 294/294/294 
f 17/17/17 19/19/19 295/295/295 
f 58/58/58 60/60/60 296/296/296 
f 297/297/297 188/188/188 186/186/186 
f 97/97/97 94/94/94 298/298/298 
f 299/299/299 245/245/245 244/244/244 
f 81/81/81 79/79/79 300/300/300 
f 200/200/200 301/301/301 198/198/198 
f 302/302/302 225/225/225 224/224/224 
f 153/153/153 156/156/156 303/303/303 
f 257/257/257 254/254/254 304/304/304 

