mtllib model_0.mtl
o model_0
v -22.28131866455078 -8.745190620422363 6.7103118896484375 
v -20.222064971923828 -8.745190620422363 5.903780937194824 
v -22.23712921142578 -8.865737915039062 6.823139190673828 
v -20.177873611450195 -8.865737915039062 6.016608238220215 
v -21.710079193115234 -8.865737915039062 8.16881275177002 
v -24.296382904052734 -8.865737915039062 7.629670143127441 
v -26.86212921142578 -8.865737915039062 10.186674118041992 
v -26.355636596679688 -8.865737915039062 8.436201095581055 
v -28.422719955444336 -8.865737915039062 9.24579906463623 
v -28.466909408569336 -8.745190620422363 9.13297176361084 
v -29.014904022216797 -8.865737915039062 9.601521492004395 
v -29.096088409423828 -8.745190620422363 9.509531021118164 
v -29.356151580810547 -8.865737915039062 10.090665817260742 
v -24.340572357177734 -8.745190620422363 7.516842842102051 
v -26.399826049804688 -8.745190620422363 8.323373794555664 
v -29.473535537719727 -8.745190620422363 10.044594764709473 
v -29.480730056762695 -8.865737915039062 10.694912910461426 
v -29.334016799926758 -8.865737915039062 11.669010162353516 
v -29.443635940551758 -8.745190620422363 11.711943626403809 
v -29.160520553588867 -8.745190620422363 12.550091743469238 
v -29.050901412963867 -8.865737915039062 12.507159233093262 
v -28.799104690551758 -8.745190620422363 13.357573509216309 
v -28.68948745727539 -8.865737915039062 13.314640045166016 
v -28.134544372558594 -8.865737915039062 14.132022857666016 
v -28.25199317932129 -8.721475601196289 14.178023338317871 
v -27.61894416809082 -8.865737915039062 14.45697021484375 
v -27.688682556152344 -8.6602144241333 14.601723670959473 
v -27.05005645751953 -8.865737915039062 14.618216514587402 
v -27.04717254638672 -8.727404594421387 14.740873336791992 
v -26.330690383911133 -8.745190620422363 14.5872163772583 
v -26.373804092407227 -8.865737915039062 14.477141380310059 
v -24.263607025146484 -8.745190620422363 13.777618408203125 
v -24.306718826293945 -8.865737915039062 13.667543411254883 
v -22.20435333251953 -8.745190620422363 12.971087455749512 
v -22.247465133666992 -8.865737915039062 12.86101245880127 
v -20.145099639892578 -8.745190620422363 12.164556503295898 
v -29.598176956176758 -8.745190620422363 10.740913391113281 
v -26.365259170532227 -8.865737915039062 11.455294609069824 
v -25.867311477661133 -8.865737915039062 12.726668357849121 
v -20.715261459350586 -8.865737915039062 10.708806991577148 
v -20.18821144104004 -8.865737915039062 12.054481506347656 
v -18.128957748413086 -8.865737915039062 11.247950553894043 
v -18.085845947265625 -8.745190620422363 11.358025550842285 
v -16.061874389648438 -8.865737915039062 10.438352584838867 
v -16.018762588500977 -8.745190620422363 10.548428535461426 
v -14.002619743347168 -8.865737915039062 9.631821632385254 
v -13.959507942199707 -8.745190620422363 9.741897583007812 
v -13.410435676574707 -8.865737915039062 9.276098251342773 
v -13.329252243041992 -8.727404594421387 9.368088722229004 
v -12.952881813049316 -8.6602144241333 8.830273628234863 
v -13.102378845214844 -8.865737915039062 8.771387100219727 
v -12.827162742614746 -8.721475601196289 8.136707305908203 
v -12.93678092956543 -8.865737915039062 8.179640769958496 
v -12.974952697753906 -8.745190620422363 7.159858226776123 
v -15.563211441040039 -8.865737915039062 8.690946578979492 
v -16.061159133911133 -8.865737915039062 7.4195733070373535 
v -13.084569931030273 -8.865737915039062 7.202791213989258 
v -13.36768627166748 -8.865737915039062 6.364643096923828 
v -13.258068084716797 -8.745190620422363 6.321709632873535 
v -13.729100227355957 -8.865737915039062 5.557161331176758 
v -13.61948299407959 -8.745190620422363 5.514228343963623 
v -14.282964706420898 -8.865737915039062 4.742530345916748 
v -14.173347473144531 -8.745190620422363 4.699597358703613 
v -14.7377347946167 -8.745190620422363 4.273144721984863 
v -14.78477668762207 -8.865737915039062 4.383615970611572 
v -15.378168106079102 -8.745190620422363 4.136746883392334 
v -15.375283241271973 -8.865737915039062 4.259404182434082 
v -16.095726013183594 -8.745190620422363 4.287652015686035 
v -16.558029174804688 -8.865737915039062 6.150952339172363 
v -21.21320915222168 -8.865737915039062 9.437434196472168 
v -18.110790252685547 -8.865737915039062 5.207010746002197 
v -18.15498161315918 -8.745190620422363 5.094182968139648 
v -16.051536560058594 -8.865737915039062 4.400479316711426 
v -13.258068084716797 -7.322333335876465 6.321709632873535 
v -13.61948299407959 -7.322333335876465 5.514228343963623 
v -13.61948299407959 -8.745190620422363 5.514228343963623 
v -14.173347473144531 -8.745190620422363 4.699597358703613 
v -14.173347473144531 -7.322333335876465 4.699597358703613 
v -14.7377347946167 -8.745190620422363 4.273144721984863 
v -14.7377347946167 -7.322333335876465 4.273144721984863 
v -15.378168106079102 -8.745190620422363 4.136746883392334 
v -15.378168106079102 -7.322333335876465 4.136746883392334 
v -16.095726013183594 -8.745190620422363 4.287652015686035 
v -16.095726013183594 -7.322333335876465 4.287652015686035 
v -18.15498161315918 -7.330238342285156 5.094182968139648 
v -18.15498161315918 -8.745190620422363 5.094182968139648 
v -20.223142623901367 -7.340119361877441 5.901028633117676 
v -20.222064971923828 -8.745190620422363 5.903780937194824 
v -22.28347396850586 -7.348023891448975 6.704807758331299 
v -22.28131866455078 -8.745190620422363 6.7103118896484375 
v -13.258068084716797 -8.745190620422363 6.321709632873535 
v -12.974952697753906 -8.745190620422363 7.159858226776123 
v -12.974952697753906 -7.322333335876465 7.159858226776123 
v -12.827162742614746 -8.721475601196289 8.136707305908203 
v -12.827162742614746 -7.322333335876465 8.136707305908203 
v -12.952881813049316 -8.6602144241333 8.830273628234863 
v -12.952881813049316 -7.322333335876465 8.830273628234863 
v -13.329252243041992 -7.322333335876465 9.368088722229004 
v -13.329252243041992 -8.727404594421387 9.368088722229004 
v -13.959507942199707 -7.322333335876465 9.741897583007812 
v -13.959507942199707 -8.745190620422363 9.741897583007812 
v -16.018762588500977 -7.322333335876465 10.548428535461426 
v -16.018762588500977 -8.745190620422363 10.548428535461426 
v -18.085845947265625 -7.322333335876465 11.358025550842285 
v -18.085845947265625 -8.745190620422363 11.358025550842285 
v -20.145099639892578 -7.322333335876465 12.164556503295898 
v -20.145099639892578 -8.745190620422363 12.164556503295898 
v -18.002695083618164 -4.9390482902526855 5.0218424797058105 
v -15.86406421661377 -4.937072277069092 4.18739652633667 
v -17.95929718017578 -4.82047700881958 5.109588146209717 
v -15.81391429901123 -4.82047700881958 4.269323825836182 
v -16.40102195739746 -4.82047700881958 5.8831467628479 
v -15.229178428649902 -4.82047700881958 4.148221969604492 
v -20.118690490722656 -4.82047700881958 5.9140777587890625 
v -20.1610107421875 -4.937072277069092 5.8290839195251465 
v -22.264074325561523 -4.82047700881958 6.754342079162598 
v -22.29856300354004 -4.937072277069092 6.666281700134277 
v -24.431804656982422 -4.937072277069092 7.514486789703369 
v -24.397314071655273 -4.82047700881958 7.6025471687316895 
v -26.5704345703125 -4.937072277069092 8.348932266235352 
v -26.54269790649414 -4.82047700881958 8.442811012268066 
v -28.69505500793457 -4.937072277069092 9.219152450561523 
v -28.675146102905273 -4.82047700881958 9.3160982131958 
v -29.191186904907227 -4.82047700881958 9.635650634765625 
v -27.15142250061035 -4.82047700881958 10.093667984008789 
v -29.460317611694336 -4.82047700881958 10.05528736114502 
v -29.547746658325195 -4.9390482902526855 10.01652717590332 
v -29.645315170288086 -4.937072277069092 10.59749984741211 
v -29.256996154785156 -4.9390482902526855 9.559856414794922 
v -21.780136108398438 -4.82047700881958 7.989940643310547 
v -15.83409309387207 -4.82047700881958 7.3306403160095215 
v -13.57598876953125 -4.82047700881958 5.855858325958252 
v -13.32473373413086 -4.82047700881958 6.312905788421631 
v -13.231852531433105 -4.9390482902526855 6.2733540534973145 
v -13.187691688537598 -4.82047700881958 6.824208736419678 
v -13.0983304977417 -4.9390482902526855 6.798731327056885 
v -13.019617080688477 -4.82047700881958 7.345574855804443 
v -12.925658226013184 -4.9390482902526855 7.308774948120117 
v -12.92603588104248 -4.82047700881958 7.861203670501709 
v -12.833440780639648 -4.9390482902526855 7.843981742858887 
v -12.773272514343262 -4.9390482902526855 8.274301528930664 
v -12.859685897827148 -4.82047700881958 8.330365180969238 
v -12.963945388793945 -4.82047700881958 8.825084686279297 
v -12.870841979980469 -4.9390482902526855 8.85527515411377 
v -13.217192649841309 -4.82047700881958 9.308329582214355 
v -13.144631385803223 -4.937072277069092 9.378305435180664 
v -13.692277908325195 -4.937072277069092 9.732454299926758 
v -13.710029602050781 -4.82047700881958 9.641012191772461 
v -15.83493423461914 -4.82047700881958 10.533562660217285 
v -15.809351921081543 -4.937072277069092 10.62193775177002 
v -18.009416580200195 -4.82047700881958 11.299525260925293 
v -17.983835220336914 -4.937072277069092 11.387900352478027 
v -20.162343978881836 -4.82047700881958 12.120526313781738 
v -20.12785530090332 -4.9390482902526855 12.208586692810059 
v -22.24816131591797 -4.937072277069092 13.089815139770508 
v -22.282651901245117 -4.82047700881958 13.001754760742188 
v -24.419126510620117 -4.9390482902526855 13.841704368591309 
v -24.4625244140625 -4.82047700881958 13.753958702087402 
v -26.534046173095703 -4.937072277069092 14.73669147491455 
v -26.58311653137207 -4.82047700881958 14.657515525817871 
v -27.226972579956055 -4.82047700881958 14.789076805114746 
v -27.22488021850586 -4.937072277069092 14.886651992797852 
v -27.80153465270996 -4.82047700881958 14.636401176452637 
v -27.84046173095703 -4.937072277069092 14.721476554870605 
v -28.259662628173828 -4.937072277069092 14.342903137207031 
v -28.167068481445312 -4.82047700881958 14.32568073272705 
v -28.524486541748047 -4.937072277069092 13.989563941955566 
v -28.453731536865234 -4.82047700881958 13.939634323120117 
v -28.820280075073242 -4.9390482902526855 13.534090042114258 
v -28.73415184020996 -4.82047700881958 13.500356674194336 
v -29.03993034362793 -4.937072277069092 13.04244613647461 
v -26.016489028930664 -4.82047700881958 12.99140739440918 
v -20.64520263671875 -4.82047700881958 10.887680053710938 
v -15.266087532043457 -4.82047700881958 8.780885696411133 
v -21.21320915222168 -4.82047700881958 9.437434196472168 
v -26.584495544433594 -4.82047700881958 11.54116153717041 
v -28.954879760742188 -4.82047700881958 13.005961418151855 
v -29.172374725341797 -4.82047700881958 12.519821166992188 
v -29.25958251953125 -4.9390482902526855 12.550802230834961 
v -29.272708892822266 -4.82047700881958 12.010010719299316 
v -29.363147735595703 -4.937072277069092 12.032736778259277 
v -29.402490615844727 -4.82047700881958 11.540301322937012 
v -29.48754119873047 -4.9390482902526855 11.576786041259766 
v -29.558902740478516 -4.82047700881958 10.541437149047852 
v -15.232349395751953 -4.9390482902526855 4.0478949546813965 
v -14.694496154785156 -4.9390482902526855 4.199077606201172 
v -14.740175247192383 -4.82047700881958 4.289970874786377 
v -14.228315353393555 -4.9390482902526855 4.559251308441162 
v -14.329818725585938 -4.82047700881958 4.57678747177124 
v -13.774084091186523 -4.82047700881958 5.419252395629883 
v -13.492015838623047 -4.937072277069092 5.81662130355835 
v -13.679047584533691 -4.9390482902526855 5.385204315185547 
v -15.378168106079102 -7.322333335876465 4.136746883392334 
v -16.095726013183594 -7.322333335876465 4.287652015686035 
v -15.375283241271973 -7.19783353805542 4.259404182434082 
v -16.051536560058594 -7.19783353805542 4.400479316711426 
v -14.78477668762207 -7.19783353805542 4.383615970611572 
v -14.7377347946167 -7.322333335876465 4.273144721984863 
v -14.282964706420898 -7.19783353805542 4.742530345916748 
v -14.173347473144531 -7.322333335876465 4.699597358703613 
v -14.876420021057129 -7.19783353805542 4.587732791900635 
v -15.36089038848877 -7.19783353805542 4.526732921600342 
v -15.93678092956543 -7.19783353805542 4.739591598510742 
v -18.110790252685547 -7.19783353805542 5.207010746002197 
v -18.013280868530273 -7.19783353805542 5.502092361450195 
v -20.177873611450195 -7.19783353805542 6.016608238220215 
v -20.05284881591797 -7.19783353805542 6.335827350616455 
v -22.23712921142578 -7.19783353805542 6.823139190673828 
v -22.11533546447754 -7.19783353805542 7.134102821350098 
v -24.166759490966797 -7.19783353805542 7.937567234039307 
v -18.15498161315918 -7.330238342285156 5.094182968139648 
v -20.223142623901367 -7.340119361877441 5.901028633117676 
v -22.28347396850586 -7.348023891448975 6.704807758331299 
v -24.341650009155273 -7.340119361877441 7.514090538024902 
v -24.296382904052734 -7.19783353805542 7.629670143127441 
v -26.234636306762695 -7.19783353805542 8.72208309173584 
v -26.355636596679688 -7.19783353805542 8.436201095581055 
v -28.268815994262695 -7.19783353805542 9.56957721710205 
v -28.422719955444336 -7.19783353805542 9.24579906463623 
v -28.852537155151367 -7.19783353805542 9.785502433776855 
v -29.014904022216797 -7.19783353805542 9.601521492004395 
v -29.12677001953125 -7.19783353805542 10.169050216674805 
v -26.399826049804688 -7.330238342285156 8.323373794555664 
v -28.466909408569336 -7.322333335876465 9.13297176361084 
v -29.096088409423828 -7.322333335876465 9.509531021118164 
v -29.356151580810547 -7.19783353805542 10.090665817260742 
v -29.473535537719727 -7.322333335876465 10.044594764709473 
v -29.480730056762695 -7.19783353805542 10.694912910461426 
v -29.598176956176758 -7.322333335876465 10.740913391113281 
v -29.334016799926758 -7.19783353805542 11.669010162353516 
v -29.103939056396484 -7.19783353805542 11.518590927124023 
v -28.846155166625977 -7.19783353805542 11.900078773498535 
v -29.050901412963867 -7.19783353805542 12.507159233093262 
v -28.82729148864746 -7.19783353805542 12.340228080749512 
v -28.586305618286133 -7.19783353805542 12.817168235778809 
v -28.68948745727539 -7.19783353805542 13.314640045166016 
v -28.377717971801758 -7.19783353805542 13.30362319946289 
v -28.091846466064453 -7.19783353805542 13.664588928222656 
v -28.134544372558594 -7.19783353805542 14.132022857666016 
v -27.891756057739258 -7.19783353805542 13.94488525390625 
v -27.632734298706055 -7.19783353805542 14.490937232971191 
v -27.5097713470459 -7.19783353805542 14.274554252624512 
v -27.05005645751953 -7.19783353805542 14.618216514587402 
v -27.05690574645996 -7.19783353805542 14.370150566101074 
v -26.373804092407227 -7.19783353805542 14.477141380310059 
v -26.46779441833496 -7.19783353805542 14.167984962463379 
v -24.306718826293945 -7.19783353805542 13.667543411254883 
v -24.42283821105957 -7.19783353805542 13.34800910949707 
v -29.144107818603516 -7.19783353805542 10.655117988586426 
v -26.330690383911133 -7.322333335876465 14.5872163772583 
v -27.04717254638672 -7.322333335876465 14.740873336791992 
v -27.688682556152344 -7.322333335876465 14.601723670959473 
v -28.25199317932129 -7.322333335876465 14.178023338317871 
v -28.799104690551758 -7.322333335876465 13.357573509216309 
v -29.160520553588867 -7.322333335876465 12.550091743469238 
v -29.443635940551758 -7.322333335876465 11.711943626403809 
v -24.263607025146484 -7.322333335876465 13.777618408203125 
v -22.247465133666992 -7.19783353805542 12.86101245880127 
v -22.20435333251953 -7.322333335876465 12.971087455749512 
v -20.18821144104004 -7.19783353805542 12.054481506347656 
v -20.145099639892578 -7.322333335876465 12.164556503295898 
v -18.085845947265625 -7.322333335876465 11.358025550842285 
v -18.128957748413086 -7.19783353805542 11.247950553894043 
v -18.249671936035156 -7.19783353805542 10.939738273620605 
v -16.1799259185791 -7.19783353805542 10.183056831359863 
v -16.061874389648438 -7.19783353805542 10.438352584838867 
v -14.135761260986328 -7.19783353805542 9.33799934387207 
v -14.002619743347168 -7.19783353805542 9.631821632385254 
v -13.573881149291992 -7.19783353805542 9.08936595916748 
v -13.410435676574707 -7.19783353805542 9.276098251342773 
v -13.30639934539795 -7.19783353805542 8.711637496948242 
v -13.061358451843262 -7.19783353805542 8.78388786315918 
v -13.24991226196289 -7.19783353805542 8.210235595703125 
v -12.93678092956543 -7.19783353805542 8.179640769958496 
v -13.285576820373535 -7.19783353805542 7.865538597106934 
v -13.084569931030273 -7.19783353805542 7.202791213989258 
v -13.32872200012207 -7.19783353805542 7.4095072746276855 
v -13.505990028381348 -7.19783353805542 6.910785675048828 
v -13.36768627166748 -7.19783353805542 6.364643096923828 
v -13.645187377929688 -7.19783353805542 6.393979072570801 
v -13.938096046447754 -7.19783353805542 6.06116247177124 
v -13.729100227355957 -7.19783353805542 5.557161331176758 
v -14.007965087890625 -7.19783353805542 5.606075286865234 
v -14.52575397491455 -7.19783353805542 4.929668426513672 
v -22.360349655151367 -7.19783353805542 12.549734115600586 
v -20.31000518798828 -7.19783353805542 11.743517875671387 
v -13.61948299407959 -7.322333335876465 5.514228343963623 
v -13.258068084716797 -7.322333335876465 6.321709632873535 
v -12.974952697753906 -7.322333335876465 7.159858226776123 
v -12.827162742614746 -7.322333335876465 8.136707305908203 
v -12.952881813049316 -7.322333335876465 8.830273628234863 
v -13.329252243041992 -7.322333335876465 9.368088722229004 
v -13.959507942199707 -7.322333335876465 9.741897583007812 
v -16.018762588500977 -7.322333335876465 10.548428535461426 
v -20.31000518798828 -7.19783353805542 11.743517875671387 
v -20.12785530090332 -4.9390482902526855 12.208586692810059 
v -18.249671936035156 -7.19783353805542 10.939738273620605 
v -17.983835220336914 -4.937072277069092 11.387900352478027 
v -16.1799259185791 -7.19783353805542 10.183056831359863 
v -15.809351921081543 -4.937072277069092 10.62193775177002 
v -14.135761260986328 -7.19783353805542 9.33799934387207 
v -13.692277908325195 -4.937072277069092 9.732454299926758 
v -13.573881149291992 -7.19783353805542 9.08936595916748 
v -13.144631385803223 -4.937072277069092 9.378305435180664 
v -13.30639934539795 -7.19783353805542 8.711637496948242 
v -12.870841979980469 -4.9390482902526855 8.85527515411377 
v -12.773272514343262 -4.9390482902526855 8.274301528930664 
v -13.24991226196289 -7.19783353805542 8.210235595703125 
v -12.833440780639648 -4.9390482902526855 7.843981742858887 
v -13.285576820373535 -7.19783353805542 7.865538597106934 
v -12.925658226013184 -4.9390482902526855 7.308774948120117 
v -13.32872200012207 -7.19783353805542 7.4095072746276855 
v -13.0983304977417 -4.9390482902526855 6.798731327056885 
v -13.505990028381348 -7.19783353805542 6.910785675048828 
v -13.231852531433105 -4.9390482902526855 6.2733540534973145 
v -13.645187377929688 -7.19783353805542 6.393979072570801 
v -13.938096046447754 -7.19783353805542 6.06116247177124 
v -13.492015838623047 -4.937072277069092 5.81662130355835 
v -14.007965087890625 -7.19783353805542 5.606075286865234 
v -13.679047584533691 -4.9390482902526855 5.385204315185547 
v -14.52575397491455 -7.19783353805542 4.929668426513672 
v -14.228315353393555 -4.9390482902526855 4.559251308441162 
v -14.876420021057129 -7.19783353805542 4.587732791900635 
v -14.694496154785156 -4.9390482902526855 4.199077606201172 
v -15.232349395751953 -4.9390482902526855 4.0478949546813965 
v -15.36089038848877 -7.19783353805542 4.526732921600342 
v -15.86406421661377 -4.937072277069092 4.18739652633667 
v -15.93678092956543 -7.19783353805542 4.739591598510742 
v -18.002695083618164 -4.9390482902526855 5.0218424797058105 
v -18.013280868530273 -7.19783353805542 5.502092361450195 
v -20.1610107421875 -4.937072277069092 5.8290839195251465 
v -20.05284881591797 -7.19783353805542 6.335827350616455 
v -22.29856300354004 -4.937072277069092 6.666281700134277 
v -22.11533546447754 -7.19783353805542 7.134102821350098 
v -29.160520553588867 -7.322333335876465 12.550091743469238 
v -29.443635940551758 -7.322333335876465 11.711943626403809 
v -29.443635940551758 -8.745190620422363 11.711943626403809 
v -29.598176956176758 -8.745190620422363 10.740913391113281 
v -29.598176956176758 -7.322333335876465 10.740913391113281 
v -29.473535537719727 -8.745190620422363 10.044594764709473 
v -29.473535537719727 -7.322333335876465 10.044594764709473 
v -29.096088409423828 -8.745190620422363 9.509531021118164 
v -29.096088409423828 -7.322333335876465 9.509531021118164 
v -28.466909408569336 -8.745190620422363 9.13297176361084 
v -28.466909408569336 -7.322333335876465 9.13297176361084 
v -26.399826049804688 -7.330238342285156 8.323373794555664 
v -26.399826049804688 -8.745190620422363 8.323373794555664 
v -24.341650009155273 -7.340119361877441 7.514090538024902 
v -24.340572357177734 -8.745190620422363 7.516842842102051 
v -22.28347396850586 -7.348023891448975 6.704807758331299 
v -22.28131866455078 -8.745190620422363 6.7103118896484375 
v -29.160520553588867 -8.745190620422363 12.550091743469238 
v -28.799104690551758 -8.745190620422363 13.357573509216309 
v -28.799104690551758 -7.322333335876465 13.357573509216309 
v -28.25199317932129 -8.721475601196289 14.178023338317871 
v -28.25199317932129 -7.322333335876465 14.178023338317871 
v -27.688682556152344 -8.6602144241333 14.601723670959473 
v -27.688682556152344 -7.322333335876465 14.601723670959473 
v -27.04717254638672 -7.322333335876465 14.740873336791992 
v -27.04717254638672 -8.727404594421387 14.740873336791992 
v -26.330690383911133 -7.322333335876465 14.5872163772583 
v -26.330690383911133 -8.745190620422363 14.5872163772583 
v -24.263607025146484 -7.322333335876465 13.777618408203125 
v -24.263607025146484 -8.745190620422363 13.777618408203125 
v -22.20435333251953 -7.322333335876465 12.971087455749512 
v -22.20435333251953 -8.745190620422363 12.971087455749512 
v -20.145099639892578 -7.322333335876465 12.164556503295898 
v -20.145099639892578 -8.745190620422363 12.164556503295898 
v -20.31000518798828 -7.19783353805542 11.743517875671387 
v -20.12785530090332 -4.9390482902526855 12.208586692810059 
v -22.360349655151367 -7.19783353805542 12.549734115600586 
v -22.24816131591797 -4.937072277069092 13.089815139770508 
v -24.42283821105957 -7.19783353805542 13.34800910949707 
v -24.419126510620117 -4.9390482902526855 13.841704368591309 
v -26.46779441833496 -7.19783353805542 14.167984962463379 
v -26.534046173095703 -4.937072277069092 14.73669147491455 
v -27.05690574645996 -7.19783353805542 14.370150566101074 
v -27.22488021850586 -4.937072277069092 14.886651992797852 
v -27.5097713470459 -7.19783353805542 14.274554252624512 
v -27.84046173095703 -4.937072277069092 14.721476554870605 
v -28.259662628173828 -4.937072277069092 14.342903137207031 
v -27.891756057739258 -7.19783353805542 13.94488525390625 
v -28.524486541748047 -4.937072277069092 13.989563941955566 
v -28.091846466064453 -7.19783353805542 13.664588928222656 
v -28.820280075073242 -4.9390482902526855 13.534090042114258 
v -28.377717971801758 -7.19783353805542 13.30362319946289 
v -29.03993034362793 -4.937072277069092 13.04244613647461 
v -28.586305618286133 -7.19783353805542 12.817168235778809 
v -29.25958251953125 -4.9390482902526855 12.550802230834961 
v -28.82729148864746 -7.19783353805542 12.340228080749512 
v -28.846155166625977 -7.19783353805542 11.900078773498535 
v -29.363147735595703 -4.937072277069092 12.032736778259277 
v -29.103939056396484 -7.19783353805542 11.518590927124023 
v -29.48754119873047 -4.9390482902526855 11.576786041259766 
v -29.144107818603516 -7.19783353805542 10.655117988586426 
v -29.645315170288086 -4.937072277069092 10.59749984741211 
v -29.12677001953125 -7.19783353805542 10.169050216674805 
v -29.547746658325195 -4.9390482902526855 10.01652717590332 
v -29.256996154785156 -4.9390482902526855 9.559856414794922 
v -28.852537155151367 -7.19783353805542 9.785502433776855 
v -28.69505500793457 -4.937072277069092 9.219152450561523 
v -28.268815994262695 -7.19783353805542 9.56957721710205 
v -26.5704345703125 -4.937072277069092 8.348932266235352 
v -26.234636306762695 -7.19783353805542 8.72208309173584 
v -24.431804656982422 -4.937072277069092 7.514486789703369 
v -24.166759490966797 -7.19783353805542 7.937567234039307 
v -22.29856300354004 -4.937072277069092 6.666281700134277 
v -22.11533546447754 -7.19783353805542 7.134102821350098 
vn -0.34678080677986145 -0.3239381015300751 -0.8802310824394226 
vn -0.34678080677986145 -0.3239381015300751 -0.8802310824394226 
vn -0.010964683257043362 -0.999389111995697 -0.03318341448903084 
vn -0.002592639299109578 -0.9998472929000854 -0.017283296212553978 
vn -1.9257912051064835e-13 -1 7.542587837942524e-14 
vn -0.002592639299109578 -0.9998472929000854 -0.017283296212553978 
vn -1.9257912051064835e-13 -1 7.542587837942524e-14 
vn -0.007708944380283356 -0.9996563792228699 -0.025054169818758965 
vn -0.004917602054774761 -0.999961793422699 -0.0072236801497638226 
vn -0.3762091100215912 -0.31150925159454346 -0.8725985884666443 
vn 1.9257912051064835e-13 -1 -7.542587837942524e-14 
vn -0.7253924012184143 -0.0633138045668602 -0.6854172348976135 
vn 1.9257912051064835e-13 -1 -7.542587837942524e-14 
vn -0.35023191571235657 -0.2948545813560486 -0.8890433311462402 
vn -0.3489411175251007 -0.29067665338516235 -0.8909246921539307 
vn -0.94849693775177 -0.05022686347365379 -0.3127785623073578 
vn 1.9257912051064835e-13 -1 -7.542587837942524e-14 
vn 1.9257912051064835e-13 -1 -7.542587837942524e-14 
vn -0.9642970561981201 -0.08074574917554855 0.2522120177745819 
vn -0.9267260432243347 -0.1111890971660614 0.35890868306159973 
vn 1.9257912051064835e-13 -1 -7.542587837942524e-14 
vn -0.8812286853790283 -0.0763898640871048 0.46647635102272034 
vn 1.9257912051064835e-13 -1 -7.542587837942524e-14 
vn 1.9257912051064835e-13 -1 -7.542587837942524e-14 
vn -0.7704100608825684 -0.03713129088282585 0.6364661455154419 
vn 1.9257912051064835e-13 -1 -7.542587837942524e-14 
vn -0.42089882493019104 -0.03713129088282585 0.9063470959663391 
vn 1.9257912051064835e-13 -1 -7.542587837942524e-14 
vn 0.07866012305021286 -0.028397228568792343 0.9964967370033264 
vn 0.35733762383461 -0.04149730131030083 0.9330527186393738 
vn 0.002592639299109578 -0.9998472929000854 0.017283296212553978 
vn 0.3671337068080902 -0.0763898640871048 0.9270259141921997 
vn 0.01135697215795517 -0.9996563792228699 0.02362537756562233 
vn 0.3671337068080902 -0.0763898640871048 0.9270259141921997 
vn 0.009834828786551952 -0.9998472929000854 0.014446808025240898 
vn 0.36101698875427246 -0.1415284425020218 0.9217570424079895 
vn -0.9972853660583496 -0.03713129088282585 0.06358259916305542 
vn -1.9257912051064835e-13 -1 7.542587837942524e-14 
vn -1.9257912051064835e-13 -1 7.542587837942524e-14 
vn -1.9257912051064835e-13 -1 7.542587837942524e-14 
vn 0.009834828786551952 -0.9998472929000854 0.014446808025240898 
vn 0.009834828786551952 -0.9998472929000854 0.014446808025240898 
vn 0.3671337068080902 -0.0763898640871048 0.9270259141921997 
vn 0.01135697215795517 -0.9996563792228699 0.02362537756562233 
vn 0.3671337068080902 -0.0763898640871048 0.9270259141921997 
vn 0.009834828786551952 -0.9998472929000854 0.014446808025240898 
vn 0.3713890016078949 -0.04149730131030083 0.9275493025779724 
vn -1.9257912051064835e-13 -1 7.542587837942524e-14 
vn 0.6190274357795715 -0.028397228568792343 0.7848555445671082 
vn 0.9244818687438965 -0.03713129088282585 0.3794129490852356 
vn -1.9257912051064835e-13 -1 7.542587837942524e-14 
vn 0.9977370500564575 -0.03713129088282585 -0.05604946240782738 
vn -1.9257912051064835e-13 -1 7.542587837942524e-14 
vn 0.9636310935020447 -0.0763898640871048 -0.2560846507549286 
vn -1.9257912051064835e-13 -1 7.542587837942524e-14 
vn -1.9257912051064835e-13 -1 7.542587837942524e-14 
vn -1.9257912051064835e-13 -1 7.542587837942524e-14 
vn -1.9257912051064835e-13 -1 7.542587837942524e-14 
vn 0.9253559112548828 -0.1111890971660614 -0.3624265193939209 
vn -1.9257912051064835e-13 -1 7.542587837942524e-14 
vn 0.8808614015579224 -0.08074574917554855 -0.46643638610839844 
vn -1.9257912051064835e-13 -1 7.542587837942524e-14 
vn 0.7751945853233337 -0.03713129088282585 -0.6306300163269043 
vn 0.48047366738319397 -0.05022686347365379 -0.8755694627761841 
vn -1.9257912051064835e-13 -1 7.542587837942524e-14 
vn 0.06318032741546631 -0.0633138045668602 -0.995991587638855 
vn -1.9257912051064835e-13 -1 7.542587837942524e-14 
vn -0.31291911005973816 -0.31150925159454346 -0.89724200963974 
vn -1.9257912051064835e-13 -1 7.542587837942524e-14 
vn -1.9257912051064835e-13 -1 7.542587837942524e-14 
vn -0.007708944380283356 -0.9996563792228699 -0.025054169818758965 
vn -0.34553614258766174 -0.3198012113571167 -0.8822310566902161 
vn -0.004917602054774761 -0.999961793422699 -0.0072236801497638226 
vn 0.9295101761817932 0.058952588587999344 -0.3640535771846771 
vn 0.8552843928337097 0.0763898640871048 -0.5124966502189636 
vn 0.8808614015579224 -0.08074574917554855 -0.46643638610839844 
vn 0.7751945853233337 -0.03713129088282585 -0.6306300163269043 
vn 0.7129047513008118 0.07203252613544464 -0.6975511908531189 
vn 0.48047366738319397 -0.05022686347365379 -0.8755694627761841 
vn 0.3572350740432739 0.05022686347365379 -0.9326627850532532 
vn 0.06318032741546631 -0.0633138045668602 -0.995991587638855 
vn -0.06501030176877975 0.0633138045668602 -0.9958738088607788 
vn -0.31291911005973816 -0.31150925159454346 -0.89724200963974 
vn -0.3070071339607239 0.15449213981628418 -0.9390838146209717 
vn -0.36132264137268066 0.09380380809307098 -0.9277102947235107 
vn -0.34553614258766174 -0.3198012113571167 -0.8822310566902161 
vn -0.3603329062461853 0.06767380982637405 -0.9303655028343201 
vn -0.34678080677986145 -0.3239381015300751 -0.8802310824394226 
vn -0.36464521288871765 0.0152922747656703 -0.9310207366943359 
vn -0.34678080677986145 -0.3239381015300751 -0.8802310824394226 
vn 0.9253559112548828 -0.1111890971660614 -0.3624265193939209 
vn 0.9636310935020447 -0.0763898640871048 -0.2560846507549286 
vn 0.9758421778678894 0.0763898640871048 -0.20468558371067047 
vn 0.9977370500564575 -0.03713129088282585 -0.05604946240782738 
vn 0.9983358979225159 0.04586252197623253 0.03495204076170921 
vn 0.9244818687438965 -0.03713129088282585 0.3794129490852356 
vn 0.9217193126678467 0.0763898640871048 0.38026008009910583 
vn 0.7227960228919983 0.0633138045668602 0.6881546974182129 
vn 0.6190274357795715 -0.028397228568792343 0.7848555445671082 
vn 0.3772146999835968 0.1328723281621933 0.9165443778038025 
vn 0.3713890016078949 -0.04149730131030083 0.9275493025779724 
vn 0.3671337068080902 0.0763898640871048 0.9270259141921997 
vn 0.3671337068080902 -0.0763898640871048 0.9270259141921997 
vn 0.3671337068080902 0.0763898640871048 0.9270259141921997 
vn 0.3671337068080902 -0.0763898640871048 0.9270259141921997 
vn 0.36437371373176575 0.04149730131030083 0.9303275346755981 
vn 0.36101698875427246 -0.1415284425020218 0.9217570424079895 
vn -0.34822118282318115 -0.15017375349998474 -0.9253050684928894 
vn -0.331398606300354 -0.1328723281621933 -0.9340875148773193 
vn 0 1 0 
vn 0 1 0 
vn 0 1 0 
vn 0 1 0 
vn 0 1 0 
vn -0.3596964180469513 -0.1328723281621933 -0.9235599637031555 
vn -0.0002582472516223788 0.9999904632568359 -0.004361738916486502 
vn -0.3622235059738159 -0.18033768236637115 -0.91447913646698 
vn -0.3580450117588043 -0.16312000155448914 -0.9193450212478638 
vn 0 1 0 
vn -0.37503165006637573 -0.1415284425020218 -0.9161443710327148 
vn -0.0002582472516223788 0.9999904632568359 -0.004361738916486502 
vn -0.4020814895629883 -0.07203252613544464 -0.9127658009529114 
vn 0 1 0 
vn 0 1 0 
vn 0 1 0 
vn 0 1 0 
vn -0.927046537399292 -0.1242060661315918 -0.35377568006515503 
vn -0.9896825551986694 -0.1415284425020218 0.02230852283537388 
vn -0.7122933268547058 -0.15449213981628418 -0.6846677660942078 
vn 0 1 0 
vn 0 1 0 
vn 0 1 0 
vn 0 1 0 
vn 0.9005854725837708 -0.1458524912595749 -0.40947824716567993 
vn 0 1 0 
vn 0.9454624056816101 -0.1328723281621933 -0.2973976731300354 
vn 0 1 0 
vn 0.9751477241516113 -0.10250037163496017 -0.19641844928264618 
vn 0 1 0 
vn 0.9796110987663269 -0.1415284425020218 -0.14258822798728943 
vn 0.9880722165107727 -0.1415284425020218 0.06068465858697891 
vn 0 1 0 
vn 0 1 0 
vn 0.9390350580215454 -0.12854042649269104 0.3188888132572174 
vn 0 1 0 
vn 0.7425941228866577 -0.1760382205247879 0.6461920142173767 
vn 0.41435712575912476 -0.15017375349998474 0.8976389169692993 
vn 0 1 0 
vn 0 1 0 
vn 0.36192986369132996 -0.18463370203971863 0.9137378334999084 
vn 0 1 0 
vn 0.33602988719940186 -0.1760382205247879 0.9252535104751587 
vn 0.0027726921252906322 0.9999904632568359 0.0033769269939512014 
vn 0.3575045168399811 -0.1975002884864807 0.912788987159729 
vn 0.35018643736839294 -0.1760382205247879 0.9199888706207275 
vn 0 1 0 
vn 0.3565436601638794 -0.15880759060382843 0.9206825494766235 
vn 0 1 0 
vn 0.34004759788513184 -0.1372016966342926 0.9303455948829651 
vn 0 1 0 
vn 0 1 0 
vn -0.06247558072209358 -0.17173540592193604 0.9831598997116089 
vn 0 1 0 
vn -0.4587870240211487 -0.18892620503902435 0.8682286143302917 
vn -0.6912115216255188 -0.19321508705615997 0.6963434219360352 
vn 0 1 0 
vn -0.8061921000480652 -0.16312000155448914 0.5687229037284851 
vn 0 1 0 
vn -0.8482093811035156 -0.12854042649269104 0.5138266086578369 
vn 0 1 0 
vn -0.9094914197921753 -0.1242060661315918 0.3967338502407074 
vn 0 1 0 
vn 0 1 0 
vn 0 1 0 
vn 0 1 0 
vn 0 1 0 
vn 0 1 0 
vn 0 1 0 
vn -0.9425031542778015 -0.1760382205247879 0.2840737998485565 
vn 0 1 0 
vn -0.9298906326293945 -0.15880759060382843 0.3317877948284149 
vn 0 1 0 
vn -0.9770928025245667 -0.15880759060382843 0.14166636765003204 
vn 0 1 0 
vn 0.04130934178829193 -0.16312000155448914 -0.9857408404350281 
vn 0.448199063539505 -0.11553031951189041 -0.8864366412162781 
vn 0 1 0 
vn 0.7381660342216492 -0.12854042649269104 -0.6622596979141235 
vn 0 1 0 
vn 0 1 0 
vn 0.9205702543258667 -0.15017375349998474 -0.3605521619319916 
vn 0.8272859454154968 -0.15017375349998474 -0.5413365960121155 
vn -0.06501030176877975 0.0633138045668602 -0.9958738088607788 
vn -0.3070071339607239 0.15449213981628418 -0.9390838146209717 
vn -0.0002582472516223788 0.9999904632568359 -0.004361738916486502 
vn -0.0002582472516223788 0.9999904632568359 -0.004361738916486502 
vn 0.004184686578810215 0.999961793422699 -0.007671555038541555 
vn 0.3572350740432739 0.05022686347365379 -0.9326627850532532 
vn 0.004068457055836916 0.9999904632568359 -0.0015934589318931103 
vn 0.7129047513008118 0.07203252613544464 -0.6975511908531189 
vn 0 1 0 
vn 0 1 0 
vn 0 1 0 
vn -0.0063735321164131165 0.9998472929000854 -0.016273051500320435 
vn 0 1 0 
vn -0.011203065514564514 0.9996563792228699 -0.023698747158050537 
vn 0 1 0 
vn -0.007966686971485615 0.9997613430023193 -0.020340733230113983 
vn 0 1 0 
vn 0 1 0 
vn -0.36132264137268066 0.09380380809307098 -0.9277102947235107 
vn -0.3603329062461853 0.06767380982637405 -0.9303655028343201 
vn -0.36464521288871765 0.0152922747656703 -0.9310207366943359 
vn -0.3659847378730774 0.05022686347365379 -0.9292641878128052 
vn -0.011203065514564514 0.9996563792228699 -0.023698747158050537 
vn 0 1 0 
vn -0.0063735321164131165 0.9998472929000854 -0.016273051500320435 
vn 0 1 0 
vn -0.0002582472516223788 0.9999904632568359 -0.004361738916486502 
vn 0 1 0 
vn -0.004228062462061644 0.9999904632568359 -0.001102243666537106 
vn 0 1 0 
vn -0.3671337068080902 0.0763898640871048 -0.9270259141921997 
vn -0.4124278426170349 0.15449213981628418 -0.8977945446968079 
vn -0.6256885528564453 0.0633138045668602 -0.7774990797042847 
vn -0.004228062462061644 0.9999904632568359 -0.001102243666537106 
vn -0.8972889184951782 0.05022686347365379 -0.4385765790939331 
vn -0.004228062462061644 0.9999904632568359 -0.001102243666537106 
vn -0.9970133900642395 0.07203252613544464 -0.02784169651567936 
vn -0.00873610470443964 0.999961793422699 0.00021173265122342855 
vn 0 1 0 
vn 0 1 0 
vn -0.004228062462061644 0.9999904632568359 -0.001102243666537106 
vn 0 1 0 
vn 0 1 0 
vn -0.006556145381182432 0.999961793422699 0.0057776570320129395 
vn 0 1 0 
vn 0 1 0 
vn -0.006556145381182432 0.999961793422699 0.0057776570320129395 
vn 0 1 0 
vn -0.002354839351028204 0.9999904632568359 0.0036805146373808384 
vn 0 1 0 
vn -0.002354839351028204 0.9999904632568359 0.0036805146373808384 
vn 0 1 0 
vn 0.012516516260802746 0.9990455508232117 0.04184829443693161 
vn 0 1 0 
vn 0.04134100675582886 0.9935539960861206 0.10555283725261688 
vn 0 1 0 
vn 0 1 0 
vn 0.34912243485450745 0.1328723281621933 0.9276087880134583 
vn -0.05941455066204071 0.0633138045668602 0.9962232708930969 
vn -0.4182957708835602 0.0763898640871048 0.905092716217041 
vn -0.7063812017440796 0.04586252197623253 0.706343948841095 
vn -0.8552843928337097 0.0763898640871048 0.5124966502189636 
vn -0.9281272292137146 0.058952588587999344 0.36756497621536255 
vn -0.9758421778678894 0.0763898640871048 0.20468558371067047 
vn 0.3671337068080902 0.0763898640871048 0.9270259141921997 
vn 0.04134100675582886 0.9935539960861206 0.10555283725261688 
vn 0.3671337068080902 0.0763898640871048 0.9270259141921997 
vn 0.04134100675582886 0.9935539960861206 0.10555283725261688 
vn 0.36437371373176575 0.04149730131030083 0.9303275346755981 
vn 0.3671337068080902 0.0763898640871048 0.9270259141921997 
vn 0.04134100675582886 0.9935539960861206 0.10555283725261688 
vn 0 1 0 
vn 0 1 0 
vn 0.04134100675582886 0.9935539960861206 0.10555283725261688 
vn 0 1 0 
vn 0.019233809784054756 0.9990455508232117 0.03921738639473915 
vn 0 1 0 
vn 0.0027726921252906322 0.9999904632568359 0.0033769269939512014 
vn 0 1 0 
vn 0.0027726921252906322 0.9999904632568359 0.0033769269939512014 
vn 0 1 0 
vn 0.008136836811900139 0.999961793422699 -0.0031868875958025455 
vn 0 1 0 
vn 0.008136836811900139 0.999961793422699 -0.0031868875958025455 
vn 0 1 0 
vn 0 1 0 
vn 0.004068457055836916 0.9999904632568359 -0.0015934589318931103 
vn 0 1 0 
vn 0 1 0 
vn 0.008136836811900139 0.999961793422699 -0.0031868875958025455 
vn 0 1 0 
vn 0 1 0 
vn 0 1 0 
vn 0 1 0 
vn 0.8552843928337097 0.0763898640871048 -0.5124966502189636 
vn 0.9295101761817932 0.058952588587999344 -0.3640535771846771 
vn 0.9758421778678894 0.0763898640871048 -0.20468558371067047 
vn 0.9983358979225159 0.04586252197623253 0.03495204076170921 
vn 0.9217193126678467 0.0763898640871048 0.38026008009910583 
vn 0.7227960228919983 0.0633138045668602 0.6881546974182129 
vn 0.3772146999835968 0.1328723281621933 0.9165443778038025 
vn 0.3671337068080902 0.0763898640871048 0.9270259141921997 
vn 0.35794761776924133 -0.21460255980491638 0.9087457656860352 
vn 0.3575045168399811 -0.1975002884864807 0.912788987159729 
vn 0.34880489110946655 -0.21886809170246124 0.9112801551818848 
vn 0.33602988719940186 -0.1760382205247879 0.9252535104751587 
vn 0.34456053376197815 -0.22738653421401978 0.9108089804649353 
vn 0.36192986369132996 -0.18463370203971863 0.9137378334999084 
vn 0.37751737236976624 -0.23163928091526031 0.8965620398521423 
vn 0.41435712575912476 -0.15017375349998474 0.8976389169692993 
vn 0.5658144950866699 -0.22312943637371063 0.7937674522399902 
vn 0.7425941228866577 -0.1760382205247879 0.6461920142173767 
vn 0.9224075078964233 -0.2103329300880432 0.32391974329948425 
vn 0.9390350580215454 -0.12854042649269104 0.3188888132572174 
vn 0.9880722165107727 -0.1415284425020218 0.06068465858697891 
vn 0.9788615107536316 -0.2017817199230194 -0.033375196158885956 
vn 0.9796110987663269 -0.1415284425020218 -0.14258822798728943 
vn 0.9740575551986694 -0.18892620503902435 -0.12457249313592911 
vn 0.9751477241516113 -0.10250037163496017 -0.19641844928264618 
vn 0.9510292410850525 -0.18033768236637115 -0.25104036927223206 
vn 0.9454624056816101 -0.1328723281621933 -0.2973976731300354 
vn 0.942104160785675 -0.18463370203971863 -0.27991020679473877 
vn 0.9005854725837708 -0.1458524912595749 -0.40947824716567993 
vn 0.8748320937156677 -0.18463370203971863 -0.44786015152931213 
vn 0.8776007294654846 -0.2060592919588089 -0.4328465461730957 
vn 0.9205702543258667 -0.15017375349998474 -0.3605521619319916 
vn 0.8782463669776917 -0.18463370203971863 -0.44112730026245117 
vn 0.8272859454154968 -0.15017375349998474 -0.5413365960121155 
vn 0.777059018611908 -0.18892620503902435 -0.6004046201705933 
vn 0.7381660342216492 -0.12854042649269104 -0.6622596979141235 
vn 0.4392889142036438 -0.2017817199230194 -0.8753907084465027 
vn 0.448199063539505 -0.11553031951189041 -0.8864366412162781 
vn 0.04130934178829193 -0.16312000155448914 -0.9857408404350281 
vn -0.16580933332443237 -0.2103329300880432 -0.9634661078453064 
vn -0.331398606300354 -0.1328723281621933 -0.9340875148773193 
vn -0.34628820419311523 -0.2060592919588089 -0.9152178168296814 
vn -0.34822118282318115 -0.15017375349998474 -0.9253050684928894 
vn -0.3519073724746704 -0.2017817199230194 -0.9140267968177795 
vn -0.3596964180469513 -0.1328723281621933 -0.9235599637031555 
vn -0.35584577918052673 -0.21886809170246124 -0.9085538387298584 
vn -0.3622235059738159 -0.18033768236637115 -0.91447913646698 
vn -0.35584577918052673 -0.21886809170246124 -0.9085538387298584 
vn -0.9281272292137146 0.058952588587999344 0.36756497621536255 
vn -0.9758421778678894 0.0763898640871048 0.20468558371067047 
vn -0.9642970561981201 -0.08074574917554855 0.2522120177745819 
vn -0.9972853660583496 -0.03713129088282585 0.06358259916305542 
vn -0.9970133900642395 0.07203252613544464 -0.02784169651567936 
vn -0.94849693775177 -0.05022686347365379 -0.3127785623073578 
vn -0.8972889184951782 0.05022686347365379 -0.4385765790939331 
vn -0.7253924012184143 -0.0633138045668602 -0.6854172348976135 
vn -0.6256885528564453 0.0633138045668602 -0.7774990797042847 
vn -0.3762091100215912 -0.31150925159454346 -0.8725985884666443 
vn -0.4124278426170349 0.15449213981628418 -0.8977945446968079 
vn -0.3671337068080902 0.0763898640871048 -0.9270259141921997 
vn -0.3489411175251007 -0.29067665338516235 -0.8909246921539307 
vn -0.3659847378730774 0.05022686347365379 -0.9292641878128052 
vn -0.35023191571235657 -0.2948545813560486 -0.8890433311462402 
vn -0.36464521288871765 0.0152922747656703 -0.9310207366943359 
vn -0.34678080677986145 -0.3239381015300751 -0.8802310824394226 
vn -0.9267260432243347 -0.1111890971660614 0.35890868306159973 
vn -0.8812286853790283 -0.0763898640871048 0.46647635102272034 
vn -0.8552843928337097 0.0763898640871048 0.5124966502189636 
vn -0.7704100608825684 -0.03713129088282585 0.6364661455154419 
vn -0.7063812017440796 0.04586252197623253 0.706343948841095 
vn -0.42089882493019104 -0.03713129088282585 0.9063470959663391 
vn -0.4182957708835602 0.0763898640871048 0.905092716217041 
vn -0.05941455066204071 0.0633138045668602 0.9962232708930969 
vn 0.07866012305021286 -0.028397228568792343 0.9964967370033264 
vn 0.34912243485450745 0.1328723281621933 0.9276087880134583 
vn 0.35733762383461 -0.04149730131030083 0.9330527186393738 
vn 0.3671337068080902 0.0763898640871048 0.9270259141921997 
vn 0.3671337068080902 -0.0763898640871048 0.9270259141921997 
vn 0.3671337068080902 0.0763898640871048 0.9270259141921997 
vn 0.3671337068080902 -0.0763898640871048 0.9270259141921997 
vn 0.36437371373176575 0.04149730131030083 0.9303275346755981 
vn 0.36101698875427246 -0.1415284425020218 0.9217570424079895 
vn 0.35794761776924133 -0.21460255980491638 0.9087457656860352 
vn 0.3575045168399811 -0.1975002884864807 0.912788987159729 
vn 0.35864880681037903 -0.22738653421401978 0.9053540825843811 
vn 0.35018643736839294 -0.1760382205247879 0.9199888706207275 
vn 0.3441859781742096 -0.2103329300880432 0.9150386452674866 
vn 0.3565436601638794 -0.15880759060382843 0.9206825494766235 
vn 0.36530688405036926 -0.2103329300880432 0.906813383102417 
vn 0.34004759788513184 -0.1372016966342926 0.9303455948829651 
vn 0.14247426390647888 -0.22312943637371063 0.9643204212188721 
vn -0.06247558072209358 -0.17173540592193604 0.9831598997116089 
vn -0.45006319880485535 -0.2401314377784729 0.8601044416427612 
vn -0.4587870240211487 -0.18892620503902435 0.8682286143302917 
vn -0.6912115216255188 -0.19321508705615997 0.6963434219360352 
vn -0.7262943387031555 -0.23588760197162628 0.6456416845321655 
vn -0.8061921000480652 -0.16312000155448914 0.5687229037284851 
vn -0.7916961908340454 -0.22738653421401978 0.5670204162597656 
vn -0.8482093811035156 -0.12854042649269104 0.5138266086578369 
vn -0.8638994693756104 -0.21460255980491638 0.4556567668914795 
vn -0.9094914197921753 -0.1242060661315918 0.3967338502407074 
vn -0.8872740268707275 -0.21460255980491638 0.4082770347595215 
vn -0.9425031542778015 -0.1760382205247879 0.2840737998485565 
vn -0.9423131346702576 -0.2060592919588089 0.26378998160362244 
vn -0.9396961331367493 -0.21886809170246124 0.2628069221973419 
vn -0.9298906326293945 -0.15880759060382843 0.3317877948284149 
vn -0.952331006526947 -0.18892620503902435 0.23952491581439972 
vn -0.9770928025245667 -0.15880759060382843 0.14166636765003204 
vn -0.9771124124526978 -0.1975002884864807 0.07902294397354126 
vn -0.9896825551986694 -0.1415284425020218 0.02230852283537388 
vn -0.9210247993469238 -0.2060592919588089 -0.3305336534976959 
vn -0.927046537399292 -0.1242060661315918 -0.35377568006515503 
vn -0.7122933268547058 -0.15449213981628418 -0.6846677660942078 
vn -0.5445034503936768 -0.1975002884864807 -0.8151743412017822 
vn -0.4020814895629883 -0.07203252613544464 -0.9127658009529114 
vn -0.3673868775367737 -0.2060592919588089 -0.9069542288780212 
vn -0.37503165006637573 -0.1415284425020218 -0.9161443710327148 
vn -0.360375314950943 -0.2060592919588089 -0.9097630381584167 
vn -0.3580450117588043 -0.16312000155448914 -0.9193450212478638 
vn -0.3544333875179291 -0.21460255980491638 -0.9101221561431885 
vn -0.3622235059738159 -0.18033768236637115 -0.91447913646698 
vn -0.35584577918052673 -0.21886809170246124 -0.9085538387298584 
vt 0.30190443992614746 0.4644334018230438 
vt 0.37921926379203796 0.4644334018230438 
vt 0.30190443992614746 0.4703916311264038 
vt 0.37921926379203796 0.4703916311264038 
vt 0.30190443992614746 0.5207328200340271 
vt 0.22468134760856628 0.4703916311264038 
vt 0.10866326838731766 0.5207328200340271 
vt 0.14727482199668884 0.4703916311264038 
vt 0.06995999813079834 0.4703916311264038 
vt 0.06977657228708267 0.4644334018230438 
vt 0.046297814697027206 0.47452592849731445 
vt 0.04400496557354927 0.46893247961997986 
vt 0.02887217327952385 0.4860776662826538 
vt 0.22468134760856628 0.4644334018230438 
vt 0.14727482199668884 0.4644334018230438 
vt 0.024469904601573944 0.48182177543640137 
vt 0.017041079699993134 0.5040740370750427 
vt 0.009428826160728931 0.5376347899436951 
vt 0.0035591362975537777 0.5373916029930115 
vt 0.0020000000949949026 0.5683988332748413 
vt 0.007961403578519821 0.5683988332748413 
vt 0.0035591362975537777 0.5995276570320129 
vt 0.00952054001390934 0.5992844700813293 
vt 0.017132792621850967 0.6328452229499817 
vt 0.010621106252074242 0.6339396238327026 
vt 0.029881024733185768 0.6497471928596497 
vt 0.02327762544155121 0.6563134789466858 
vt 0.046297814697027206 0.6622717380523682 
vt 0.0438215397298336 0.6682299375534058 
vt 0.06977657228708267 0.6723642349243164 
vt 0.06995999813079834 0.6664060354232788 
vt 0.14727482199668884 0.6723642349243164 
vt 0.14727482199668884 0.6665276288986206 
vt 0.22468134760856628 0.6723642349243164 
vt 0.22468134760856628 0.6665276288986206 
vt 0.30190443992614746 0.6724858283996582 
vt 0.011079676449298859 0.5033444166183472 
vt 0.10866326838731766 0.5683988332748413 
vt 0.10866326838731766 0.6160648465156555 
vt 0.30190443992614746 0.6160648465156555 
vt 0.30190443992614746 0.6665276288986206 
vt 0.37921926379203796 0.6665276288986206 
vt 0.37921926379203796 0.6723642349243164 
vt 0.45653408765792847 0.6665276288986206 
vt 0.45653408765792847 0.6723642349243164 
vt 0.5339406132698059 0.6664060354232788 
vt 0.5341240763664246 0.6723642349243164 
vt 0.5576028227806091 0.6622717380523682 
vt 0.5600790977478027 0.6682299375534058 
vt 0.5805312991142273 0.6563134789466858 
vt 0.5740196108818054 0.6497471928596497 
vt 0.5932795405387878 0.6339396238327026 
vt 0.586767852306366 0.6328452229499817 
vt 0.6003414988517761 0.5995276570320129 
vt 0.4952373504638672 0.6160648465156555 
vt 0.4952373504638672 0.5683988332748413 
vt 0.5943800806999207 0.5992844700813293 
vt 0.5959392189979553 0.5683988332748413 
vt 0.6019006371498108 0.5683988332748413 
vt 0.5943800806999207 0.5376347899436951 
vt 0.6003414988517761 0.5373916029930115 
vt 0.5868595242500305 0.5040740370750427 
vt 0.5927292108535767 0.5033444166183472 
vt 0.5794306993484497 0.48182177543640137 
vt 0.5750284194946289 0.4860776662826538 
vt 0.5598039627075195 0.46893247961997986 
vt 0.5576028227806091 0.47452592849731445 
vt 0.5340323448181152 0.4644334018230438 
vt 0.4952373504638672 0.5207328200340271 
vt 0.30190443992614746 0.5683988332748413 
vt 0.45653408765792847 0.4703916311264038 
vt 0.45653408765792847 0.4644334018230438 
vt 0.5339406132698059 0.4703916311264038 
vt 0.37756842374801636 0.9339194297790527 
vt 0.4089345633983612 0.9339194297790527 
vt 0.4089345633983612 0.8851590156555176 
vt 0.44387757778167725 0.8851590156555176 
vt 0.44387757778167725 0.9339194297790527 
vt 0.4689154624938965 0.8851590156555176 
vt 0.4689154624938965 0.9339194297790527 
vt 0.4920273721218109 0.8851590156555176 
vt 0.4920273721218109 0.9339194297790527 
vt 0.5179824233055115 0.8851590156555176 
vt 0.5179824233055115 0.9339194297790527 
vt 0.5963977575302124 0.9339194297790527 
vt 0.5963977575302124 0.8851590156555176 
vt 0.6749048829078674 0.9339194297790527 
vt 0.6749048829078674 0.8851590156555176 
vt 0.7532285451889038 0.9339194297790527 
vt 0.7532285451889038 0.8851590156555176 
vt 0.37756842374801636 0.8851590156555176 
vt 0.34629398584365845 0.8851590156555176 
vt 0.34629398584365845 0.9339194297790527 
vt 0.3113509714603424 0.8851590156555176 
vt 0.3113509714603424 0.9339194297790527 
vt 0.28631308674812317 0.8851590156555176 
vt 0.28631308674812317 0.9339194297790527 
vt 0.26320117712020874 0.9339194297790527 
vt 0.26320117712020874 0.8851590156555176 
vt 0.23724615573883057 0.9339194297790527 
vt 0.23724615573883057 0.8851590156555176 
vt 0.15873906016349792 0.9339194297790527 
vt 0.15873906016349792 0.8851590156555176 
vt 0.08032367378473282 0.9339194297790527 
vt 0.08032367378473282 0.8851590156555176 
vt 0.0020000000949949026 0.9339194297790527 
vt 0.0020000000949949026 0.8851590156555176 
vt 0.4657054841518402 0.44801780581474304 
vt 0.5460468530654907 0.44789621233940125 
vt 0.46607232093811035 0.44266751408576965 
vt 0.5465054512023926 0.44254592061042786 
vt 0.5067015886306763 0.39767664670944214 
vt 0.5670493245124817 0.4390196204185486 
vt 0.3855475187301636 0.4440051019191742 
vt 0.38545581698417664 0.4492337703704834 
vt 0.30520614981651306 0.4440051019191742 
vt 0.30520614981651306 0.4492337703704834 
vt 0.22504819929599762 0.4488689601421356 
vt 0.22486478090286255 0.4436402916908264 
vt 0.1447068303823471 0.4488689601421356 
vt 0.14433997869491577 0.4436402916908264 
vt 0.06427373737096786 0.44765299558639526 
vt 0.06390688568353653 0.44230273365974426 
vt 0.043271254748106 0.4382900297641754 
vt 0.10371071845293045 0.39767664670944214 
vt 0.029330741614103317 0.4281974732875824 
vt 0.025295330211520195 0.43184539675712585 
vt 0.014381376095116138 0.41372743248939514 
vt 0.04134526476264 0.4433971047401428 
vt 0.30520614981651306 0.39767664670944214 
vt 0.5067015886306763 0.3433227837085724 
vt 0.5989657640457153 0.36253511905670166 
vt 0.6014420390129089 0.34441715478897095 
vt 0.6067614555358887 0.34466034173965454 
vt 0.5992408990859985 0.32605600357055664 
vt 0.6045603156089783 0.32569122314453125 
vt 0.5981403589248657 0.30696526169776917 
vt 0.60355144739151 0.30672207474708557 
vt 0.5945634841918945 0.28909051418304443 
vt 0.5997912287712097 0.2879961431026459 
vt 0.5961226224899292 0.27279651165008545 
vt 0.5907115340232849 0.27291810512542725 
vt 0.5809898376464844 0.2582048773765564 
vt 0.585116982460022 0.2548001706600189 
vt 0.5667741894721985 0.24580198526382446 
vt 0.5690670609474182 0.24093811213970184 
vt 0.5461385846138 0.23595263063907623 
vt 0.5464137196540833 0.24130289256572723 
vt 0.4659806191921234 0.2392357438802719 
vt 0.4656137526035309 0.2340070754289627 
vt 0.3855475187301636 0.2420324832201004 
vt 0.3853641152381897 0.23680379986763 
vt 0.30520614981651306 0.24276205897331238 
vt 0.30520614981651306 0.23741179704666138 
vt 0.22495649755001068 0.23583103716373444 
vt 0.22477306425571442 0.24105970561504364 
vt 0.1447068303823471 0.23899255692958832 
vt 0.14433997869491577 0.24434281885623932 
vt 0.064365454018116 0.236925408244133 
vt 0.06399859488010406 0.2421540766954422 
vt 0.04143697768449783 0.24604517221450806 
vt 0.039602700620889664 0.24105970561504364 
vt 0.024836761876940727 0.2583264708518982 
vt 0.02089306339621544 0.2548001706600189 
vt 0.011538245715200901 0.27279651165008545 
vt 0.01694936491549015 0.27291810512542725 
vt 0.007411119993776083 0.2879961431026459 
vt 0.012547098100185394 0.28921210765838623 
vt 0.0037425640039145947 0.30684366822242737 
vt 0.008970255963504314 0.30696526169776917 
vt 0.0028254250064492226 0.32569122314453125 
vt 0.10371071845293045 0.28896892070770264 
vt 0.30520614981651306 0.28896892070770264 
vt 0.5067015886306763 0.28896892070770264 
vt 0.30520614981651306 0.3433227837085724 
vt 0.10371071845293045 0.3433227837085724 
vt 0.008144831284880638 0.32593441009521484 
vt 0.007227692287415266 0.34441715478897095 
vt 0.0020000000949949026 0.34478193521499634 
vt 0.010437678545713425 0.3622919023036957 
vt 0.005209986586123705 0.36302149295806885 
vt 0.012271956540644169 0.37931549549102783 
vt 0.006860836874693632 0.3795586824417114 
vt 0.019700782373547554 0.41360583901405334 
vt 0.5690670609474182 0.4440051019191742 
vt 0.585116982460022 0.43184539675712585 
vt 0.5810815691947937 0.4281974732875824 
vt 0.5961226224899292 0.41372743248939514 
vt 0.5907115340232849 0.41360583901405334 
vt 0.5981403589248657 0.37931549549102783 
vt 0.6042851805686951 0.36289989948272705 
vt 0.60355144739151 0.37943708896636963 
vt 0.042812686413526535 0.015497267246246338 
vt 0.068217433989048 0.009903805330395699 
vt 0.04528896138072014 0.021090729162096977 
vt 0.06858429312705994 0.01598365418612957 
vt 0.028505317866802216 0.03288563713431358 
vt 0.02410304918885231 0.02875133976340294 
vt 0.017041079699993134 0.050395604223012924 
vt 0.011171390302479267 0.04966602474451065 
vt 0.03391643613576889 0.038114309310913086 
vt 0.048407234251499176 0.029724115505814552 
vt 0.06977657228708267 0.028386548161506653 
vt 0.1460825353860855 0.012578939087688923 
vt 0.1469079554080963 0.023522669449448586 
vt 0.22403934597969055 0.01026859600096941 
vt 0.22458963096141815 0.022428296506404877 
vt 0.30217960476875305 0.009052625857293606 
vt 0.30236300826072693 0.02072593756020069 
vt 0.3801364004611969 0.0204827431589365 
vt 0.1458074003458023 0.006255894899368286 
vt 0.2239476442337036 0.0037023581098765135 
vt 0.30217960476875305 0.0020000000949949026 
vt 0.3804115653038025 0.0020000000949949026 
vt 0.3804115653038025 0.008687835186719894 
vt 0.45790979266166687 0.02023955062031746 
vt 0.45846009254455566 0.009417417459189892 
vt 0.5352246165275574 0.02364426665008068 
vt 0.5361417531967163 0.011241371743381023 
vt 0.5566856861114502 0.023765863850712776 
vt 0.5596204996109009 0.015862058848142624 
vt 0.5704427361488342 0.03264244273304939 
vt 0.4585517942905426 0.0029727760702371597 
vt 0.5364168882369995 0.005161521956324577 
vt 0.5619133710861206 0.01026859600096941 
vt 0.5766792893409729 0.027292175218462944 
vt 0.5809898376464844 0.023036280646920204 
vt 0.5884186625480652 0.04468054696917534 
vt 0.5942883491516113 0.04382936656475067 
vt 0.5966729521751404 0.0773901417851448 
vt 0.5873181223869324 0.07556618750095367 
vt 0.584199845790863 0.09100900590419769 
vt 0.5985988974571228 0.10754619538784027 
vt 0.5894275307655334 0.10511425882577896 
vt 0.5875932574272156 0.12323220819234848 
vt 0.5971314907073975 0.13782384991645813 
vt 0.5870429873466492 0.1413501650094986 
vt 0.5823655724525452 0.15630659461021423 
vt 0.5895192623138428 0.1706550419330597 
vt 0.5792472958564758 0.1677367091178894 
vt 0.5780550241470337 0.18828660249710083 
vt 0.5712682008743286 0.18305793404579163 
vt 0.5612713694572449 0.20008151233196259 
vt 0.5581530928611755 0.19217771291732788 
vt 0.5378842949867249 0.20518858730793 
vt 0.536783754825592 0.19400165975093842 
vt 0.4602026343345642 0.20871490240097046 
vt 0.4592854976654053 0.1967983990907669 
vt 0.5771378874778748 0.04784207046031952 
vt 0.5383428931236267 0.21126843988895416 
vt 0.5637476444244385 0.20567497611045837 
vt 0.5824572443962097 0.19242089986801147 
vt 0.5953889489173889 0.17138461768627167 
vt 0.6030929088592529 0.13818864524364471 
vt 0.6045603156089783 0.10754619538784027 
vt 0.6025426387786865 0.07702534645795822 
vt 0.4603860676288605 0.21479475498199463 
vt 0.3820624053478241 0.21114684641361237 
vt 0.38224583864212036 0.21734829246997833 
vt 0.30383044481277466 0.21248440444469452 
vt 0.30383044481277466 0.21868585050106049 
vt 0.2255067676305771 0.21892905235290527 
vt 0.2255067676305771 0.2127276062965393 
vt 0.22578191757202148 0.20117588341236115 
vt 0.1480085253715515 0.2020270675420761 
vt 0.1474582403898239 0.21187642216682434 
vt 0.07087714225053787 0.19837915897369385 
vt 0.0698682889342308 0.20956607162952423 
vt 0.04950780048966408 0.1969199925661087 
vt 0.046572957187891006 0.2048237919807434 
vt 0.03630099818110466 0.18804341554641724 
vt 0.029605884104967117 0.19339367747306824 
vt 0.0280467476695776 0.1729653775691986 
vt 0.01795821823179722 0.1760053038597107 
vt 0.024836761876940727 0.16153526306152344 
vt 0.009887395426630974 0.14341731369495392 
vt 0.019975924864411354 0.1467004269361496 
vt 0.019150499254465103 0.12870407104492188 
vt 0.007961403578519821 0.11326125264167786 
vt 0.017041079699993134 0.11070771515369415 
vt 0.022085344418883324 0.09648086875677109 
vt 0.009428826160728931 0.08310519903898239 
vt 0.018691929057240486 0.08115964382886887 
vt 0.02703789435327053 0.053313933312892914 
vt 0.38160383701324463 0.1995951235294342 
vt 0.3036470115184784 0.20081108808517456 
vt 0.0034674224443733692 0.0828620046377182 
vt 0.0020000000949949026 0.11326125264167786 
vt 0.003925991710275412 0.1437821090221405 
vt 0.012088528834283352 0.17685648798942566 
vt 0.025295330211520195 0.19752797484397888 
vt 0.04418839514255524 0.2104172557592392 
vt 0.06950142979621887 0.2156459242105484 
vt 0.14727482199668884 0.2179562747478485 
vt 0.0020000000949949026 0.7861790657043457 
vt 0.0020000000949949026 0.8700810074806213 
vt 0.07353684306144714 0.7861790657043457 
vt 0.07353684306144714 0.8700810074806213 
vt 0.14296425879001617 0.7861790657043457 
vt 0.14296425879001617 0.8700810074806213 
vt 0.21771109104156494 0.7861790657043457 
vt 0.21771109104156494 0.8700810074806213 
vt 0.23917214572429657 0.7861790657043457 
vt 0.23917214572429657 0.8700810074806213 
vt 0.25687292218208313 0.7861790657043457 
vt 0.25687292218208313 0.8700810074806213 
vt 0.27558255195617676 0.8700810074806213 
vt 0.27558255195617676 0.7861790657043457 
vt 0.2912656366825104 0.8700810074806213 
vt 0.2912656366825104 0.7861790657043457 
vt 0.30795755982398987 0.8700810074806213 
vt 0.30795755982398987 0.7861790657043457 
vt 0.3259334862232208 0.8700810074806213 
vt 0.3259334862232208 0.7861790657043457 
vt 0.34491828083992004 0.8700810074806213 
vt 0.34491828083992004 0.7861790657043457 
vt 0.36381134390830994 0.7861790657043457 
vt 0.36381134390830994 0.8700810074806213 
vt 0.38087013363838196 0.7861790657043457 
vt 0.38087013363838196 0.8700810074806213 
vt 0.41131913661956787 0.7861790657043457 
vt 0.41131913661956787 0.8700810074806213 
vt 0.43122103810310364 0.7861790657043457 
vt 0.43122103810310364 0.8700810074806213 
vt 0.4497472643852234 0.8700810074806213 
vt 0.4497472643852234 0.7861790657043457 
vt 0.47212544083595276 0.8700810074806213 
vt 0.47212544083595276 0.7861790657043457 
vt 0.5488899946212769 0.8700810074806213 
vt 0.5488899946212769 0.7861790657043457 
vt 0.6236368417739868 0.8700810074806213 
vt 0.6236368417739868 0.7861790657043457 
vt 0.6995759010314941 0.8700810074806213 
vt 0.6995759010314941 0.7861790657043457 
vt 0.3763761520385742 0.9980010390281677 
vt 0.34519341588020325 0.9980010390281677 
vt 0.34519341588020325 0.9491190314292908 
vt 0.31034213304519653 0.9491190314292908 
vt 0.31034213304519653 0.9980010390281677 
vt 0.28548765182495117 0.9491190314292908 
vt 0.28548765182495117 0.9980010390281677 
vt 0.26237577199935913 0.9491190314292908 
vt 0.26237577199935913 0.9980010390281677 
vt 0.2365124374628067 0.9491190314292908 
vt 0.2365124374628067 0.9980010390281677 
vt 0.15828049182891846 0.9980010390281677 
vt 0.15828049182891846 0.9491190314292908 
vt 0.08014024049043655 0.9980010390281677 
vt 0.08014024049043655 0.9491190314292908 
vt 0.0020000000949949026 0.9980010390281677 
vt 0.0020000000949949026 0.9491190314292908 
vt 0.3763761520385742 0.9491190314292908 
vt 0.40765058994293213 0.9491190314292908 
vt 0.40765058994293213 0.9980010390281677 
vt 0.4424101412296295 0.9491190314292908 
vt 0.4424101412296295 0.9980010390281677 
vt 0.4673563241958618 0.9491190314292908 
vt 0.4673563241958618 0.9980010390281677 
vt 0.4903765320777893 0.9980010390281677 
vt 0.4903765320777893 0.9491190314292908 
vt 0.5163315534591675 0.9980010390281677 
vt 0.5163315534591675 0.9491190314292908 
vt 0.59447181224823 0.9980010390281677 
vt 0.59447181224823 0.9491190314292908 
vt 0.6725203394889832 0.9980010390281677 
vt 0.6725203394889832 0.9491190314292908 
vt 0.7506605386734009 0.9980010390281677 
vt 0.7506605386734009 0.9491190314292908 
vt 0.7050787806510925 0.6875638961791992 
vt 0.7050787806510925 0.7709794044494629 
vt 0.6328999400138855 0.6875638961791992 
vt 0.6328999400138855 0.7709794044494629 
vt 0.5598039627075195 0.6875638961791992 
vt 0.5598039627075195 0.7709794044494629 
vt 0.48368141055107117 0.6875638961791992 
vt 0.48368141055107117 0.7709794044494629 
vt 0.45919379591941833 0.6875638961791992 
vt 0.45919379591941833 0.7709794044494629 
vt 0.43727415800094604 0.6875638961791992 
vt 0.43727415800094604 0.7709794044494629 
vt 0.4192982316017151 0.7709794044494629 
vt 0.4192982316017151 0.6875638961791992 
vt 0.4051743149757385 0.7709794044494629 
vt 0.4051743149757385 0.6875638961791992 
vt 0.38747352361679077 0.7709794044494629 
vt 0.38747352361679077 0.6875638961791992 
vt 0.3688555955886841 0.7709794044494629 
vt 0.3688555955886841 0.6875638961791992 
vt 0.35097140073776245 0.7709794044494629 
vt 0.35097140073776245 0.6875638961791992 
vt 0.33180317282676697 0.6875638961791992 
vt 0.33180317282676697 0.7709794044494629 
vt 0.3159366846084595 0.6875638961791992 
vt 0.3159366846084595 0.7709794044494629 
vt 0.2858545184135437 0.6875638961791992 
vt 0.2858545184135437 0.7709794044494629 
vt 0.26540231704711914 0.6875638961791992 
vt 0.26540231704711914 0.7709794044494629 
vt 0.24650925397872925 0.7709794044494629 
vt 0.24650925397872925 0.6875638961791992 
vt 0.22651562094688416 0.7709794044494629 
vt 0.22651562094688416 0.6875638961791992 
vt 0.15039308369159698 0.7709794044494629 
vt 0.15039308369159698 0.6875638961791992 
vt 0.07867281883955002 0.7709794044494629 
vt 0.07867281883955002 0.6875638961791992 
vt 0.002550283446907997 0.7709794044494629 
vt 0.0020000000949949026 0.6875638961791992 
s on 
f 1/1/1 2/2/2 3/3/3 
f 2/2/2 4/4/4 3/3/3 
f 3/3/3 4/4/4 3/3/3 
f 4/4/4 5/5/5 3/3/3 
f 3/3/3 5/5/5 6/6/6 
f 5/5/5 7/7/7 6/6/6 
f 6/6/6 7/7/7 8/8/8 
f 7/7/7 9/9/9 8/8/8 
f 8/8/8 9/9/9 10/10/10 
f 9/9/9 11/11/11 10/10/10 
f 10/10/10 11/11/11 12/12/12 
f 11/11/11 11/11/11 12/12/12 
f 12/12/12 11/11/11 13/13/13 
f 11/11/11 11/11/11 13/13/13 
f 13/13/13 11/11/11 7/7/7 
f 11/11/11 9/9/9 7/7/7 
f 7/7/7 9/9/9 9/9/9 
f 9/9/9 1/1/1 9/9/9 
f 9/9/9 1/1/1 1/1/1 
f 1/1/1 3/3/3 1/1/1 
f 1/1/1 3/3/3 14/14/14 
f 3/3/3 6/6/6 14/14/14 
f 14/14/14 6/6/6 15/15/15 
f 6/6/6 8/8/8 15/15/15 
f 15/15/15 8/8/8 10/10/10 
f 8/8/8 10/10/10 10/10/10 
f 10/10/10 10/10/10 12/12/12 
f 10/10/10 12/12/12 12/12/12 
f 12/12/12 12/12/12 16/16/16 
f 12/12/12 13/13/13 16/16/16 
f 16/16/16 13/13/13 17/17/17 
f 13/13/13 7/7/7 17/17/17 
f 17/17/17 7/7/7 17/17/17 
f 7/7/7 18/18/18 17/17/17 
f 17/17/17 18/18/18 19/19/19 
f 18/18/18 18/18/18 19/19/19 
f 19/19/19 18/18/18 20/20/20 
f 18/18/18 21/21/21 20/20/20 
f 20/20/20 21/21/21 22/22/22 
f 21/21/21 23/23/23 22/22/22 
f 22/22/22 23/23/23 22/22/22 
f 23/23/23 24/24/24 22/22/22 
f 22/22/22 24/24/24 25/25/25 
f 24/24/24 26/26/26 25/25/25 
f 25/25/25 26/26/26 27/27/27 
f 26/26/26 28/28/28 27/27/27 
f 27/27/27 28/28/28 29/29/29 
f 28/28/28 28/28/28 29/29/29 
f 29/29/29 28/28/28 30/30/30 
f 28/28/28 31/31/31 30/30/30 
f 30/30/30 31/31/31 32/32/32 
f 31/31/31 33/33/33 32/32/32 
f 32/32/32 33/33/33 34/34/34 
f 33/33/33 35/35/35 34/34/34 
f 34/34/34 35/35/35 36/36/36 
f 35/35/35 36/36/36 36/36/36 
f 36/36/36 36/36/36 16/16/16 
f 36/36/36 16/16/16 16/16/16 
f 16/16/16 16/16/16 37/37/37 
f 16/16/16 17/17/17 37/37/37 
f 37/37/37 17/17/17 19/19/19 
f 17/17/17 19/19/19 19/19/19 
f 19/19/19 19/19/19 21/21/21 
f 19/19/19 21/21/21 21/21/21 
f 21/21/21 21/21/21 38/38/38 
f 21/21/21 18/18/18 38/38/38 
f 38/38/38 18/18/18 7/7/7 
f 18/18/18 7/7/7 7/7/7 
f 7/7/7 7/7/7 21/21/21 
f 7/7/7 21/21/21 21/21/21 
f 21/21/21 21/21/21 23/23/23 
f 21/21/21 38/38/38 23/23/23 
f 23/23/23 38/38/38 39/39/39 
f 38/38/38 40/40/40 39/39/39 
f 39/39/39 40/40/40 35/35/35 
f 40/40/40 41/41/41 35/35/35 
f 35/35/35 41/41/41 36/36/36 
f 41/41/41 41/41/41 36/36/36 
f 36/36/36 41/41/41 42/42/42 
f 41/41/41 40/40/40 42/42/42 
f 42/42/42 40/40/40 40/40/40 
f 40/40/40 35/35/35 40/40/40 
f 40/40/40 35/35/35 35/35/35 
f 35/35/35 33/33/33 35/35/35 
f 35/35/35 33/33/33 39/39/39 
f 33/33/33 31/31/31 39/39/39 
f 39/39/39 31/31/31 39/39/39 
f 31/31/31 28/28/28 39/39/39 
f 39/39/39 28/28/28 39/39/39 
f 28/28/28 26/26/26 39/39/39 
f 39/39/39 26/26/26 39/39/39 
f 26/26/26 24/24/24 39/39/39 
f 39/39/39 24/24/24 23/23/23 
f 24/24/24 23/23/23 23/23/23 
f 23/23/23 23/23/23 36/36/36 
f 23/23/23 36/36/36 36/36/36 
f 36/36/36 36/36/36 43/43/43 
f 36/36/36 42/42/42 43/43/43 
f 43/43/43 42/42/42 43/43/43 
f 42/42/42 44/44/44 43/43/43 
f 43/43/43 44/44/44 45/45/45 
f 44/44/44 46/46/46 45/45/45 
f 45/45/45 46/46/46 47/47/47 
f 46/46/46 48/48/48 47/47/47 
f 47/47/47 48/48/48 49/49/49 
f 48/48/48 48/48/48 49/49/49 
f 49/49/49 48/48/48 50/50/50 
f 48/48/48 51/51/51 50/50/50 
f 50/50/50 51/51/51 52/52/52 
f 51/51/51 53/53/53 52/52/52 
f 52/52/52 53/53/53 54/54/54 
f 53/53/53 54/54/54 54/54/54 
f 54/54/54 54/54/54 53/53/53 
f 54/54/54 53/53/53 53/53/53 
f 53/53/53 53/53/53 55/55/55 
f 53/53/53 51/51/51 55/55/55 
f 55/55/55 51/51/51 55/55/55 
f 51/51/51 48/48/48 55/55/55 
f 55/55/55 48/48/48 55/55/55 
f 48/48/48 46/46/46 55/55/55 
f 55/55/55 46/46/46 55/55/55 
f 46/46/46 44/44/44 55/55/55 
f 55/55/55 44/44/44 55/55/55 
f 44/44/44 42/42/42 55/55/55 
f 55/55/55 42/42/42 55/55/55 
f 42/42/42 40/40/40 55/55/55 
f 55/55/55 40/40/40 55/55/55 
f 40/40/40 56/56/56 55/55/55 
f 55/55/55 56/56/56 57/57/57 
f 56/56/56 58/58/58 57/57/57 
f 57/57/57 58/58/58 54/54/54 
f 58/58/58 58/58/58 54/54/54 
f 54/54/54 58/58/58 59/59/59 
f 58/58/58 60/60/60 59/59/59 
f 59/59/59 60/60/60 61/61/61 
f 60/60/60 62/62/62 61/61/61 
f 61/61/61 62/62/62 63/63/63 
f 62/62/62 62/62/62 63/63/63 
f 63/63/63 62/62/62 64/64/64 
f 62/62/62 65/65/65 64/64/64 
f 64/64/64 65/65/65 66/66/66 
f 65/65/65 67/67/67 66/66/66 
f 66/66/66 67/67/67 68/68/68 
f 67/67/67 68/68/68 68/68/68 
f 68/68/68 68/68/68 55/55/55 
f 68/68/68 55/55/55 55/55/55 
f 55/55/55 55/55/55 53/53/53 
f 55/55/55 57/57/57 53/53/53 
f 53/53/53 57/57/57 54/54/54 
f 57/57/57 54/54/54 54/54/54 
f 54/54/54 54/54/54 58/58/58 
f 54/54/54 58/58/58 58/58/58 
f 58/58/58 58/58/58 60/60/60 
f 58/58/58 56/56/56 60/60/60 
f 60/60/60 56/56/56 69/69/69 
f 56/56/56 56/56/56 69/69/69 
f 69/69/69 56/56/56 70/70/70 
f 56/56/56 40/40/40 70/70/70 
f 70/70/70 40/40/40 70/70/70 
f 40/40/40 38/38/38 70/70/70 
f 70/70/70 38/38/38 70/70/70 
f 38/38/38 7/7/7 70/70/70 
f 70/70/70 7/7/7 70/70/70 
f 7/7/7 5/5/5 70/70/70 
f 70/70/70 5/5/5 69/69/69 
f 5/5/5 4/4/4 69/69/69 
f 69/69/69 4/4/4 71/71/71 
f 4/4/4 72/72/72 71/71/71 
f 71/71/71 72/72/72 71/71/71 
f 72/72/72 68/68/68 71/71/71 
f 71/71/71 68/68/68 73/73/73 
f 68/68/68 67/67/67 73/73/73 
f 73/73/73 67/67/67 69/69/69 
f 67/67/67 65/65/65 69/69/69 
f 69/69/69 65/65/65 69/69/69 
f 65/65/65 62/62/62 69/69/69 
f 69/69/69 62/62/62 60/60/60 
f 62/62/62 60/60/60 60/60/60 
f 60/60/60 60/60/60 72/72/72 
f 60/60/60 72/72/72 72/72/72 
f 72/72/72 72/72/72 2/2/2 
f 72/72/72 4/4/4 2/2/2 
f 2/2/2 4/4/4 4/4/4 
f 4/4/4 71/71/71 4/4/4 
f 4/4/4 71/71/71 71/71/71 
f 71/71/71 73/73/73 71/71/71 
f 71/71/71 73/73/73 69/69/69 
f 73/73/73 69/69/69 69/69/69 
f 69/69/69 69/69/69 74/74/74 
f 69/69/69 74/74/74 74/74/74 
f 74/74/74 74/74/74 75/75/75 
f 74/74/74 76/76/76 75/75/75 
f 75/75/75 76/76/76 75/75/75 
f 76/76/76 77/77/77 75/75/75 
f 75/75/75 77/77/77 78/78/78 
f 77/77/77 79/79/79 78/78/78 
f 78/78/78 79/79/79 80/80/80 
f 79/79/79 81/81/81 80/80/80 
f 80/80/80 81/81/81 82/82/82 
f 81/81/81 83/83/83 82/82/82 
f 82/82/82 83/83/83 84/84/84 
f 83/83/83 83/83/83 84/84/84 
f 84/84/84 83/83/83 85/85/85 
f 83/83/83 86/86/86 85/85/85 
f 85/85/85 86/86/86 87/87/87 
f 86/86/86 88/88/88 87/87/87 
f 87/87/87 88/88/88 89/89/89 
f 88/88/88 90/90/90 89/89/89 
f 89/89/89 90/90/90 90/90/90 
f 90/90/90 76/76/76 90/90/90 
f 90/90/90 76/76/76 76/76/76 
f 76/76/76 74/74/74 76/76/76 
f 76/76/76 74/74/74 91/91/91 
f 74/74/74 74/74/74 91/91/91 
f 91/91/91 74/74/74 92/92/92 
f 74/74/74 93/93/93 92/92/92 
f 92/92/92 93/93/93 94/94/94 
f 93/93/93 95/95/95 94/94/94 
f 94/94/94 95/95/95 96/96/96 
f 95/95/95 97/97/97 96/96/96 
f 96/96/96 97/97/97 96/96/96 
f 97/97/97 98/98/98 96/96/96 
f 96/96/96 98/98/98 99/99/99 
f 98/98/98 100/100/100 99/99/99 
f 99/99/99 100/100/100 101/101/101 
f 100/100/100 102/102/102 101/101/101 
f 101/101/101 102/102/102 103/103/103 
f 102/102/102 104/104/104 103/103/103 
f 103/103/103 104/104/104 105/105/105 
f 104/104/104 106/106/106 105/105/105 
f 105/105/105 106/106/106 107/107/107 
f 106/106/106 107/107/107 107/107/107 
f 107/107/107 107/107/107 108/108/108 
f 107/107/107 108/108/108 108/108/108 
f 108/108/108 108/108/108 109/109/109 
f 108/108/108 110/110/110 109/109/109 
f 109/109/109 110/110/110 111/111/111 
f 110/110/110 112/112/112 111/111/111 
f 111/111/111 112/112/112 111/111/111 
f 112/112/112 113/113/113 111/111/111 
f 111/111/111 113/113/113 109/109/109 
f 113/113/113 109/109/109 109/109/109 
f 109/109/109 109/109/109 108/108/108 
f 109/109/109 108/108/108 108/108/108 
f 108/108/108 108/108/108 110/110/110 
f 108/108/108 114/114/114 110/110/110 
f 110/110/110 114/114/114 112/112/112 
f 114/114/114 112/112/112 112/112/112 
f 112/112/112 112/112/112 108/108/108 
f 112/112/112 108/108/108 108/108/108 
f 108/108/108 108/108/108 114/114/114 
f 108/108/108 115/115/115 114/114/114 
f 114/114/114 115/115/115 116/116/116 
f 115/115/115 117/117/117 116/116/116 
f 116/116/116 117/117/117 116/116/116 
f 117/117/117 118/118/118 116/116/116 
f 116/116/116 118/118/118 119/119/119 
f 118/118/118 120/120/120 119/119/119 
f 119/119/119 120/120/120 121/121/121 
f 120/120/120 122/122/122 121/121/121 
f 121/121/121 122/122/122 123/123/123 
f 122/122/122 124/124/124 123/123/123 
f 123/123/123 124/124/124 125/125/125 
f 124/124/124 124/124/124 125/125/125 
f 125/125/125 124/124/124 126/126/126 
f 124/124/124 127/127/127 126/126/126 
f 126/126/126 127/127/127 128/128/128 
f 127/127/127 128/128/128 128/128/128 
f 128/128/128 128/128/128 122/122/122 
f 128/128/128 122/122/122 122/122/122 
f 122/122/122 122/122/122 124/124/124 
f 122/122/122 129/129/129 124/124/124 
f 124/124/124 129/129/129 127/127/127 
f 129/129/129 127/127/127 127/127/127 
f 127/127/127 127/127/127 123/123/123 
f 127/127/127 123/123/123 123/123/123 
f 123/123/123 123/123/123 121/121/121 
f 123/123/123 125/125/125 121/121/121 
f 121/121/121 125/125/125 119/119/119 
f 125/125/125 130/130/130 119/119/119 
f 119/119/119 130/130/130 116/116/116 
f 130/130/130 130/130/130 116/116/116 
f 116/116/116 130/130/130 114/114/114 
f 130/130/130 130/130/130 114/114/114 
f 114/114/114 130/130/130 112/112/112 
f 130/130/130 131/131/131 112/112/112 
f 112/112/112 131/131/131 132/132/132 
f 131/131/131 133/133/133 132/132/132 
f 132/132/132 133/133/133 134/134/134 
f 133/133/133 135/135/135 134/134/134 
f 134/134/134 135/135/135 136/136/136 
f 135/135/135 137/137/137 136/136/136 
f 136/136/136 137/137/137 138/138/138 
f 137/137/137 139/139/139 138/138/138 
f 138/138/138 139/139/139 140/140/140 
f 139/139/139 139/139/139 140/140/140 
f 140/140/140 139/139/139 141/141/141 
f 139/139/139 142/142/142 141/141/141 
f 141/141/141 142/142/142 141/141/141 
f 142/142/142 143/143/143 141/141/141 
f 141/141/141 143/143/143 144/144/144 
f 143/143/143 145/145/145 144/144/144 
f 144/144/144 145/145/145 146/146/146 
f 145/145/145 145/145/145 146/146/146 
f 146/146/146 145/145/145 147/147/147 
f 145/145/145 148/148/148 147/147/147 
f 147/147/147 148/148/148 147/147/147 
f 148/148/148 149/149/149 147/147/147 
f 147/147/147 149/149/149 150/150/150 
f 149/149/149 151/151/151 150/150/150 
f 150/150/150 151/151/151 152/152/152 
f 151/151/151 153/153/153 152/152/152 
f 152/152/152 153/153/153 154/154/154 
f 153/153/153 153/153/153 154/154/154 
f 154/154/154 153/153/153 155/155/155 
f 153/153/153 156/156/156 155/155/155 
f 155/155/155 156/156/156 157/157/157 
f 156/156/156 158/158/158 157/157/157 
f 157/157/157 158/158/158 159/159/159 
f 158/158/158 160/160/160 159/159/159 
f 159/159/159 160/160/160 159/159/159 
f 160/160/160 161/161/161 159/159/159 
f 159/159/159 161/161/161 162/162/162 
f 161/161/161 163/163/163 162/162/162 
f 162/162/162 163/163/163 164/164/164 
f 163/163/163 163/163/163 164/164/164 
f 164/164/164 163/163/163 165/165/165 
f 163/163/163 166/166/166 165/165/165 
f 165/165/165 166/166/166 167/167/167 
f 166/166/166 168/168/168 167/167/167 
f 167/167/167 168/168/168 169/169/169 
f 168/168/168 170/170/170 169/169/169 
f 169/169/169 170/170/170 171/171/171 
f 170/170/170 171/171/171 171/171/171 
f 171/171/171 171/171/171 135/135/135 
f 171/171/171 135/135/135 135/135/135 
f 135/135/135 135/135/135 131/131/131 
f 135/135/135 133/133/133 131/131/131 
f 131/131/131 133/133/133 133/133/133 
f 133/133/133 170/170/170 133/133/133 
f 133/133/133 170/170/170 170/170/170 
f 170/170/170 168/168/168 170/170/170 
f 170/170/170 168/168/168 172/172/172 
f 168/168/168 166/166/166 172/172/172 
f 172/172/172 166/166/166 172/172/172 
f 166/166/166 163/163/163 172/172/172 
f 172/172/172 163/163/163 172/172/172 
f 163/163/163 161/161/161 172/172/172 
f 172/172/172 161/161/161 172/172/172 
f 161/161/161 160/160/160 172/172/172 
f 172/172/172 160/160/160 172/172/172 
f 160/160/160 158/158/158 172/172/172 
f 172/172/172 158/158/158 172/172/172 
f 158/158/158 156/156/156 172/172/172 
f 172/172/172 156/156/156 173/173/173 
f 156/156/156 153/153/153 173/173/173 
f 173/173/173 153/153/153 173/173/173 
f 153/153/153 151/151/151 173/173/173 
f 173/173/173 151/151/151 174/174/174 
f 151/151/151 149/149/149 174/174/174 
f 174/174/174 149/149/149 174/174/174 
f 149/149/149 148/148/148 174/174/174 
f 174/174/174 148/148/148 174/174/174 
f 148/148/148 145/145/145 174/174/174 
f 174/174/174 145/145/145 174/174/174 
f 145/145/145 143/143/143 174/174/174 
f 174/174/174 143/143/143 174/174/174 
f 143/143/143 142/142/142 174/174/174 
f 174/174/174 142/142/142 174/174/174 
f 142/142/142 139/139/139 174/174/174 
f 174/174/174 139/139/139 174/174/174 
f 139/139/139 137/137/137 174/174/174 
f 174/174/174 137/137/137 174/174/174 
f 137/137/137 135/135/135 174/174/174 
f 174/174/174 135/135/135 174/174/174 
f 135/135/135 131/131/131 174/174/174 
f 174/174/174 131/131/131 175/175/175 
f 131/131/131 130/130/130 175/175/175 
f 175/175/175 130/130/130 176/176/176 
f 130/130/130 125/125/125 176/176/176 
f 176/176/176 125/125/125 125/125/125 
f 125/125/125 174/174/174 125/125/125 
f 125/125/125 174/174/174 174/174/174 
f 174/174/174 175/175/175 174/174/174 
f 174/174/174 175/175/175 173/173/173 
f 175/175/175 175/175/175 173/173/173 
f 173/173/173 175/175/175 172/172/172 
f 175/175/175 176/176/176 172/172/172 
f 172/172/172 176/176/176 177/177/177 
f 176/176/176 178/178/178 177/177/177 
f 177/177/177 178/178/178 171/171/171 
f 178/178/178 178/178/178 171/171/171 
f 171/171/171 178/178/178 179/179/179 
f 178/178/178 180/180/180 179/179/179 
f 179/179/179 180/180/180 181/181/181 
f 180/180/180 182/182/182 181/181/181 
f 181/181/181 182/182/182 183/183/183 
f 182/182/182 182/182/182 183/183/183 
f 183/183/183 182/182/182 128/128/128 
f 182/182/182 182/182/182 128/128/128 
f 128/128/128 182/182/182 184/184/184 
f 182/182/182 125/125/125 184/184/184 
f 184/184/184 125/125/125 184/184/184 
f 125/125/125 126/126/126 184/184/184 
f 184/184/184 126/126/126 128/128/128 
f 126/126/126 128/128/128 128/128/128 
f 128/128/128 128/128/128 172/172/172 
f 128/128/128 172/172/172 172/172/172 
f 172/172/172 172/172/172 170/170/170 
f 172/172/172 177/177/177 170/170/170 
f 170/170/170 177/177/177 171/171/171 
f 177/177/177 171/171/171 171/171/171 
f 171/171/171 171/171/171 178/178/178 
f 171/171/171 178/178/178 178/178/178 
f 178/178/178 178/178/178 180/180/180 
f 178/178/178 176/176/176 180/180/180 
f 180/180/180 176/176/176 180/180/180 
f 176/176/176 125/125/125 180/180/180 
f 180/180/180 125/125/125 182/182/182 
f 125/125/125 182/182/182 182/182/182 
f 182/182/182 182/182/182 109/109/109 
f 182/182/182 109/109/109 109/109/109 
f 109/109/109 109/109/109 185/185/185 
f 109/109/109 113/113/113 185/185/185 
f 185/185/185 113/113/113 186/186/186 
f 113/113/113 187/187/187 186/186/186 
f 186/186/186 187/187/187 188/188/188 
f 187/187/187 189/189/189 188/188/188 
f 188/188/188 189/189/189 190/190/190 
f 189/189/189 112/112/112 190/190/190 
f 190/190/190 112/112/112 190/190/190 
f 112/112/112 132/132/132 190/190/190 
f 190/190/190 132/132/132 191/191/191 
f 132/132/132 134/134/134 191/191/191 
f 191/191/191 134/134/134 134/134/134 
f 134/134/134 189/189/189 134/134/134 
f 134/134/134 189/189/189 189/189/189 
f 189/189/189 187/187/187 189/189/189 
f 189/189/189 187/187/187 112/112/112 
f 187/187/187 113/113/113 112/112/112 
f 112/112/112 113/113/113 113/113/113 
f 113/113/113 188/188/188 113/113/113 
f 113/113/113 188/188/188 188/188/188 
f 188/188/188 190/190/190 188/188/188 
f 188/188/188 190/190/190 192/192/192 
f 190/190/190 191/191/191 192/192/192 
f 192/192/192 191/191/191 191/191/191 
f 191/191/191 193/193/193 191/191/191 
f 191/191/191 193/193/193 193/193/193 
f 193/193/193 194/194/194 193/193/193 
f 193/193/193 194/194/194 195/195/195 
f 194/194/194 196/196/196 195/195/195 
f 195/195/195 196/196/196 196/196/196 
f 196/196/196 195/195/195 196/196/196 
f 196/196/196 195/195/195 195/195/195 
f 195/195/195 197/197/197 195/195/195 
f 195/195/195 197/197/197 193/193/193 
f 197/197/197 197/197/197 193/193/193 
f 193/193/193 197/197/197 198/198/198 
f 197/197/197 199/199/199 198/198/198 
f 198/198/198 199/199/199 200/200/200 
f 199/199/199 200/200/200 200/200/200 
f 200/200/200 200/200/200 199/199/199 
f 200/200/200 199/199/199 199/199/199 
f 199/199/199 199/199/199 201/201/201 
f 199/199/199 197/197/197 201/201/201 
f 201/201/201 197/197/197 201/201/201 
f 197/197/197 195/195/195 201/201/201 
f 201/201/201 195/195/195 202/202/202 
f 195/195/195 196/196/196 202/202/202 
f 202/202/202 196/196/196 203/203/203 
f 196/196/196 204/204/204 203/203/203 
f 203/203/203 204/204/204 205/205/205 
f 204/204/204 206/206/206 205/205/205 
f 205/205/205 206/206/206 207/207/207 
f 206/206/206 208/208/208 207/207/207 
f 207/207/207 208/208/208 209/209/209 
f 208/208/208 210/210/210 209/209/209 
f 209/209/209 210/210/210 210/210/210 
f 210/210/210 196/196/196 210/210/210 
f 210/210/210 196/196/196 196/196/196 
f 196/196/196 194/194/194 196/196/196 
f 196/196/196 194/194/194 204/204/204 
f 194/194/194 211/211/211 204/204/204 
f 204/204/204 211/211/211 206/206/206 
f 211/211/211 212/212/212 206/206/206 
f 206/206/206 212/212/212 208/208/208 
f 212/212/212 213/213/213 208/208/208 
f 208/208/208 213/213/213 208/208/208 
f 213/213/213 214/214/214 208/208/208 
f 208/208/208 214/214/214 208/208/208 
f 214/214/214 215/215/215 208/208/208 
f 208/208/208 215/215/215 210/210/210 
f 215/215/215 215/215/215 210/210/210 
f 210/210/210 215/215/215 216/216/216 
f 215/215/215 217/217/217 216/216/216 
f 216/216/216 217/217/217 218/218/218 
f 217/217/217 219/219/219 218/218/218 
f 218/218/218 219/219/219 220/220/220 
f 219/219/219 221/221/221 220/220/220 
f 220/220/220 221/221/221 222/222/222 
f 221/221/221 222/222/222 222/222/222 
f 222/222/222 222/222/222 214/214/214 
f 222/222/222 214/214/214 214/214/214 
f 214/214/214 214/214/214 215/215/215 
f 214/214/214 223/223/223 215/215/215 
f 215/215/215 223/223/223 217/217/217 
f 223/223/223 224/224/224 217/217/217 
f 217/217/217 224/224/224 219/219/219 
f 224/224/224 224/224/224 219/219/219 
f 219/219/219 224/224/224 221/221/221 
f 224/224/224 225/225/225 221/221/221 
f 221/221/221 225/225/225 226/226/226 
f 225/225/225 227/227/227 226/226/226 
f 226/226/226 227/227/227 228/228/228 
f 227/227/227 229/229/229 228/228/228 
f 228/228/228 229/229/229 228/228/228 
f 229/229/229 230/230/230 228/228/228 
f 228/228/228 230/230/230 231/231/231 
f 230/230/230 230/230/230 231/231/231 
f 231/231/231 230/230/230 232/232/232 
f 230/230/230 233/233/233 232/232/232 
f 232/232/232 233/233/233 234/234/234 
f 233/233/233 233/233/233 234/234/234 
f 234/234/234 233/233/233 235/235/235 
f 233/233/233 236/236/236 235/235/235 
f 235/235/235 236/236/236 237/237/237 
f 236/236/236 236/236/236 237/237/237 
f 237/237/237 236/236/236 238/238/238 
f 236/236/236 239/239/239 238/238/238 
f 238/238/238 239/239/239 240/240/240 
f 239/239/239 241/241/241 240/240/240 
f 240/240/240 241/241/241 242/242/242 
f 241/241/241 243/243/243 242/242/242 
f 242/242/242 243/243/243 244/244/244 
f 243/243/243 245/245/245 244/244/244 
f 244/244/244 245/245/245 246/246/246 
f 245/245/245 247/247/247 246/246/246 
f 246/246/246 247/247/247 248/248/248 
f 247/247/247 248/248/248 248/248/248 
f 248/248/248 248/248/248 221/221/221 
f 248/248/248 221/221/221 221/221/221 
f 221/221/221 221/221/221 222/222/222 
f 221/221/221 226/226/226 222/222/222 
f 222/222/222 226/226/226 249/249/249 
f 226/226/226 228/228/228 249/249/249 
f 249/249/249 228/228/228 231/231/231 
f 228/228/228 231/231/231 231/231/231 
f 231/231/231 231/231/231 247/247/247 
f 231/231/231 247/247/247 247/247/247 
f 247/247/247 247/247/247 250/250/250 
f 247/247/247 245/245/245 250/250/250 
f 250/250/250 245/245/245 250/250/250 
f 245/245/245 243/243/243 250/250/250 
f 250/250/250 243/243/243 251/251/251 
f 243/243/243 241/241/241 251/251/251 
f 251/251/251 241/241/241 252/252/252 
f 241/241/241 239/239/239 252/252/252 
f 252/252/252 239/239/239 253/253/253 
f 239/239/239 239/239/239 253/253/253 
f 253/253/253 239/239/239 254/254/254 
f 239/239/239 236/236/236 254/254/254 
f 254/254/254 236/236/236 255/255/255 
f 236/236/236 233/233/233 255/255/255 
f 255/255/255 233/233/233 256/256/256 
f 233/233/233 230/230/230 256/256/256 
f 256/256/256 230/230/230 229/229/229 
f 230/230/230 229/229/229 229/229/229 
f 229/229/229 229/229/229 250/250/250 
f 229/229/229 250/250/250 250/250/250 
f 250/250/250 250/250/250 247/247/247 
f 250/250/250 257/257/257 247/247/247 
f 247/247/247 257/257/257 258/258/258 
f 257/257/257 259/259/259 258/258/258 
f 258/258/258 259/259/259 260/260/260 
f 259/259/259 261/261/261 260/260/260 
f 260/260/260 261/261/261 260/260/260 
f 261/261/261 262/262/262 260/260/260 
f 260/260/260 262/262/262 260/260/260 
f 262/262/262 263/263/263 260/260/260 
f 260/260/260 263/263/263 264/264/264 
f 263/263/263 263/263/263 264/264/264 
f 264/264/264 263/263/263 265/265/265 
f 263/263/263 266/266/266 265/265/265 
f 265/265/265 266/266/266 267/267/267 
f 266/266/266 268/268/268 267/267/267 
f 267/267/267 268/268/268 269/269/269 
f 268/268/268 270/270/270 269/269/269 
f 269/269/269 270/270/270 271/271/271 
f 270/270/270 272/272/272 271/271/271 
f 271/271/271 272/272/272 273/273/273 
f 272/272/272 274/274/274 273/273/273 
f 273/273/273 274/274/274 275/275/275 
f 274/274/274 276/276/276 275/275/275 
f 275/275/275 276/276/276 277/277/277 
f 276/276/276 276/276/276 277/277/277 
f 277/277/277 276/276/276 278/278/278 
f 276/276/276 279/279/279 278/278/278 
f 278/278/278 279/279/279 280/280/280 
f 279/279/279 279/279/279 280/280/280 
f 280/280/280 279/279/279 281/281/281 
f 279/279/279 282/282/282 281/281/281 
f 281/281/281 282/282/282 283/283/283 
f 282/282/282 199/199/199 283/283/283 
f 283/283/283 199/199/199 284/284/284 
f 199/199/199 201/201/201 284/284/284 
f 284/284/284 201/201/201 201/201/201 
f 201/201/201 247/247/247 201/201/201 
f 201/201/201 247/247/247 247/247/247 
f 247/247/247 258/258/258 247/247/247 
f 247/247/247 258/258/258 248/248/248 
f 258/258/258 258/258/258 248/248/248 
f 248/248/248 258/258/258 285/285/285 
f 258/258/258 260/260/260 285/285/285 
f 285/285/285 260/260/260 286/286/286 
f 260/260/260 264/264/264 286/286/286 
f 286/286/286 264/264/264 264/264/264 
f 264/264/264 199/199/199 264/264/264 
f 264/264/264 199/199/199 199/199/199 
f 199/199/199 282/282/282 199/199/199 
f 199/199/199 282/282/282 200/200/200 
f 282/282/282 282/282/282 200/200/200 
f 200/200/200 282/282/282 287/287/287 
f 282/282/282 279/279/279 287/287/287 
f 287/287/287 279/279/279 288/288/288 
f 279/279/279 276/276/276 288/288/288 
f 288/288/288 276/276/276 289/289/289 
f 276/276/276 274/274/274 289/289/289 
f 289/289/289 274/274/274 290/290/290 
f 274/274/274 274/274/274 290/290/290 
f 290/290/290 274/274/274 291/291/291 
f 274/274/274 272/272/272 291/291/291 
f 291/291/291 272/272/272 292/292/292 
f 272/272/272 270/270/270 292/292/292 
f 292/292/292 270/270/270 293/293/293 
f 270/270/270 268/268/268 293/293/293 
f 293/293/293 268/268/268 293/293/293 
f 268/268/268 266/266/266 293/293/293 
f 293/293/293 266/266/266 294/294/294 
f 266/266/266 263/263/263 294/294/294 
f 294/294/294 263/263/263 262/262/262 
f 263/263/263 262/262/262 262/262/262 
f 262/262/262 262/262/262 295/295/295 
f 262/262/262 295/295/295 295/295/295 
f 295/295/295 295/295/295 296/296/296 
f 295/295/295 297/297/297 296/296/296 
f 296/296/296 297/297/297 298/298/298 
f 297/297/297 299/299/299 298/298/298 
f 298/298/298 299/299/299 300/300/300 
f 299/299/299 301/301/301 300/300/300 
f 300/300/300 301/301/301 302/302/302 
f 301/301/301 303/303/303 302/302/302 
f 302/302/302 303/303/303 304/304/304 
f 303/303/303 305/305/305 304/304/304 
f 304/304/304 305/305/305 306/306/306 
f 305/305/305 305/305/305 306/306/306 
f 306/306/306 305/305/305 307/307/307 
f 305/305/305 308/308/308 307/307/307 
f 307/307/307 308/308/308 309/309/309 
f 308/308/308 310/310/310 309/309/309 
f 309/309/309 310/310/310 311/311/311 
f 310/310/310 312/312/312 311/311/311 
f 311/311/311 312/312/312 313/313/313 
f 312/312/312 314/314/314 313/313/313 
f 313/313/313 314/314/314 315/315/315 
f 314/314/314 316/316/316 315/315/315 
f 315/315/315 316/316/316 315/315/315 
f 316/316/316 317/317/317 315/315/315 
f 315/315/315 317/317/317 318/318/318 
f 317/317/317 319/319/319 318/318/318 
f 318/318/318 319/319/319 320/320/320 
f 319/319/319 321/321/321 320/320/320 
f 320/320/320 321/321/321 322/322/322 
f 321/321/321 323/323/323 322/322/322 
f 322/322/322 323/323/323 324/324/324 
f 323/323/323 323/323/323 324/324/324 
f 324/324/324 323/323/323 325/325/325 
f 323/323/323 326/326/326 325/325/325 
f 325/325/325 326/326/326 327/327/327 
f 326/326/326 328/328/328 327/327/327 
f 327/327/327 328/328/328 329/329/329 
f 328/328/328 330/330/330 329/329/329 
f 329/329/329 330/330/330 331/331/331 
f 330/330/330 332/332/332 331/331/331 
f 331/331/331 332/332/332 333/333/333 
f 332/332/332 334/334/334 333/333/333 
f 333/333/333 334/334/334 334/334/334 
f 334/334/334 335/335/335 334/334/334 
f 334/334/334 335/335/335 335/335/335 
f 335/335/335 336/336/336 335/335/335 
f 335/335/335 336/336/336 337/337/337 
f 336/336/336 336/336/336 337/337/337 
f 337/337/337 336/336/336 338/338/338 
f 336/336/336 339/339/339 338/338/338 
f 338/338/338 339/339/339 340/340/340 
f 339/339/339 341/341/341 340/340/340 
f 340/340/340 341/341/341 342/342/342 
f 341/341/341 343/343/343 342/342/342 
f 342/342/342 343/343/343 344/344/344 
f 343/343/343 345/345/345 344/344/344 
f 344/344/344 345/345/345 344/344/344 
f 345/345/345 346/346/346 344/344/344 
f 344/344/344 346/346/346 347/347/347 
f 346/346/346 348/348/348 347/347/347 
f 347/347/347 348/348/348 349/349/349 
f 348/348/348 350/350/350 349/349/349 
f 349/349/349 350/350/350 351/351/351 
f 350/350/350 351/351/351 351/351/351 
f 351/351/351 351/351/351 337/337/337 
f 351/351/351 337/337/337 337/337/337 
f 337/337/337 337/337/337 335/335/335 
f 337/337/337 352/352/352 335/335/335 
f 335/335/335 352/352/352 335/335/335 
f 352/352/352 353/353/353 335/335/335 
f 335/335/335 353/353/353 354/354/354 
f 353/353/353 355/355/355 354/354/354 
f 354/354/354 355/355/355 356/356/356 
f 355/355/355 357/357/357 356/356/356 
f 356/356/356 357/357/357 358/358/358 
f 357/357/357 357/357/357 358/358/358 
f 358/358/358 357/357/357 359/359/359 
f 357/357/357 360/360/360 359/359/359 
f 359/359/359 360/360/360 361/361/361 
f 360/360/360 362/362/362 361/361/361 
f 361/361/361 362/362/362 363/363/363 
f 362/362/362 364/364/364 363/363/363 
f 363/363/363 364/364/364 365/365/365 
f 364/364/364 366/366/366 365/365/365 
f 365/365/365 366/366/366 367/367/367 
f 366/366/366 368/368/368 367/367/367 
f 367/367/367 368/368/368 368/368/368 
f 368/368/368 369/369/369 368/368/368 
f 368/368/368 369/369/369 369/369/369 
f 369/369/369 370/370/370 369/369/369 
f 369/369/369 370/370/370 371/371/371 
f 370/370/370 372/372/372 371/371/371 
f 371/371/371 372/372/372 373/373/373 
f 372/372/372 374/374/374 373/373/373 
f 373/373/373 374/374/374 375/375/375 
f 374/374/374 376/376/376 375/375/375 
f 375/375/375 376/376/376 377/377/377 
f 376/376/376 378/378/378 377/377/377 
f 377/377/377 378/378/378 379/379/379 
f 378/378/378 380/380/380 379/379/379 
f 379/379/379 380/380/380 379/379/379 
f 380/380/380 381/381/381 379/379/379 
f 379/379/379 381/381/381 382/382/382 
f 381/381/381 383/383/383 382/382/382 
f 382/382/382 383/383/383 384/384/384 
f 383/383/383 385/385/385 384/384/384 
f 384/384/384 385/385/385 386/386/386 
f 385/385/385 387/387/387 386/386/386 
f 386/386/386 387/387/387 388/388/388 
f 387/387/387 389/389/389 388/388/388 
f 388/388/388 389/389/389 390/390/390 
f 389/389/389 389/389/389 390/390/390 
f 390/390/390 389/389/389 391/391/391 
f 389/389/389 392/392/392 391/391/391 
f 391/391/391 392/392/392 393/393/393 
f 392/392/392 394/394/394 393/393/393 
f 393/393/393 394/394/394 395/395/395 
f 394/394/394 396/396/396 395/395/395 
f 395/395/395 396/396/396 397/397/397 
f 396/396/396 398/398/398 397/397/397 
f 397/397/397 398/398/398 397/397/397 
f 398/398/398 399/399/399 397/397/397 
f 397/397/397 399/399/399 400/400/400 
f 399/399/399 401/401/401 400/400/400 
f 400/400/400 401/401/401 402/402/402 
f 401/401/401 403/403/403 402/402/402 
f 402/402/402 403/403/403 404/404/404 
f 403/403/403 405/405/405 404/404/404 
f 404/404/404 405/405/405 406/406/406 
f 405/405/405 407/407/407 406/406/406 
f 406/406/406 407/407/407 408/408/408 

