mtllib model_7.mtl
o model_7
v 23.493366241455078 25.90326690673828 10.326945304870605 
v 22.621313095092773 25.90326690673828 11.3214111328125 
v 22.621313095092773 21.846694946289062 11.3214111328125 
v 21.48166275024414 25.90326690673828 12.000715255737305 
v 21.48166275024414 21.846694946289062 12.000715255737305 
v 20.19251251220703 21.846694946289062 12.293492317199707 
v 20.19251251220703 25.90326690673828 12.293492317199707 
v 18.870866775512695 21.846694946289062 12.172306060791016 
v 18.870866775512695 25.90326690673828 12.172306060791016 
v 17.656455993652344 21.846694946289062 11.649970054626465 
v 17.656455993652344 25.90326690673828 11.649970054626465 
v 16.661991119384766 21.846694946289062 10.77791690826416 
v 16.661991119384766 25.90326690673828 10.77791690826416 
v 15.982686042785645 21.846694946289062 9.638267517089844 
v 15.982686042785645 25.90326690673828 9.638267517089844 
v 15.689909934997559 21.846694946289062 8.349117279052734 
v 15.689909934997559 25.90326690673828 8.349117279052734 
v 15.811095237731934 21.846694946289062 7.027470588684082 
v 15.811095237731934 25.90326690673828 7.027470588684082 
v 16.333431243896484 21.846694946289062 5.813060283660889 
v 16.333431243896484 25.90326690673828 5.813060283660889 
v 17.20548439025879 25.90326690673828 4.818594932556152 
v 17.20548439025879 21.846694946289062 4.818594932556152 
v 23.493366241455078 21.846694946289062 10.326945304870605 
v 24.015703201293945 21.846694946289062 9.11253547668457 
v 24.015703201293945 25.90326690673828 9.11253547668457 
v 24.13688850402832 25.90326690673828 7.79088830947876 
v 24.13688850402832 21.846694946289062 7.79088830947876 
v 23.844112396240234 25.90326690673828 6.501738548278809 
v 23.844112396240234 21.846694946289062 6.501738548278809 
v 23.167451858520508 25.90326690673828 5.3652663230896 
v 23.167451858520508 21.846694946289062 5.3652663230896 
v 22.17034149169922 25.90326690673828 4.490035533905029 
v 22.17034149169922 21.846694946289062 4.490035533905029 
v 20.955930709838867 25.90326690673828 3.9676992893218994 
v 20.955930709838867 21.846694946289062 3.9676992893218994 
v 19.63428497314453 21.846694946289062 3.846513509750366 
v 19.63428497314453 25.90326690673828 3.846513509750366 
v 18.345134735107422 25.90326690673828 4.139289855957031 
v 18.345134735107422 21.846694946289062 4.139289855957031 
v 17.20548439025879 21.846694946289062 4.818594932556152 
v 17.20548439025879 25.90326690673828 4.818594932556152 
v 21.48166275024414 21.846694946289062 12.000715255737305 
v 22.621313095092773 21.846694946289062 11.3214111328125 
v 21.42725372314453 21.695899963378906 11.85775375366211 
v 22.523479461669922 21.695899963378906 11.20382308959961 
v 19.916309356689453 21.695899963378906 8.070269584655762 
v 23.36268424987793 21.695899963378906 10.247444152832031 
v 20.19251251220703 21.846694946289062 12.293492317199707 
v 20.1799259185791 21.695899963378906 12.142622947692871 
v 18.870866775512695 21.846694946289062 12.172306060791016 
v 18.910680770874023 21.695899963378906 12.026241302490234 
v 17.735958099365234 21.695899963378906 11.519287109375 
v 16.779579162597656 21.695899963378906 10.680082321166992 
v 17.656455993652344 21.846694946289062 11.649970054626465 
v 16.661991119384766 21.846694946289062 10.77791690826416 
v 15.982686042785645 21.846694946289062 9.638267517089844 
v 16.125648498535156 21.695899963378906 9.583857536315918 
v 15.840779304504395 21.695899963378906 8.336530685424805 
v 15.957159996032715 21.695899963378906 7.067283630371094 
v 15.689909934997559 21.846694946289062 8.349117279052734 
v 15.811095237731934 21.846694946289062 7.027470588684082 
v 16.464115142822266 21.695899963378906 5.892561912536621 
v 16.333431243896484 21.846694946289062 5.813060283660889 
v 17.303319931030273 21.695899963378906 4.936182498931885 
v 17.20548439025879 21.846694946289062 4.818594932556152 
v 18.39954376220703 21.695899963378906 4.282251834869385 
v 19.64687156677246 21.695899963378906 3.997382640838623 
v 20.916118621826172 21.695899963378906 4.113763809204102 
v 20.955930709838867 21.846694946289062 3.9676992893218994 
v 22.17034149169922 21.846694946289062 4.490035533905029 
v 22.090839385986328 21.695899963378906 4.620718479156494 
v 23.167451858520508 21.846694946289062 5.3652663230896 
v 23.049863815307617 21.695899963378906 5.463101387023926 
v 23.70115089416504 21.695899963378906 6.556148052215576 
v 18.345134735107422 21.846694946289062 4.139289855957031 
v 19.63428497314453 21.846694946289062 3.846513509750366 
v 23.844112396240234 21.846694946289062 6.501738548278809 
v 24.13688850402832 21.846694946289062 7.79088830947876 
v 23.986019134521484 21.695899963378906 7.8034749031066895 
v 24.015703201293945 21.846694946289062 9.11253547668457 
v 23.869638442993164 21.695899963378906 9.072721481323242 
v 23.493366241455078 21.846694946289062 10.326945304870605 
v 21.48166275024414 25.90326690673828 12.000715255737305 
v 21.42725372314453 26.043441772460938 11.85775375366211 
v 22.621313095092773 25.90326690673828 11.3214111328125 
v 22.523479461669922 26.043441772460938 11.20382308959961 
v 23.36268424987793 26.043441772460938 10.247444152832031 
v 19.916309356689453 26.043441772460938 8.070269584655762 
v 20.1799259185791 26.043441772460938 12.142622947692871 
v 20.19251251220703 25.90326690673828 12.293492317199707 
v 18.870866775512695 25.90326690673828 12.172306060791016 
v 18.910680770874023 26.043441772460938 12.026241302490234 
v 17.735958099365234 26.043441772460938 11.519287109375 
v 16.779579162597656 26.043441772460938 10.680082321166992 
v 17.656455993652344 25.90326690673828 11.649970054626465 
v 16.661991119384766 25.90326690673828 10.77791690826416 
v 15.982686042785645 25.90326690673828 9.638267517089844 
v 16.125648498535156 26.043441772460938 9.583857536315918 
v 15.840779304504395 26.043441772460938 8.336530685424805 
v 15.957159996032715 26.043441772460938 7.067283630371094 
v 15.689909934997559 25.90326690673828 8.349117279052734 
v 15.811095237731934 25.90326690673828 7.027470588684082 
v 16.464115142822266 26.043441772460938 5.892561912536621 
v 16.333431243896484 25.90326690673828 5.813060283660889 
v 17.303319931030273 26.043441772460938 4.936182498931885 
v 17.20548439025879 25.90326690673828 4.818594932556152 
v 18.39954376220703 26.043441772460938 4.282251834869385 
v 19.64687156677246 26.043441772460938 3.997382640838623 
v 20.916118621826172 26.043441772460938 4.113763809204102 
v 20.955930709838867 25.90326690673828 3.9676992893218994 
v 22.17034149169922 25.90326690673828 4.490035533905029 
v 22.090839385986328 26.043441772460938 4.620718479156494 
v 23.049863815307617 26.043441772460938 5.463101387023926 
v 18.345134735107422 25.90326690673828 4.139289855957031 
v 19.63428497314453 25.90326690673828 3.846513509750366 
v 23.167451858520508 25.90326690673828 5.3652663230896 
v 23.844112396240234 25.90326690673828 6.501738548278809 
v 23.70115089416504 26.043441772460938 6.556148052215576 
v 24.13688850402832 25.90326690673828 7.79088830947876 
v 23.986019134521484 26.043441772460938 7.8034749031066895 
v 24.015703201293945 25.90326690673828 9.11253547668457 
v 23.869638442993164 26.043441772460938 9.072721481323242 
v 23.493366241455078 25.90326690673828 10.326945304870605 
v 22.806909561157227 21.7436466217041 16.921138763427734 
v 22.650054931640625 21.7436466217041 17.130563735961914 
v 22.76647186279297 21.69346046447754 16.89779281616211 
v 22.60340690612793 21.69346046447754 17.1024112701416 
v 22.523855209350586 21.69346046447754 16.757719039916992 
v 22.862407684326172 21.69346046447754 16.65380859375 
v 22.858366012573242 21.69346046447754 16.474044799804688 
v 22.911334991455078 21.7436466217041 16.46011734008789 
v 22.769126892089844 21.69346046447754 16.33289337158203 
v 22.794208526611328 21.7436466217041 16.28944969177246 
v 13.612712860107422 21.7436466217041 11.072046279907227 
v 13.587631225585938 21.69346046447754 11.11548900604248 
v 13.002388954162598 21.7436466217041 10.837352752685547 
v 12.977307319641113 21.69346046447754 10.8807954788208 
v 12.714194297790527 21.7436466217041 10.69840145111084 
v 12.689376831054688 21.69346046447754 10.741386413574219 
v 12.449761390686035 21.7436466217041 10.518293380737305 
v 12.42467975616455 21.69346046447754 10.561736106872559 
v 11.957717895507812 21.7436466217041 10.07873249053955 
v 11.932636260986328 21.69346046447754 10.122175216674805 
v 9.551762580871582 21.7436466217041 8.689654350280762 
v 9.526680946350098 21.69346046447754 8.733097076416016 
v 9.346718788146973 21.7436466217041 8.67126750946045 
v 9.35361099243164 21.69346046447754 8.721585273742676 
v 9.198020935058594 21.69346046447754 8.80430793762207 
v 9.164185523986816 21.7436466217041 8.769529342651367 
v 9.051852226257324 21.69346046447754 8.979659080505371 
v 9.011415481567383 21.7436466217041 8.956313133239746 
v 8.926304817199707 21.7436466217041 9.181550025939941 
v 8.973341941833496 21.69346046447754 9.193463325500488 
v 8.932474136352539 21.7436466217041 9.38875961303711 
v 22.910112380981445 21.7436466217041 16.680130004882812 
v 9.301209449768066 21.69346046447754 9.123625755310059 
v 11.483277320861816 21.69346046447754 10.900487899780273 
v 8.979496955871582 21.69346046447754 9.369569778442383 
v 9.077322006225586 21.69346046447754 9.511409759521484 
v 9.052240371704102 21.7436466217041 9.554852485656738 
v 11.458195686340332 21.7436466217041 10.943930625915527 
v 12.108650207519531 21.69346046447754 11.109115600585938 
v 12.08356761932373 21.7436466217041 11.152558326721191 
v 12.396580696105957 21.69346046447754 11.24852466583252 
v 12.371763229370117 21.7436466217041 11.291510581970215 
v 12.661277770996094 21.69346046447754 11.428175926208496 
v 12.63619613647461 21.7436466217041 11.47161865234375 
v 13.169690132141113 21.69346046447754 11.839384078979492 
v 22.278846740722656 21.69346046447754 17.182086944580078 
v 22.44570541381836 21.69346046447754 17.188793182373047 
v 22.460128784179688 21.7436466217041 17.24163055419922 
v 13.144608497619629 21.7436466217041 11.882826805114746 
v 22.253765106201172 21.7436466217041 17.225528717041016 
v 22.806909561157227 21.7436466217041 16.921138763427734 
v 22.650054931640625 21.7436466217041 17.130563735961914 
v 22.806909561157227 21.972761154174805 16.921138763427734 
v 22.650054931640625 21.972761154174805 17.130563735961914 
v 22.460128784179688 21.7436466217041 17.24163055419922 
v 22.460128784179688 21.972761154174805 17.24163055419922 
v 22.256668090820312 21.96257972717285 17.22049903869629 
v 22.253765106201172 21.7436466217041 17.225528717041016 
v 13.144608497619629 21.7436466217041 11.882826805114746 
v 13.144608497619629 21.972761154174805 11.882826805114746 
v 12.63619613647461 21.7436466217041 11.47161865234375 
v 12.63619613647461 21.972761154174805 11.47161865234375 
v 12.371763229370117 21.7436466217041 11.291510581970215 
v 12.371763229370117 21.972761154174805 11.291510581970215 
v 12.08356761932373 21.7436466217041 11.152558326721191 
v 12.08356761932373 21.972761154174805 11.152558326721191 
v 11.461363792419434 21.969852447509766 10.938443183898926 
v 11.458195686340332 21.7436466217041 10.943930625915527 
v 9.053560256958008 21.969125747680664 9.552566528320312 
v 9.052240371704102 21.7436466217041 9.554852485656738 
v 8.932474136352539 21.947303771972656 9.38875961303711 
v 8.932474136352539 21.7436466217041 9.38875961303711 
v 8.926304817199707 21.7436466217041 9.181550025939941 
v 8.926304817199707 21.972761154174805 9.181550025939941 
v 9.011415481567383 21.972761154174805 8.956313133239746 
v 9.011415481567383 21.7436466217041 8.956313133239746 
v 22.256668090820312 21.96257972717285 17.22049903869629 
v 22.278846740722656 22.018585205078125 17.182086944580078 
v 22.44570541381836 22.02294921875 17.188793182373047 
v 22.523855209350586 22.02294921875 16.757719039916992 
v 22.60340690612793 22.018585205078125 17.1024112701416 
v 22.759733200073242 22.018585205078125 16.893901824951172 
v 22.650054931640625 21.972761154174805 17.130563735961914 
v 22.806909561157227 21.972761154174805 16.921138763427734 
v 22.910112380981445 21.972761154174805 16.680130004882812 
v 22.862407684326172 22.018585205078125 16.65380859375 
v 22.86880111694336 22.012039184570312 16.471532821655273 
v 22.460128784179688 21.972761154174805 17.24163055419922 
v 22.915822982788086 21.940757751464844 16.452342987060547 
v 22.791305541992188 21.96257972717285 16.29448127746582 
v 22.769126892089844 22.018585205078125 16.33289337158203 
v 13.612712860107422 21.972761154174805 11.072046279907227 
v 13.587631225585938 22.02294921875 11.11548900604248 
v 13.002388954162598 21.972761154174805 10.837352752685547 
v 13.169690132141113 22.02294921875 11.839384078979492 
v 12.661277770996094 22.02294921875 11.428175926208496 
v 12.63619613647461 21.972761154174805 11.47161865234375 
v 12.396580696105957 22.02294921875 11.24852466583252 
v 12.371763229370117 21.972761154174805 11.291510581970215 
v 12.108650207519531 22.02294921875 11.109115600585938 
v 12.08356761932373 21.972761154174805 11.152558326721191 
v 13.144608497619629 21.972761154174805 11.882826805114746 
v 12.689376831054688 22.02294921875 10.741386413574219 
v 12.977307319641113 22.02294921875 10.8807954788208 
v 12.714194297790527 21.972761154174805 10.69840145111084 
v 12.42467975616455 22.02294921875 10.561736106872559 
v 12.449761390686035 21.972761154174805 10.518293380737305 
v 11.927884101867676 22.013492584228516 10.130406379699707 
v 11.955605506896973 21.961851119995117 10.082390785217285 
v 9.546746253967285 21.956031799316406 8.698343276977539 
v 9.526680946350098 22.019311904907227 8.733097076416016 
v 9.358238220214844 22.011310577392578 8.729134559631348 
v 9.346718788146973 21.95676040649414 8.67126750946045 
v 9.198020935058594 22.019311904907227 8.80430793762207 
v 9.164185523986816 21.972761154174805 8.769529342651367 
v 9.051852226257324 22.019311904907227 8.979659080505371 
v 9.011415481567383 21.972761154174805 8.956313133239746 
v 8.926304817199707 21.972761154174805 9.181550025939941 
v 8.973341941833496 22.019311904907227 9.193463325500488 
v 8.932474136352539 21.947303771972656 9.38875961303711 
v 8.979496955871582 22.009857177734375 9.369569778442383 
v 9.053560256958008 21.969125747680664 9.552566528320312 
v 9.078641891479492 22.01494789123535 9.509123802185059 
v 11.461363792419434 21.969852447509766 10.938443183898926 
v 11.486445426940918 22.020038604736328 10.895000457763672 
v 11.639242172241211 22.018585205078125 10.770423889160156 
v 11.798611640930176 22.01785659790039 10.5722074508667 
v 11.890976905822754 22.016403198242188 10.318842887878418 
v 11.78523063659668 22.01494789123535 10.19072151184082 
v 11.763123512268066 22.013492584228516 10.088937759399414 
v 9.603745460510254 22.020038604736328 8.833075523376465 
v 9.484451293945312 22.009857177734375 8.83736801147461 
v 9.356959342956543 22.0062198638916 8.824732780456543 
v 9.27123737335205 22.020038604736328 8.86426067352295 
v 9.139464378356934 22.020038604736328 9.030241966247559 
v 9.0548677444458 22.020038604736328 9.22346019744873 
v 9.08040714263916 22.015674591064453 9.31929874420166 
v 9.148759841918945 22.011310577392578 9.434368133544922 
v 9.178121566772461 22.015674591064453 9.508024215698242 
v 11.343306541442871 22.019311904907227 10.753826141357422 
v 11.47500991821289 22.019311904907227 10.72804069519043 
v 22.911334991455078 21.7436466217041 16.46011734008789 
v 22.915822982788086 21.940757751464844 16.452342987060547 
v 22.794208526611328 21.7436466217041 16.28944969177246 
v 22.791305541992188 21.96257972717285 16.29448127746582 
v 13.612712860107422 21.7436466217041 11.072046279907227 
v 13.612712860107422 21.972761154174805 11.072046279907227 
v 13.002388954162598 21.7436466217041 10.837352752685547 
v 13.002388954162598 21.972761154174805 10.837352752685547 
v 12.714194297790527 21.7436466217041 10.69840145111084 
v 12.714194297790527 21.972761154174805 10.69840145111084 
v 12.449761390686035 21.7436466217041 10.518293380737305 
v 12.449761390686035 21.972761154174805 10.518293380737305 
v 11.955605506896973 21.961851119995117 10.082390785217285 
v 11.957717895507812 21.7436466217041 10.07873249053955 
v 9.546746253967285 21.956031799316406 8.698343276977539 
v 9.551762580871582 21.7436466217041 8.689654350280762 
v 9.346718788146973 21.7436466217041 8.67126750946045 
v 9.346718788146973 21.95676040649414 8.67126750946045 
v 9.164185523986816 21.7436466217041 8.769529342651367 
v 9.164185523986816 21.972761154174805 8.769529342651367 
v 9.011415481567383 21.972761154174805 8.956313133239746 
v 9.011415481567383 21.7436466217041 8.956313133239746 
v 11.663434982299805 23.13215446472168 10.806341171264648 
v 11.832836151123047 23.13215446472168 10.590747833251953 
v 11.63989543914795 23.182340621948242 10.753728866577148 
v 11.791872024536133 23.182340621948242 10.568316459655762 
v 11.798849105834961 23.182340621948242 10.213827133178711 
v 11.868131637573242 23.182340621948242 10.342846870422363 
v 11.840452194213867 23.13215446472168 10.188459396362305 
v 11.918461799621582 23.13215446472168 10.333492279052734 
v 11.728787422180176 23.182340621948242 10.117281913757324 
v 11.502106666564941 23.182340621948242 10.758928298950195 
v 11.76734733581543 23.13215446472168 10.081621170043945 
v 9.580081939697266 23.13215446472168 8.796243667602539 
v 9.56847858428955 23.182340621948242 8.847468376159668 
v 9.460648536682129 23.13215446472168 8.785212516784668 
v 9.451950073242188 23.182340621948242 8.83140754699707 
v 9.348885536193848 23.13215446472168 8.792023658752441 
v 9.355513572692871 23.182340621948242 8.842799186706543 
v 9.254993438720703 23.182340621948242 8.876832008361816 
v 9.140521049499512 23.182340621948242 9.028412818908691 
v 9.099820137023926 23.13215446472168 9.005524635314941 
v 9.070180892944336 23.182340621948242 9.196937561035156 
v 9.014959335327148 23.13215446472168 9.199199676513672 
v 9.083171844482422 23.182340621948242 9.298945426940918 
v 9.042624473571777 23.13215446472168 9.322484016418457 
v 9.116257667541504 23.13215446472168 9.428407669067383 
v 9.158125877380371 23.182340621948242 9.402582168579102 
v 9.194754600524902 23.182340621948242 9.479214668273926 
v 9.16319751739502 23.13215446472168 9.518309593200684 
v 11.332218170166016 23.13215446472168 10.773032188415527 
v 9.224853515625 23.13215446472168 8.835652351379395 
v 11.350296020507812 23.182340621948242 10.726155281066895 
v 11.493407249450684 23.13215446472168 10.805122375488281 
v 22.910112380981445 21.7436466217041 16.680130004882812 
v 22.910112380981445 21.972761154174805 16.680130004882812 
v 22.806909561157227 21.972761154174805 16.921138763427734 
v 22.806909561157227 21.7436466217041 16.921138763427734 
v 11.332218170166016 23.13215446472168 10.773032188415527 
v 9.178121566772461 22.015674591064453 9.508024215698242 
v 9.16319751739502 23.13215446472168 9.518309593200684 
v 9.116257667541504 23.13215446472168 9.428407669067383 
v 9.148759841918945 22.011310577392578 9.434368133544922 
v 9.08040714263916 22.015674591064453 9.31929874420166 
v 9.042624473571777 23.13215446472168 9.322484016418457 
v 9.0548677444458 22.020038604736328 9.22346019744873 
v 9.014959335327148 23.13215446472168 9.199199676513672 
v 9.139464378356934 22.020038604736328 9.030241966247559 
v 9.099820137023926 23.13215446472168 9.005524635314941 
v 9.27123737335205 22.020038604736328 8.86426067352295 
v 9.224853515625 23.13215446472168 8.835652351379395 
v 9.348885536193848 23.13215446472168 8.792023658752441 
v 9.356959342956543 22.0062198638916 8.824732780456543 
v 9.460648536682129 23.13215446472168 8.785212516784668 
v 9.484451293945312 22.009857177734375 8.83736801147461 
v 9.603745460510254 22.020038604736328 8.833075523376465 
v 9.580081939697266 23.13215446472168 8.796243667602539 
v 11.76734733581543 23.13215446472168 10.081621170043945 
v 11.763123512268066 22.013492584228516 10.088937759399414 
v 11.78523063659668 22.01494789123535 10.19072151184082 
v 11.840452194213867 23.13215446472168 10.188459396362305 
v 11.890976905822754 22.016403198242188 10.318842887878418 
v 11.918461799621582 23.13215446472168 10.333492279052734 
v 11.798611640930176 22.01785659790039 10.5722074508667 
v 11.832836151123047 23.13215446472168 10.590747833251953 
v 11.343306541442871 22.019311904907227 10.753826141357422 
v 11.47500991821289 22.019311904907227 10.72804069519043 
v 11.493407249450684 23.13215446472168 10.805122375488281 
v 11.639242172241211 22.018585205078125 10.770423889160156 
v 11.663434982299805 23.13215446472168 10.806341171264648 
v 11.832836151123047 23.13215446472168 10.590747833251953 
v 11.798611640930176 22.01785659790039 10.5722074508667 
vn 0.8470960259437561 0.028397228568792343 0.5306801199913025 
vn 0.6381204724311829 0.06767380982637405 0.7669563889503479 
vn 0.6391456723213196 -0.03713129088282585 0.7681885361671448 
vn 0.3678576946258545 0.01966099627315998 0.9296740293502808 
vn 0.3676750659942627 -0.03713129088282585 0.9292124509811401 
vn 0.1196453645825386 -0.03713129088282585 0.9921218752861023 
vn 0.014278898946940899 0.03713129088282585 0.9992081522941589 
vn -0.19673335552215576 -0.04586252197623253 0.9793835878372192 
vn -0.2918953001499176 0.04586252197623253 0.955349862575531 
vn -0.4916246235370636 -0.03713129088282585 0.870015025138855 
vn -0.5745336413383484 0.03713129088282585 0.8176379799842834 
vn -0.7336379885673523 -0.024029340595006943 0.6791152358055115 
vn -0.8012083768844604 0.024029340595006943 0.5979024767875671 
vn -0.9090739488601685 -0.04586252197623253 0.4141022861003876 
vn -0.9453238248825073 0.04586252197623253 0.3228917419910431 
vn -0.9929971098899841 -0.03713129088282585 0.11214962601661682 
vn -0.9992081522941589 0.03713129088282585 0.014278898946940899 
vn -0.9799495935440063 -0.03713129088282585 -0.19575409591197968 
vn -0.9538198113441467 0.03713129088282585 -0.298074871301651 
vn -0.8430643081665039 -0.028397228568792343 -0.5370621681213379 
vn -0.8445612192153931 0.05022686347365379 -0.5330977439880371 
vn -0.6788429021835327 0.03713129088282585 -0.7333438396453857 
vn -0.5976627469062805 -0.03713129088282585 -0.8008871078491211 
vn 0.8465705513954163 -0.05022686347365379 0.5299010872840881 
vn 0.9685146808624268 -0.028397228568792343 0.24733072519302368 
vn 0.9678686261177063 0.05022686347365379 0.24638822674751282 
vn 0.9992081522941589 0.03713129088282585 -0.014278898946940899 
vn 0.9921218752861023 -0.03713129088282585 -0.1196453645825386 
vn 0.9449129700660706 0.03713129088282585 -0.3252081871032715 
vn 0.9088513851165771 -0.024029340595006943 -0.4164268374443054 
vn 0.8012083768844604 0.024029340595006943 -0.5979024767875671 
vn 0.7368711233139038 -0.04586252197623253 -0.6744754910469055 
vn 0.5725188255310059 0.04586252197623253 -0.8186075687408447 
vn 0.4850403964519501 -0.03713129088282585 -0.873702883720398 
vn 0.24733072519302368 0.028397228568792343 -0.9685146808624268 
vn 0.24455830454826355 -0.05022686347365379 -0.9683326482772827 
vn -0.06708911061286926 -0.01966099627315998 -0.9975529909133911 
vn -0.0670558363199234 0.03713129088282585 -0.9970578551292419 
vn -0.3677804172039032 0.028397228568792343 -0.9294787049293518 
vn -0.37061870098114014 -0.05022686347365379 -0.9274258017539978 
vn -0.5976627469062805 -0.03713129088282585 -0.8008871078491211 
vn -0.6788429021835327 0.03713129088282585 -0.7333438396453857 
vn 0.3676750659942627 -0.03713129088282585 0.9292124509811401 
vn 0.6391456723213196 -0.03713129088282585 0.7681885361671448 
vn 0.005589138716459274 -0.999961793422699 0.006717580370604992 
vn 0.0027945959009230137 -0.9999904632568359 0.0033588220831006765 
vn -1.3223147891320425e-13 -1 -1.591024675288294e-13 
vn 0.0027945959009230137 -0.9999904632568359 0.0033588220831006765 
vn 0.1196453645825386 -0.03713129088282585 0.9921218752861023 
vn 0.0027945959009230137 -0.9999904632568359 0.0033588220831006765 
vn -0.19673335552215576 -0.04586252197623253 0.9793835878372192 
vn 0.0027945959009230137 -0.9999904632568359 0.0033588220831006765 
vn -0.0043061235919594765 -0.9999904632568359 0.0007407801458612084 
vn -0.007792857475578785 -0.999961793422699 0.003954205196350813 
vn -0.4916246235370636 -0.03713129088282585 0.870015025138855 
vn -0.7336379885673523 -0.024029340595006943 0.6791152358055115 
vn -0.9090739488601685 -0.04586252197623253 0.4141022861003876 
vn -0.0043061235919594765 -0.9999904632568359 0.0007407801458612084 
vn -0.0043061235919594765 -0.9999904632568359 0.0007407801458612084 
vn -0.0043061235919594765 -0.9999904632568359 0.0007407801458612084 
vn -0.9929971098899841 -0.03713129088282585 0.11214962601661682 
vn -0.9799495935440063 -0.03713129088282585 -0.19575409591197968 
vn -0.0043061235919594765 -0.9999904632568359 0.0007407801458612084 
vn -0.8430643081665039 -0.028397228568792343 -0.5370621681213379 
vn -0.0043061235919594765 -0.9999904632568359 0.0007407801458612084 
vn -0.5976627469062805 -0.03713129088282585 -0.8008871078491211 
vn 0.001511527574621141 -0.9999904632568359 -0.004099602345377207 
vn -0.0021209910046309233 -0.999961793422699 -0.008477367460727692 
vn 0.001511527574621141 -0.9999904632568359 -0.004099602345377207 
vn 0.24455830454826355 -0.05022686347365379 -0.9683326482772827 
vn 0.4850403964519501 -0.03713129088282585 -0.873702883720398 
vn 0.001511527574621141 -0.9999904632568359 -0.004099602345377207 
vn 0.7368711233139038 -0.04586252197623253 -0.6744754910469055 
vn 0.001511527574621141 -0.9999904632568359 -0.004099602345377207 
vn 0.008736786432564259 -0.999961793422699 -0.00018142150656785816 
vn -0.37061870098114014 -0.05022686347365379 -0.9274258017539978 
vn -0.06708911061286926 -0.01966099627315998 -0.9975529909133911 
vn 0.9088513851165771 -0.024029340595006943 -0.4164268374443054 
vn 0.9921218752861023 -0.03713129088282585 -0.1196453645825386 
vn 0.0027945959009230137 -0.9999904632568359 0.0033588220831006765 
vn 0.9685146808624268 -0.028397228568792343 0.24733072519302368 
vn 0.0027945959009230137 -0.9999904632568359 0.0033588220831006765 
vn 0.8465705513954163 -0.05022686347365379 0.5299010872840881 
vn 0.3678576946258545 0.01966099627315998 0.9296740293502808 
vn 0.005589138716459274 0.999961793422699 0.006717580370604992 
vn 0.6381204724311829 0.06767380982637405 0.7669563889503479 
vn 0.0027945959009230137 0.9999904632568359 0.0033588220831006765 
vn 0.0027945959009230137 0.9999904632568359 0.0033588220831006765 
vn -4.98404575552924e-17 1 1.1368068889769367e-16 
vn -0.0023308522067964077 0.9999904632568359 0.0036957520060241222 
vn 0.014278898946940899 0.03713129088282585 0.9992081522941589 
vn -0.2918953001499176 0.04586252197623253 0.955349862575531 
vn -0.0023308522067964077 0.9999904632568359 0.0036957520060241222 
vn -0.0023308522067964077 0.9999904632568359 0.0036957520060241222 
vn -0.005644981749355793 0.999961793422699 0.006670722737908363 
vn -0.5745336413383484 0.03713129088282585 0.8176379799842834 
vn -0.8012083768844604 0.024029340595006943 0.5979024767875671 
vn -0.9453238248825073 0.04586252197623253 0.3228917419910431 
vn -0.0023308522067964077 0.9999904632568359 0.0036957520060241222 
vn -0.004235141910612583 0.9999904632568359 -0.0010747220367193222 
vn -0.004235141910612583 0.9999904632568359 -0.0010747220367193222 
vn -0.9992081522941589 0.03713129088282585 0.014278898946940899 
vn -0.9538198113441467 0.03713129088282585 -0.298074871301651 
vn -0.004235141910612583 0.9999904632568359 -0.0010747220367193222 
vn -0.8445612192153931 0.05022686347365379 -0.5330977439880371 
vn -0.004235141910612583 0.9999904632568359 -0.0010747220367193222 
vn -0.6788429021835327 0.03713129088282585 -0.7333438396453857 
vn -0.0002866094873752445 0.9999904632568359 -0.0043599666096270084 
vn -0.002954524476081133 0.999961793422699 -0.008224058896303177 
vn -0.0002866094873752445 0.9999904632568359 -0.0043599666096270084 
vn 0.24733072519302368 0.028397228568792343 -0.9685146808624268 
vn 0.5725188255310059 0.04586252197623253 -0.8186075687408447 
vn -0.0002866094873752445 0.9999904632568359 -0.0043599666096270084 
vn 0.007586069405078888 0.999961793422699 -0.004337731748819351 
vn -0.3677804172039032 0.028397228568792343 -0.9294787049293518 
vn -0.0670558363199234 0.03713129088282585 -0.9970578551292419 
vn 0.8012083768844604 0.024029340595006943 -0.5979024767875671 
vn 0.9449129700660706 0.03713129088282585 -0.3252081871032715 
vn 0.00405800761654973 0.9999904632568359 -0.0016198856756091118 
vn 0.9992081522941589 0.03713129088282585 -0.014278898946940899 
vn 0.00405800761654973 0.9999904632568359 -0.0016198856756091118 
vn 0.9678686261177063 0.05022686347365379 0.24638822674751282 
vn 0.0027945959009230137 0.9999904632568359 0.0033588220831006765 
vn 0.8470960259437561 0.028397228568792343 0.5306801199913025 
vn 0.850606381893158 -0.1760382205247879 0.49545761942863464 
vn 0.7157549858093262 -0.15449213981628418 0.6810476779937744 
vn -1.791231686630937e-13 -1 -1.0367313290401275e-13 
vn -1.791231686630937e-13 -1 -1.0367313290401275e-13 
vn 1.7910484564637869e-13 -1 1.0314976141029969e-13 
vn -1.791231686630937e-13 -1 -1.0367313290401275e-13 
vn -1.791231686630937e-13 -1 -1.0367313290401275e-13 
vn 0.9074479937553406 -0.3239381015300751 -0.2675841450691223 
vn 0.01580980233848095 -0.999389111995697 -0.031167494133114815 
vn 0.4819086194038391 -0.2781098484992981 -0.8309140205383301 
vn 0.4698165953159332 -0.28230419754981995 -0.8364064693450928 
vn 0.0027252596337348223 -0.9999141097068787 -0.012821356765925884 
vn 0.3649016320705414 -0.1760382205247879 -0.9142518043518066 
vn 1.7910484564637869e-13 -1 1.0314976141029969e-13 
vn 0.4740974009037018 -0.1760382205247879 -0.8626941442489624 
vn -1.791231686630937e-13 -1 -1.0367313290401275e-13 
vn 0.6051914095878601 -0.17173540592193604 -0.7773347496986389 
vn -1.791231686630937e-13 -1 -1.0367313290401275e-13 
vn 0.5184040665626526 -0.2060592919588089 -0.829937219619751 
vn 0.00594380171969533 -0.999961793422699 -0.0064058988355100155 
vn 0.4381026029586792 -0.40926313400268555 -0.8003555536270142 
vn 0.003783989464864135 -0.9999904632568359 -0.0021846890449523926 
vn -0.20004823803901672 -0.16742929816246033 -0.9653741121292114 
vn 1.7910484564637869e-13 -1 1.0314976141029969e-13 
vn 1.7910484564637869e-13 -1 1.0314976141029969e-13 
vn -0.6530335545539856 -0.0763898640871048 -0.7534658312797546 
vn 1.7910484564637869e-13 -1 1.0314976141029969e-13 
vn -0.8618433475494385 -0.0981530249118805 -0.49758514761924744 
vn -0.9790374636650085 -0.0763898640871048 -0.18881016969680786 
vn 1.7910484564637869e-13 -1 1.0314976141029969e-13 
vn -0.9472146034240723 -0.21886809170246124 0.2342652976512909 
vn 0.9448643922805786 -0.15880759060382843 0.2863747179508209 
vn 1.7910484564637869e-13 -1 1.0314976141029969e-13 
vn 1.183789399838986e-9 -0.9999904632568359 0.004369375761598349 
vn 1.7910484564637869e-13 -1 1.0314976141029969e-13 
vn 1.183789399838986e-9 -0.9999904632568359 0.004369375761598349 
vn -0.48067745566368103 -0.401274174451828 0.7796970009803772 
vn -0.45954418182373047 -0.2060592919588089 0.8639199733734131 
vn 1.183789399838986e-9 -0.9999904632568359 0.004369375761598349 
vn -0.37059542536735535 -0.17173540592193604 0.9127787351608276 
vn -1.791231686630937e-13 -1 -1.0367313290401275e-13 
vn -0.5100657939910889 -0.1760382205247879 0.8419277667999268 
vn 1.183789399838986e-9 -0.9999904632568359 0.004369375761598349 
vn -0.6093140244483948 -0.1760382205247879 0.7731403112411499 
vn -0.0025757653638720512 -0.999961793422699 0.008350434713065624 
vn -0.019086923450231552 -0.999389111995697 0.029275448992848396 
vn -1.791231686630937e-13 -1 -1.0367313290401275e-13 
vn 0.3213076889514923 -0.1111890971660614 0.9404239654541016 
vn -0.4894404411315918 -0.28230419754981995 0.8250766396522522 
vn -0.47638756036758423 -0.28230419754981995 0.83268141746521 
vn 0.850606381893158 -0.1760382205247879 0.49545761942863464 
vn 0.7157549858093262 -0.15449213981628418 0.6810476779937744 
vn 0.861463725566864 0.10250037163496017 0.4973659813404083 
vn 0.6364444494247437 0.17173540592193604 0.7519603967666626 
vn 0.3213076889514923 -0.1111890971660614 0.9404239654541016 
vn 0.31636613607406616 0.17173540592193604 0.9329621195793152 
vn -0.49758514761924744 0.0981530249118805 0.8618433475494385 
vn -0.47638756036758423 -0.28230419754981995 0.83268141746521 
vn -0.4894404411315918 -0.28230419754981995 0.8250766396522522 
vn -0.5091490149497986 0.24437066912651062 0.8252571225166321 
vn -0.6093140244483948 -0.1760382205247879 0.7731403112411499 
vn -0.5819308161735535 0.23588760197162628 0.7782754302024841 
vn -0.5100657939910889 -0.1760382205247879 0.8419277667999268 
vn -0.4707847535610199 0.1760382205247879 0.8645064234733582 
vn -0.37059542536735535 -0.17173540592193604 0.9127787351608276 
vn -0.3485444188117981 0.3280687630176544 0.8780015707015991 
vn -0.4338376522064209 0.2781098484992981 0.856994092464447 
vn -0.45954418182373047 -0.2060592919588089 0.8639199733734131 
vn -0.5123786330223083 0.1242060661315918 0.8497294187545776 
vn -0.48067745566368103 -0.401274174451828 0.7796970009803772 
vn -0.9673358798027039 0.10250037163496017 0.23184894025325775 
vn -0.9472146034240723 -0.21886809170246124 0.2342652976512909 
vn -0.9790374636650085 -0.0763898640871048 -0.18881016969680786 
vn -0.9718579053878784 0.1458524912595749 -0.18498192727565765 
vn -0.8649320006370544 0.05022686347365379 -0.4993683993816376 
vn -0.8618433475494385 -0.0981530249118805 -0.49758514761924744 
vn -0.49758514761924744 0.0981530249118805 0.8618433475494385 
vn -0.09286065399646759 0.983208417892456 0.15709251165390015 
vn 0.012494813650846481 0.9855159521102905 0.16912172734737396 
vn 9.162846735733623e-18 1 2.6168548215873655e-16 
vn 0.1710766702890396 0.9702134728431702 0.17151840031147003 
vn 0.3107677400112152 0.933397650718689 0.17942172288894653 
vn 0.6364444494247437 0.17173540592193604 0.7519603967666626 
vn 0.861463725566864 0.10250037163496017 0.4973659813404083 
vn 0.9186180233955383 0.2948545813560486 0.26306045055389404 
vn 0.18519192934036255 0.9815762042999268 0.04703269898891449 
vn 0.26318883895874023 0.961154580116272 -0.08314719051122665 
vn 0.31636613607406616 0.17173540592193604 0.9329621195793152 
vn 0.9540681838989258 0.08945280313491821 -0.2859214246273041 
vn 0.4973659813404083 0.10250037163496017 -0.861463725566864 
vn 0.08961568027734756 0.983208417892456 -0.15896598994731903 
vn 0.4601185917854309 0.24437066912651062 -0.8535647988319397 
vn 0.008738329634070396 0.9998472929000854 -0.01513524167239666 
vn 0.38304033875465393 0.23588760197162628 -0.8931047916412354 
vn -0.011526905931532383 0.9996563792228699 0.023542925715446472 
vn -0.0032470780424773693 0.9999904632568359 0.002923683961853385 
vn -0.5819308161735535 0.23588760197162628 0.7782754302024841 
vn -0.0032470780424773693 0.9999904632568359 0.002923683961853385 
vn -0.4707847535610199 0.1760382205247879 0.8645064234733582 
vn -0.0032470780424773693 0.9999904632568359 0.002923683961853385 
vn -0.3485444188117981 0.3280687630176544 0.8780015707015991 
vn -0.5091490149497986 0.24437066912651062 0.8252571225166321 
vn 0.0009084430639632046 0.9999904632568359 -0.0042738947086036205 
vn 0.0009084430639632046 0.9999904632568359 -0.0042738947086036205 
vn 0.513291597366333 0.1760382205247879 -0.8399650454521179 
vn 0.002988798078149557 0.999961793422699 -0.008211662992835045 
vn 0.5988773703575134 0.24437066912651062 -0.7626453042030334 
vn 0.267017662525177 0.8612531423568726 -0.4323705732822418 
vn 0.5407804250717163 0.18892620503902435 -0.819672167301178 
vn 0.4637744724750519 0.1975002884864807 -0.8636584281921387 
vn 0.19975163042545319 0.9078915119171143 -0.36855414509773254 
vn -0.03258635848760605 0.9349566102027893 -0.3532620668411255 
vn -0.3448823392391205 0.1242060661315918 -0.9303913116455078 
vn -0.1162831261754036 0.9712626934051514 -0.20767036080360413 
vn -0.646538496017456 0.1415284425020218 -0.7496377229690552 
vn -0.267976313829422 0.9509214162826538 -0.15471608936786652 
vn -0.8649320006370544 0.05022686347365379 -0.4993683993816376 
vn -0.9718579053878784 0.1458524912595749 -0.18498192727565765 
vn -0.2379893660545349 0.9712626934051514 0.003131180303171277 
vn -0.9673358798027039 0.10250037163496017 0.23184894025325775 
vn -0.18645155429840088 0.9771679639816284 0.10187505930662155 
vn -0.5123786330223083 0.1242060661315918 0.8497294187545776 
vn -0.2220170795917511 0.9023185968399048 0.36949872970581055 
vn -0.4338376522064209 0.2781098484992981 0.856994092464447 
vn -0.16788555681705475 0.916832447052002 0.36226028203964233 
vn -0.00298880273476243 0.999961793422699 -0.008211660198867321 
vn -0.007567909546196461 0.999961793422699 -0.004369331523776054 
vn -0.006553899962455034 0.9999141097068787 -0.011351680383086205 
vn 0.008738329634070396 0.9998472929000854 -0.01513524167239666 
vn 0.006553892977535725 0.9999141097068787 -0.011351684108376503 
vn 0.002988798078149557 0.999961793422699 -0.008211662992835045 
vn -0.056401994079351425 0.9965559244155884 0.06078692898154259 
vn 0.04090680927038193 0.9990455508232117 0.015315834432840347 
vn 0.022411048412322998 0.9988451600074768 -0.04249759763479233 
vn -0.007567909546196461 0.999961793422699 -0.004369331523776054 
vn -0.025598449632525444 0.9988451600074768 0.04065735265612602 
vn -0.030566638335585594 0.9981296062469482 0.05294300615787506 
vn -0.016234150156378746 0.9997613430023193 0.01461730245500803 
vn -0.0056171054020524025 0.999961793422699 0.006694209761917591 
vn -0.0032470780424773693 0.9999904632568359 0.002923683961853385 
vn 0.0009084430639632046 0.9999904632568359 -0.0042738947086036205 
vn 0.9074479937553406 -0.3239381015300751 -0.2675841450691223 
vn 0.9540681838989258 0.08945280313491821 -0.2859214246273041 
vn 0.4819086194038391 -0.2781098484992981 -0.8309140205383301 
vn 0.4973659813404083 0.10250037163496017 -0.861463725566864 
vn 0.4698165953159332 -0.28230419754981995 -0.8364064693450928 
vn 0.4601185917854309 0.24437066912651062 -0.8535647988319397 
vn 0.3649016320705414 -0.1760382205247879 -0.9142518043518066 
vn 0.38304033875465393 0.23588760197162628 -0.8931047916412354 
vn 0.4740974009037018 -0.1760382205247879 -0.8626941442489624 
vn 0.513291597366333 0.1760382205247879 -0.8399650454521179 
vn 0.6051914095878601 -0.17173540592193604 -0.7773347496986389 
vn 0.5988773703575134 0.24437066912651062 -0.7626453042030334 
vn 0.5407804250717163 0.18892620503902435 -0.819672167301178 
vn 0.5184040665626526 -0.2060592919588089 -0.829937219619751 
vn 0.4637744724750519 0.1975002884864807 -0.8636584281921387 
vn 0.4381026029586792 -0.40926313400268555 -0.8003555536270142 
vn -0.20004823803901672 -0.16742929816246033 -0.9653741121292114 
vn -0.3448823392391205 0.1242060661315918 -0.9303913116455078 
vn -0.6530335545539856 -0.0763898640871048 -0.7534658312797546 
vn -0.646538496017456 0.1415284425020218 -0.7496377229690552 
vn -0.8649320006370544 0.05022686347365379 -0.4993683993816376 
vn -0.8618433475494385 -0.0981530249118805 -0.49758514761924744 
vn 0.5405429005622864 0.03276457265019417 0.8406776189804077 
vn 0.8476220965385437 0.04586252197623253 0.5286136269569397 
vn 0.005617109127342701 0.999961793422699 0.006694206036627293 
vn 0.0017771864077076316 0.9999904632568359 0.003991622943431139 
vn 9.162846735733623e-18 1 2.6168548215873655e-16 
vn 0.00860590860247612 0.999961793422699 0.001517451019026339 
vn 0.8285012245178223 0.01966099627315998 -0.5596410632133484 
vn 0.9882307052612305 0.002184694167226553 0.1529519408941269 
vn 0.006553892977535725 0.9999141097068787 -0.011351684108376503 
vn 9.162846735733623e-18 1 2.6168548215873655e-16 
vn 0.5258965492248535 0.010923261754214764 -0.8504777550697327 
vn 0.48751696944236755 0.0633138045668602 -0.870814323425293 
vn 0.002988798078149557 0.999961793422699 -0.008211662992835045 
vn 0.040264762938022614 -0.006554040592163801 -0.9991670250892639 
vn 9.162846735733623e-18 1 2.6168548215873655e-16 
vn -0.2660294771194458 0.024029340595006943 -0.9636648297309875 
vn 9.162846735733623e-18 1 2.6168548215873655e-16 
vn -0.007567909546196461 0.999961793422699 -0.004369331523776054 
vn 9.162846735733623e-18 1 2.6168548215873655e-16 
vn -0.8464820384979248 0.010923261754214764 -0.5323042273521423 
vn -0.003783990629017353 0.9999904632568359 -0.0021846864838153124 
vn -0.9665715098381042 -0.002184694167226553 -0.2563856542110443 
vn 9.162846735733623e-18 1 2.6168548215873655e-16 
vn -0.9332162737846375 0.002184694167226553 0.35930702090263367 
vn -0.8645962476730347 0.01966099627315998 0.5020813941955566 
vn 9.162846735733623e-18 1 2.6168548215873655e-16 
vn -0.010922599583864212 0.9997613430023193 0.018918510526418686 
vn -0.5192803740501404 0.028397228568792343 0.8541314005851746 
vn -0.4801137447357178 0.024029340595006943 0.8768764734268188 
vn -0.6498291492462158 -0.002184694167226553 -0.7600765228271484 
vn -0.008738329634070396 0.9998472929000854 0.01513524167239666 
vn -0.13800901174545288 0.002184694167226553 0.9904280304908752 
vn 0.9448643922805786 -0.15880759060382843 0.2863747179508209 
vn 0.9186180233955383 0.2948545813560486 0.26306045055389404 
vn 0.861463725566864 0.10250037163496017 0.4973659813404083 
vn 0.850606381893158 -0.1760382205247879 0.49545761942863464 
vn -0.4801137447357178 0.024029340595006943 0.8768764734268188 
vn -0.5193895101547241 -0.01966099627315998 0.8543108105659485 
vn -0.5192803740501404 0.028397228568792343 0.8541314005851746 
vn -0.8645962476730347 0.01966099627315998 0.5020813941955566 
vn -0.8828495144844055 -0.024029340595006943 0.4690397381782532 
vn -0.8791815042495728 -0.028397228568792343 0.4756389856338501 
vn -0.9332162737846375 0.002184694167226553 0.35930702090263367 
vn -0.9954808354377747 -0.04149730131030083 -0.08540983498096466 
vn -0.9665715098381042 -0.002184694167226553 -0.2563856542110443 
vn -0.8835213780403137 -0.04149730131030083 -0.4665479362010956 
vn -0.8464820384979248 0.010923261754214764 -0.5323042273521423 
vn -0.6719116568565369 -0.04149730131030083 -0.739467203617096 
vn -0.6498291492462158 -0.002184694167226553 -0.7600765228271484 
vn -0.2660294771194458 0.024029340595006943 -0.9636648297309875 
vn -0.09544605016708374 -0.03713129088282585 -0.9947413206100464 
vn 0.040264762938022614 -0.006554040592163801 -0.9991670250892639 
vn 0.04907463863492012 -0.04586252197623253 -0.9977410435676575 
vn 0.4868057370185852 -0.0152922747656703 -0.8733758330345154 
vn 0.48751696944236755 0.0633138045668602 -0.870814323425293 
vn 0.5258965492248535 0.010923261754214764 -0.8504777550697327 
vn 0.5259166955947876 -0.006554040592163801 -0.8505102396011353 
vn 0.8604841232299805 -0.03276457265019417 -0.5084215998649597 
vn 0.8285012245178223 0.01966099627315998 -0.5596410632133484 
vn 0.9848554134368896 -0.03276457265019417 -0.1702505350112915 
vn 0.9882307052612305 0.002184694167226553 0.1529519408941269 
vn 0.8975008130073547 -0.03276457265019417 0.4397928714752197 
vn 0.8476220965385437 0.04586252197623253 0.5286136269569397 
vn -0.4668598771095276 -0.01966099627315998 0.8841121196746826 
vn -0.09801050275564194 -0.05022686347365379 0.9939165711402893 
vn -0.13800901174545288 0.002184694167226553 0.9904280304908752 
vn 0.49127528071403503 -0.04586252197623253 0.8697954416275024 
vn 0.5405429005622864 0.03276457265019417 0.8406776189804077 
vn 0.8476220965385437 0.04586252197623253 0.5286136269569397 
vn 0.8975008130073547 -0.03276457265019417 0.4397928714752197 
vt 0.5497944951057434 0.15687121450901031 
vt 0.5000613331794739 0.15687121450901031 
vt 0.5000613331794739 0.004378980025649071 
vt 0.45020654797554016 0.15687121450901031 
vt 0.45020654797554016 0.004378980025649071 
vt 0.40035176277160645 0.004378980025649071 
vt 0.40035176277160645 0.15687121450901031 
vt 0.3506186008453369 0.004378980025649071 
vt 0.3506186008453369 0.15687121450901031 
vt 0.3007638156414032 0.004378980025649071 
vt 0.3007638156414032 0.15687121450901031 
vt 0.25103065371513367 0.004378980025649071 
vt 0.25103065371513367 0.15687121450901031 
vt 0.20117588341236115 0.004378980025649071 
vt 0.20117588341236115 0.15687121450901031 
vt 0.15144270658493042 0.004378980025649071 
vt 0.15144270658493042 0.15687121450901031 
vt 0.1015879437327385 0.004378980025649071 
vt 0.1015879437327385 0.15687121450901031 
vt 0.05185477063059807 0.004378980025649071 
vt 0.05185477063059807 0.15687121450901031 
vt 0.0020000000949949026 0.15687121450901031 
vt 0.0020000000949949026 0.004378980025649071 
vt 0.5497944951057434 0.004378980025649071 
vt 0.5996492505073547 0.004378980025649071 
vt 0.5996492505073547 0.15687121450901031 
vt 0.6493824124336243 0.15687121450901031 
vt 0.6493824124336243 0.004378980025649071 
vt 0.6992372274398804 0.15687121450901031 
vt 0.6992372274398804 0.004378980025649071 
vt 0.7489703893661499 0.15687121450901031 
vt 0.7489703893661499 0.004378980025649071 
vt 0.7988251447677612 0.15687121450901031 
vt 0.7988251447677612 0.004378980025649071 
vt 0.8485583066940308 0.15687121450901031 
vt 0.8485583066940308 0.004378980025649071 
vt 0.8984130620956421 0.004378980025649071 
vt 0.8984130620956421 0.15687121450901031 
vt 0.9481462836265564 0.15687121450901031 
vt 0.9481462836265564 0.004378980025649071 
vt 0.9980010390281677 0.004378980025649071 
vt 0.9980010390281677 0.15687121450901031 
vt 0.37676194310188293 0.8545411229133606 
vt 0.3858817219734192 0.7975056767463684 
vt 0.36800697445869446 0.851677417755127 
vt 0.37664034962654114 0.7975056767463684 
vt 0.20141908526420593 0.7971476912498474 
vt 0.36825016140937805 0.7433339357376099 
vt 0.3504970073699951 0.905968427658081 
vt 0.3429579734802246 0.9004796743392944 
vt 0.30951881408691406 0.9466569423675537 
vt 0.30416855216026306 0.939139723777771 
vt 0.2551649510860443 0.9639584422111511 
vt 0.20105428993701935 0.9724302291870117 
vt 0.2580832839012146 0.9727882146835327 
vt 0.20105428993701935 0.9817373156547546 
vt 0.1440252959728241 0.972549557685852 
vt 0.1468220204114914 0.9637198448181152 
vt 0.09806162863969803 0.93878173828125 
vt 0.059393782168626785 0.8998830914497375 
vt 0.09258976578712463 0.9461796283721924 
vt 0.05185477063059807 0.9053718447685242 
vt 0.03458799421787262 0.850961446762085 
vt 0.025711415335536003 0.8538251519203186 
vt 0.02607620507478714 0.7967897653579712 
vt 0.016834834590554237 0.7967897653579712 
vt 0.03483118861913681 0.7426180243492126 
vt 0.05975857377052307 0.6938157081604004 
vt 0.0986696183681488 0.6551557183265686 
vt 0.09319774806499481 0.6476384997367859 
vt 0.14475487172603607 0.6215071678161621 
vt 0.14755161106586456 0.6303369402885437 
vt 0.20178386569023132 0.612558126449585 
vt 0.20178386569023132 0.6218651533126831 
vt 0.2558945417404175 0.6305755972862244 
vt 0.025954609736800194 0.739754319190979 
vt 0.05234115943312645 0.6883269548416138 
vt 0.25881287455558777 0.6217458248138428 
vt 0.31012681126594543 0.6479964256286621 
vt 0.30465492606163025 0.6555137038230896 
vt 0.3508617877960205 0.6889235377311707 
vt 0.3434443771839142 0.694412350654602 
vt 0.3770051598548889 0.7404702305793762 
vt 0.5857871770858765 0.330721914768219 
vt 0.5753298401832581 0.3340629041194916 
vt 0.5969741344451904 0.40088266134262085 
vt 0.5859087705612183 0.40088266134262085 
vt 0.5754514336585999 0.4677024185657501 
vt 0.3698309361934662 0.4010019898414612 
vt 0.5445657968521118 0.27392512559890747 
vt 0.5535640120506287 0.26736247539520264 
vt 0.5032228231430054 0.21724765002727509 
vt 0.4967781901359558 0.22619672119617462 
vt 0.4364660680294037 0.1955312192440033 
vt 0.3697093427181244 0.1850309669971466 
vt 0.43987080454826355 0.1850309669971466 
vt 0.3697093427181244 0.17393411695957184 
vt 0.29954785108566284 0.18515029549598694 
vt 0.3029525876045227 0.19565054774284363 
vt 0.24276205897331238 0.22631603479385376 
vt 0.19497443735599518 0.27416375279426575 
vt 0.23631742596626282 0.21736696362495422 
vt 0.1860978603363037 0.26772043108940125 
vt 0.16433200240135193 0.3344208598136902 
vt 0.15387465059757233 0.33096057176589966 
vt 0.15375305712223053 0.40124061703681946 
vt 0.14280933141708374 0.40124061703681946 
vt 0.16445359587669373 0.4679410755634308 
vt 0.19521763920783997 0.5281981825828552 
vt 0.24300526082515717 0.5759265422821045 
vt 0.2365606129169464 0.5848756432533264 
vt 0.2999126613140106 0.6170923113822937 
vt 0.3033173680305481 0.606592059135437 
vt 0.3700741231441498 0.6170923113822937 
vt 0.15399624407291412 0.4714013636112213 
vt 0.1862194538116455 0.5346415042877197 
vt 0.3700741231441498 0.6280698180198669 
vt 0.44023558497428894 0.6169729828834534 
vt 0.43683087825775146 0.6064727306365967 
vt 0.503466010093689 0.5846369862556458 
vt 0.4970213770866394 0.5756879448890686 
vt 0.5536856055259705 0.5344028472900391 
vt 0.5448089838027954 0.5278401970863342 
vt 0.5859087705612183 0.4710434079170227 
vt 0.9554041028022766 0.17453835904598236 
vt 0.9684669971466064 0.17636162042617798 
vt 0.9554041028022766 0.17798228561878204 
vt 0.9680291414260864 0.17970424890518188 
vt 0.9554041028022766 0.1916567087173462 
vt 0.9428520798683167 0.17970424890518188 
vt 0.9354084134101868 0.18436367809772491 
vt 0.9328542351722717 0.182033970952034 
vt 0.9317595958709717 0.1916567087173462 
vt 0.9284756183624268 0.19135282933712006 
vt 0.9311027526855469 0.7094613909721375 
vt 0.9347516298294067 0.7094613909721375 
vt 0.9365760684013367 0.7410644888877869 
vt 0.9400059580802917 0.7409632205963135 
vt 0.9374517798423767 0.7567647695541382 
vt 0.9409546852111816 0.7567647695541382 
vt 0.9363571405410767 0.7724650502204895 
vt 0.9397870302200317 0.7725663185119629 
vt 0.9296432137489319 0.8040681481361389 
vt 0.9331461191177368 0.8041694164276123 
vt 0.9295702576637268 0.9407110214233398 
vt 0.9330002069473267 0.9404071569442749 
vt 0.9341678023338318 0.9499286413192749 
vt 0.9367949962615967 0.9475988745689392 
vt 0.9440196752548218 0.9523596167564392 
vt 0.9430710077285767 0.9557022452354431 
vt 0.9550392031669617 0.9540815949440002 
vt 0.9550392031669617 0.9575254917144775 
vt 0.9670074582099915 0.9557022452354431 
vt 0.9659857749938965 0.9524609446525574 
vt 0.9759106636047363 0.9499286413192749 
vt 0.9424142241477966 0.17636162042617798 
vt 0.9550392031669617 0.9404071569442749 
vt 0.9772242307662964 0.8041694164276123 
vt 0.9732105135917664 0.9477002024650574 
vt 0.9769323468208313 0.9405084848403931 
vt 0.9803622364997864 0.940812349319458 
vt 0.9806541800498962 0.8041694164276123 
vt 0.9708022475242615 0.772667646408081 
vt 0.9742321968078613 0.7725663185119629 
vt 0.9698535799980164 0.7567647695541382 
vt 0.9734294414520264 0.7567647695541382 
vt 0.9708752632141113 0.7409632205963135 
vt 0.9742321968078613 0.7410644888877869 
vt 0.9761295914649963 0.7094613909721375 
vt 0.9791216254234314 0.1916567087173462 
vt 0.9753997921943665 0.18436367809772491 
vt 0.9779540300369263 0.182033970952034 
vt 0.9797054529190063 0.7095627188682556 
vt 0.9824056029319763 0.19135282933712006 
vt 0.7887976169586182 0.9961177706718445 
vt 0.7887976169586182 0.9830511212348938 
vt 0.7779970169067383 0.9961177706718445 
vt 0.7779970169067383 0.9830511212348938 
vt 0.7887976169586182 0.9721115827560425 
vt 0.7779970169067383 0.9721115827560425 
vt 0.7779970169067383 0.9618811011314392 
vt 0.7887976169586182 0.9618811011314392 
vt 0.7887976169586182 0.43506139516830444 
vt 0.7779970169067383 0.43506139516830444 
vt 0.7887976169586182 0.40254664421081543 
vt 0.7779970169067383 0.40254664421081543 
vt 0.7887976169586182 0.3864412307739258 
vt 0.7779970169067383 0.3864412307739258 
vt 0.7887976169586182 0.37033578753471375 
vt 0.7779970169067383 0.37033578753471375 
vt 0.7779970169067383 0.3375172019004822 
vt 0.7887976169586182 0.3375172019004822 
vt 0.7779970169067383 0.1988484412431717 
vt 0.7887976169586182 0.1988484412431717 
vt 0.7779970169067383 0.18882052600383759 
vt 0.7887976169586182 0.18882052600383759 
vt 0.7887976169586182 0.17838746309280396 
vt 0.7779970169067383 0.17838746309280396 
vt 0.7779970169067383 0.16643500328063965 
vt 0.7887976169586182 0.16643500328063965 
vt 0.8508280515670776 0.189732164144516 
vt 0.8541120290756226 0.19003602862358093 
vt 0.8578338623046875 0.18284431099891663 
vt 0.8778295516967773 0.19003602862358093 
vt 0.8652775287628174 0.17828616499900818 
vt 0.8779025673866272 0.17656420171260834 
vt 0.8648396730422974 0.1748422384262085 
vt 0.8779025673866272 0.17312027513980865 
vt 0.8909654021263123 0.17494352161884308 
vt 0.8905275464057922 0.17838746309280396 
vt 0.8981901407241821 0.1825404316186905 
vt 0.8552796840667725 0.18051458895206451 
vt 0.901474118232727 0.17990683019161224 
vt 0.904831051826477 0.18983344733715057 
vt 0.9015470743179321 0.1901373267173767 
vt 0.902057945728302 0.7082459330558777 
vt 0.898482084274292 0.7081446051597595 
vt 0.8965116739273071 0.7398490309715271 
vt 0.8571041226387024 0.7081446051597595 
vt 0.8622124791145325 0.7397477030754089 
vt 0.8587825894355774 0.7398490309715271 
vt 0.8631612062454224 0.7556505799293518 
vt 0.8596583008766174 0.7556505799293518 
vt 0.8619205951690674 0.7715533971786499 
vt 0.8583447337150574 0.7714521288871765 
vt 0.8535282015800476 0.7082459330558777 
vt 0.8920601010322571 0.7555492520332336 
vt 0.893081784248352 0.7397477030754089 
vt 0.8956359624862671 0.7555492520332336 
vt 0.893081784248352 0.7713508009910583 
vt 0.8965116739273071 0.7713508009910583 
vt 0.8992118239402771 0.8030552268028259 
vt 0.902860701084137 0.8029538989067078 
vt 0.902860701084137 0.9396981000900269 
vt 0.8992847800254822 0.9393942356109619 
vt 0.8958548903465271 0.946586012840271 
vt 0.8989928960800171 0.9490169882774353 
vt 0.8891410231590271 0.9519544839859009 
vt 0.8903086185455322 0.9550945162773132 
vt 0.8783404231071472 0.9540815949440002 
vt 0.8783404231071472 0.9574242234230042 
vt 0.8662992119789124 0.9552971124649048 
vt 0.8673938512802124 0.9521570205688477 
vt 0.8573230504989624 0.9495234489440918 
vt 0.8604610562324524 0.9470924735069275 
vt 0.8539660573005676 0.9400020241737366 
vt 0.8572500348091125 0.939799427986145 
vt 0.8537471294403076 0.8033590912818909 
vt 0.8570311069488525 0.8033590912818909 
vt 0.8657153844833374 0.799712598323822 
vt 0.8775376677513123 0.7975854277610779 
vt 0.8903816342353821 0.799712598323822 
vt 0.893081784248352 0.8076133728027344 
vt 0.8968765735626221 0.8107534050941467 
vt 0.8968765735626221 0.933316707611084 
vt 0.8938115239143372 0.9384826421737671 
vt 0.8916952013969421 0.9446614384651184 
vt 0.8881922960281372 0.9475988745689392 
vt 0.8782674074172974 0.9493208527565002 
vt 0.8682695627212524 0.9478014707565308 
vt 0.8651315569877625 0.944560170173645 
vt 0.8622124791145325 0.9383813142776489 
vt 0.8598042726516724 0.9352412819862366 
vt 0.8596583008766174 0.8125766515731812 
vt 0.8639639616012573 0.8076133728027344 
vt 0.8276943564414978 0.19408771395683289 
vt 0.8169667720794678 0.19408771395683289 
vt 0.8276943564414978 0.20421691238880157 
vt 0.8169667720794678 0.20421691238880157 
vt 0.8276943564414978 0.7275927066802979 
vt 0.8169667720794678 0.7275927066802979 
vt 0.8276943564414978 0.7599048018455505 
vt 0.8169667720794678 0.7599048018455505 
vt 0.8276943564414978 0.7759089469909668 
vt 0.8169667720794678 0.7759089469909668 
vt 0.8276943564414978 0.7919130921363831 
vt 0.8169667720794678 0.7919130921363831 
vt 0.8169667720794678 0.8245291113853455 
vt 0.8276943564414978 0.8245291113853455 
vt 0.8169667720794678 0.9622862339019775 
vt 0.8276943564414978 0.9622862339019775 
vt 0.8276943564414978 0.9722128510475159 
vt 0.8169667720794678 0.9722128510475159 
vt 0.8276943564414978 0.9826459288597107 
vt 0.8169667720794678 0.9826459288597107 
vt 0.8169667720794678 0.9944971203804016 
vt 0.8276943564414978 0.9944971203804016 
vt 0.6610149145126343 0.9009032845497131 
vt 0.6650286316871643 0.9253146648406982 
vt 0.6557605266571045 0.904549777507782 
vt 0.6588985919952393 0.9252133965492249 
vt 0.6448869705200195 0.9527648091316223 
vt 0.6548848152160645 0.945573091506958 
vt 0.6479520201683044 0.958031952381134 
vt 0.6600661873817444 0.9493208527565002 
vt 0.6356189250946045 0.957019031047821 
vt 0.6456167697906494 0.8980671167373657 
vt 0.6372973918914795 0.9631978869438171 
vt 0.41325798630714417 0.9644134044647217 
vt 0.4146445393562317 0.9583358764648438 
vt 0.40296822786331177 0.9599565267562866 
vt 0.4057413637638092 0.9544867873191833 
vt 0.3947947919368744 0.9540815949440002 
vt 0.39873555302619934 0.9493208527565002 
vt 0.39275145530700684 0.9422304034233093 
vt 0.3907080888748169 0.9257198572158813 
vt 0.3846510052680969 0.9257198572158813 
vt 0.3928244113922119 0.9099183082580566 
vt 0.38720518350601196 0.9067782163619995 
vt 0.3983706831932068 0.9026252627372742 
vt 0.3945029079914093 0.8978645205497742 
vt 0.40515753626823425 0.8923947811126709 
vt 0.4081496000289917 0.8978645205497742 
vt 0.4144256114959717 0.8939141631126404 
vt 0.4127471446990967 0.8878366351127625 
vt 0.6343783140182495 0.8876340389251709 
vt 0.3870592415332794 0.9446614384651184 
vt 0.6332836151123047 0.8939141631126404 
vt 0.6480979919433594 0.8924960494041443 
vt 0.8276943564414978 0.18304689228534698 
vt 0.8169667720794678 0.18304689228534698 
vt 0.8169667720794678 0.1699802130460739 
vt 0.8276943564414978 0.1699802130460739 
vt 0.6349620819091797 0.7826955318450928 
vt 0.7328242659568787 0.5626893043518066 
vt 0.6349620819091797 0.5626893043518066 
vt 0.6349620819091797 0.5548897981643677 
vt 0.7328242659568787 0.5548897981643677 
vt 0.7328242659568787 0.5429373383522034 
vt 0.6349620819091797 0.5429373383522034 
vt 0.7328242659568787 0.5333146452903748 
vt 0.6349620819091797 0.5333146452903748 
vt 0.7328242659568787 0.5146768689155579 
vt 0.6349620819091797 0.5146768689155579 
vt 0.7328242659568787 0.4961404502391815 
vt 0.6349620819091797 0.4961404502391815 
vt 0.6349620819091797 0.4861125648021698 
vt 0.7328242659568787 0.4861125648021698 
vt 0.6349620819091797 0.4754768908023834 
vt 0.7328242659568787 0.4754768908023834 
vt 0.7328242659568787 0.46473994851112366 
vt 0.6349620819091797 0.46473994851112366 
vt 0.6349620819091797 0.24361950159072876 
vt 0.7328242659568787 0.24361950159072876 
vt 0.7328242659568787 0.2337941825389862 
vt 0.6349620819091797 0.2337941825389862 
vt 0.7328242659568787 0.21920813620090485 
vt 0.6349620819091797 0.21920813620090485 
vt 0.7328242659568787 0.1955057978630066 
vt 0.6349620819091797 0.1955057978630066 
vt 0.7328242659568787 0.7826955318450928 
vt 0.7328242659568787 0.7953570485115051 
vt 0.6349620819091797 0.7953570485115051 
vt 0.7328242659568787 0.8099430799484253 
vt 0.6349620819091797 0.8099430799484253 
vt 0.6349620819091797 0.8331389427185059 
vt 0.7328242659568787 0.8331389427185059 
s on 
f 1/1/1 2/2/2 3/3/3 
f 2/2/2 4/4/4 3/3/3 
f 3/3/3 4/4/4 5/5/5 
f 4/4/4 4/4/4 5/5/5 
f 5/5/5 4/4/4 6/6/6 
f 4/4/4 7/7/7 6/6/6 
f 6/6/6 7/7/7 8/8/8 
f 7/7/7 9/9/9 8/8/8 
f 8/8/8 9/9/9 10/10/10 
f 9/9/9 11/11/11 10/10/10 
f 10/10/10 11/11/11 12/12/12 
f 11/11/11 13/13/13 12/12/12 
f 12/12/12 13/13/13 14/14/14 
f 13/13/13 15/15/15 14/14/14 
f 14/14/14 15/15/15 16/16/16 
f 15/15/15 17/17/17 16/16/16 
f 16/16/16 17/17/17 18/18/18 
f 17/17/17 19/19/19 18/18/18 
f 18/18/18 19/19/19 20/20/20 
f 19/19/19 21/21/21 20/20/20 
f 20/20/20 21/21/21 20/20/20 
f 21/21/21 22/22/22 20/20/20 
f 20/20/20 22/22/22 23/23/23 
f 22/22/22 23/23/23 23/23/23 
f 23/23/23 23/23/23 3/3/3 
f 23/23/23 3/3/3 3/3/3 
f 3/3/3 3/3/3 1/1/1 
f 3/3/3 24/24/24 1/1/1 
f 1/1/1 24/24/24 1/1/1 
f 24/24/24 25/25/25 1/1/1 
f 1/1/1 25/25/25 26/26/26 
f 25/25/25 25/25/25 26/26/26 
f 26/26/26 25/25/25 27/27/27 
f 25/25/25 28/28/28 27/27/27 
f 27/27/27 28/28/28 29/29/29 
f 28/28/28 30/30/30 29/29/29 
f 29/29/29 30/30/30 31/31/31 
f 30/30/30 32/32/32 31/31/31 
f 31/31/31 32/32/32 33/33/33 
f 32/32/32 34/34/34 33/33/33 
f 33/33/33 34/34/34 35/35/35 
f 34/34/34 36/36/36 35/35/35 
f 35/35/35 36/36/36 35/35/35 
f 36/36/36 37/37/37 35/35/35 
f 35/35/35 37/37/37 38/38/38 
f 37/37/37 37/37/37 38/38/38 
f 38/38/38 37/37/37 39/39/39 
f 37/37/37 40/40/40 39/39/39 
f 39/39/39 40/40/40 39/39/39 
f 40/40/40 41/41/41 39/39/39 
f 39/39/39 41/41/41 42/42/42 
f 41/41/41 42/42/42 42/42/42 
f 42/42/42 42/42/42 43/43/43 
f 42/42/42 43/43/43 43/43/43 
f 43/43/43 43/43/43 44/44/44 
f 43/43/43 45/45/45 44/44/44 
f 44/44/44 45/45/45 46/46/46 
f 45/45/45 47/47/47 46/46/46 
f 46/46/46 47/47/47 46/46/46 
f 47/47/47 48/48/48 46/46/46 
f 46/46/46 48/48/48 44/44/44 
f 48/48/48 44/44/44 44/44/44 
f 44/44/44 44/44/44 43/43/43 
f 44/44/44 43/43/43 43/43/43 
f 43/43/43 43/43/43 45/45/45 
f 43/43/43 49/49/49 45/45/45 
f 45/45/45 49/49/49 50/50/50 
f 49/49/49 51/51/51 50/50/50 
f 50/50/50 51/51/51 52/52/52 
f 51/51/51 53/53/53 52/52/52 
f 52/52/52 53/53/53 47/47/47 
f 53/53/53 53/53/53 47/47/47 
f 47/47/47 53/53/53 54/54/54 
f 53/53/53 55/55/55 54/54/54 
f 54/54/54 55/55/55 54/54/54 
f 55/55/55 56/56/56 54/54/54 
f 54/54/54 56/56/56 54/54/54 
f 56/56/56 57/57/57 54/54/54 
f 54/54/54 57/57/57 58/58/58 
f 57/57/57 59/59/59 58/58/58 
f 58/58/58 59/59/59 47/47/47 
f 59/59/59 59/59/59 47/47/47 
f 47/47/47 59/59/59 60/60/60 
f 59/59/59 61/61/61 60/60/60 
f 60/60/60 61/61/61 60/60/60 
f 61/61/61 62/62/62 60/60/60 
f 60/60/60 62/62/62 63/63/63 
f 62/62/62 64/64/64 63/63/63 
f 63/63/63 64/64/64 63/63/63 
f 64/64/64 65/65/65 63/63/63 
f 63/63/63 65/65/65 63/63/63 
f 65/65/65 47/47/47 63/63/63 
f 63/63/63 47/47/47 60/60/60 
f 47/47/47 60/60/60 60/60/60 
f 60/60/60 60/60/60 45/45/45 
f 60/60/60 45/45/45 45/45/45 
f 45/45/45 45/45/45 47/47/47 
f 45/45/45 50/50/50 47/47/47 
f 47/47/47 50/50/50 52/52/52 
f 50/50/50 52/52/52 52/52/52 
f 52/52/52 52/52/52 53/53/53 
f 52/52/52 53/53/53 53/53/53 
f 53/53/53 53/53/53 55/55/55 
f 53/53/53 51/51/51 55/55/55 
f 55/55/55 51/51/51 51/51/51 
f 51/51/51 54/54/54 51/51/51 
f 51/51/51 54/54/54 54/54/54 
f 54/54/54 58/58/58 54/54/54 
f 54/54/54 58/58/58 47/47/47 
f 58/58/58 47/47/47 47/47/47 
f 47/47/47 47/47/47 59/59/59 
f 47/47/47 59/59/59 59/59/59 
f 59/59/59 59/59/59 61/61/61 
f 59/59/59 57/57/57 61/61/61 
f 61/61/61 57/57/57 57/57/57 
f 57/57/57 64/64/64 57/57/57 
f 57/57/57 64/64/64 64/64/64 
f 64/64/64 66/66/66 64/64/64 
f 64/64/64 66/66/66 65/65/65 
f 66/66/66 67/67/67 65/65/65 
f 65/65/65 67/67/67 47/47/47 
f 67/67/67 68/68/68 47/47/47 
f 47/47/47 68/68/68 69/69/69 
f 68/68/68 70/70/70 69/69/69 
f 69/69/69 70/70/70 69/69/69 
f 70/70/70 71/71/71 69/69/69 
f 69/69/69 71/71/71 72/72/72 
f 71/71/71 73/73/73 72/72/72 
f 72/72/72 73/73/73 74/74/74 
f 73/73/73 75/75/75 74/74/74 
f 74/74/74 75/75/75 74/74/74 
f 75/75/75 47/47/47 74/74/74 
f 74/74/74 47/47/47 72/72/72 
f 47/47/47 69/69/69 72/72/72 
f 72/72/72 69/69/69 69/69/69 
f 69/69/69 66/66/66 69/69/69 
f 69/69/69 66/66/66 66/66/66 
f 66/66/66 76/76/76 66/66/66 
f 66/66/66 76/76/76 67/67/67 
f 76/76/76 76/76/76 67/67/67 
f 67/67/67 76/76/76 68/68/68 
f 76/76/76 77/77/77 68/68/68 
f 68/68/68 77/77/77 70/70/70 
f 77/77/77 70/70/70 70/70/70 
f 70/70/70 70/70/70 73/73/73 
f 70/70/70 73/73/73 73/73/73 
f 73/73/73 73/73/73 75/75/75 
f 73/73/73 78/78/78 75/75/75 
f 75/75/75 78/78/78 75/75/75 
f 78/78/78 79/79/79 75/75/75 
f 75/75/75 79/79/79 80/80/80 
f 79/79/79 81/81/81 80/80/80 
f 80/80/80 81/81/81 82/82/82 
f 81/81/81 83/83/83 82/82/82 
f 82/82/82 83/83/83 48/48/48 
f 83/83/83 44/44/44 48/48/48 
f 48/48/48 44/44/44 44/44/44 
f 44/44/44 75/75/75 44/44/44 
f 44/44/44 75/75/75 75/75/75 
f 75/75/75 80/80/80 75/75/75 
f 75/75/75 80/80/80 47/47/47 
f 80/80/80 82/82/82 47/47/47 
f 47/47/47 82/82/82 48/48/48 
f 82/82/82 48/48/48 48/48/48 
f 48/48/48 48/48/48 84/84/84 
f 48/48/48 84/84/84 84/84/84 
f 84/84/84 84/84/84 85/85/85 
f 84/84/84 86/86/86 85/85/85 
f 85/85/85 86/86/86 87/87/87 
f 86/86/86 88/88/88 87/87/87 
f 87/87/87 88/88/88 87/87/87 
f 88/88/88 89/89/89 87/87/87 
f 87/87/87 89/89/89 85/85/85 
f 89/89/89 90/90/90 85/85/85 
f 85/85/85 90/90/90 91/91/91 
f 90/90/90 90/90/90 91/91/91 
f 91/91/91 90/90/90 92/92/92 
f 90/90/90 93/93/93 92/92/92 
f 92/92/92 93/93/93 94/94/94 
f 93/93/93 89/89/89 94/94/94 
f 94/94/94 89/89/89 94/94/94 
f 89/89/89 95/95/95 94/94/94 
f 94/94/94 95/95/95 96/96/96 
f 95/95/95 95/95/95 96/96/96 
f 96/96/96 95/95/95 97/97/97 
f 95/95/95 95/95/95 97/97/97 
f 97/97/97 95/95/95 98/98/98 
f 95/95/95 99/99/99 98/98/98 
f 98/98/98 99/99/99 100/100/100 
f 99/99/99 89/89/89 100/100/100 
f 100/100/100 89/89/89 100/100/100 
f 89/89/89 101/101/101 100/100/100 
f 100/100/100 101/101/101 102/102/102 
f 101/101/101 101/101/101 102/102/102 
f 102/102/102 101/101/101 103/103/103 
f 101/101/101 104/104/104 103/103/103 
f 103/103/103 104/104/104 105/105/105 
f 104/104/104 104/104/104 105/105/105 
f 105/105/105 104/104/104 106/106/106 
f 104/104/104 104/104/104 106/106/106 
f 106/106/106 104/104/104 89/89/89 
f 104/104/104 101/101/101 89/89/89 
f 89/89/89 101/101/101 101/101/101 
f 101/101/101 85/85/85 101/101/101 
f 101/101/101 85/85/85 85/85/85 
f 85/85/85 91/91/91 85/85/85 
f 85/85/85 91/91/91 84/84/84 
f 91/91/91 84/84/84 84/84/84 
f 84/84/84 84/84/84 93/93/93 
f 84/84/84 93/93/93 93/93/93 
f 93/93/93 93/93/93 89/89/89 
f 93/93/93 90/90/90 89/89/89 
f 89/89/89 90/90/90 90/90/90 
f 90/90/90 96/96/96 90/90/90 
f 90/90/90 96/96/96 96/96/96 
f 96/96/96 92/92/92 96/96/96 
f 96/96/96 92/92/92 94/94/94 
f 92/92/92 94/94/94 94/94/94 
f 94/94/94 94/94/94 99/99/99 
f 94/94/94 99/99/99 99/99/99 
f 99/99/99 99/99/99 89/89/89 
f 99/99/99 95/95/95 89/89/89 
f 89/89/89 95/95/95 95/95/95 
f 95/95/95 98/98/98 95/95/95 
f 95/95/95 98/98/98 98/98/98 
f 98/98/98 100/100/100 98/98/98 
f 98/98/98 100/100/100 102/102/102 
f 100/100/100 102/102/102 102/102/102 
f 102/102/102 102/102/102 105/105/105 
f 102/102/102 105/105/105 105/105/105 
f 105/105/105 105/105/105 107/107/107 
f 105/105/105 106/106/106 107/107/107 
f 107/107/107 106/106/106 108/108/108 
f 106/106/106 89/89/89 108/108/108 
f 108/108/108 89/89/89 109/109/109 
f 89/89/89 110/110/110 109/109/109 
f 109/109/109 110/110/110 111/111/111 
f 110/110/110 110/110/110 111/111/111 
f 111/111/111 110/110/110 112/112/112 
f 110/110/110 113/113/113 112/112/112 
f 112/112/112 113/113/113 114/114/114 
f 113/113/113 113/113/113 114/114/114 
f 114/114/114 113/113/113 89/89/89 
f 113/113/113 110/110/110 89/89/89 
f 89/89/89 110/110/110 110/110/110 
f 110/110/110 107/107/107 110/110/110 
f 110/110/110 107/107/107 107/107/107 
f 107/107/107 108/108/108 107/107/107 
f 107/107/107 108/108/108 115/115/115 
f 108/108/108 109/109/109 115/115/115 
f 115/115/115 109/109/109 116/116/116 
f 109/109/109 111/111/111 116/116/116 
f 116/116/116 111/111/111 111/111/111 
f 111/111/111 112/112/112 111/111/111 
f 111/111/111 112/112/112 112/112/112 
f 112/112/112 114/114/114 112/112/112 
f 112/112/112 114/114/114 117/117/117 
f 114/114/114 114/114/114 117/117/117 
f 117/117/117 114/114/114 118/118/118 
f 114/114/114 119/119/119 118/118/118 
f 118/118/118 119/119/119 120/120/120 
f 119/119/119 121/121/121 120/120/120 
f 120/120/120 121/121/121 122/122/122 
f 121/121/121 123/123/123 122/122/122 
f 122/122/122 123/123/123 124/124/124 
f 123/123/123 88/88/88 124/124/124 
f 124/124/124 88/88/88 86/86/86 
f 88/88/88 86/86/86 86/86/86 
f 86/86/86 86/86/86 114/114/114 
f 86/86/86 114/114/114 114/114/114 
f 114/114/114 114/114/114 119/119/119 
f 114/114/114 89/89/89 119/119/119 
f 119/119/119 89/89/89 121/121/121 
f 89/89/89 89/89/89 121/121/121 
f 121/121/121 89/89/89 123/123/123 
f 89/89/89 88/88/88 123/123/123 
f 123/123/123 88/88/88 88/88/88 
f 88/88/88 125/125/125 88/88/88 
f 88/88/88 125/125/125 125/125/125 
f 125/125/125 126/126/126 125/125/125 
f 125/125/125 126/126/126 127/127/127 
f 126/126/126 128/128/128 127/127/127 
f 127/127/127 128/128/128 127/127/127 
f 128/128/128 129/129/129 127/127/127 
f 127/127/127 129/129/129 130/130/130 
f 129/129/129 131/131/131 130/130/130 
f 130/130/130 131/131/131 132/132/132 
f 131/131/131 133/133/133 132/132/132 
f 132/132/132 133/133/133 134/134/134 
f 133/133/133 133/133/133 134/134/134 
f 134/134/134 133/133/133 135/135/135 
f 133/133/133 136/136/136 135/135/135 
f 135/135/135 136/136/136 137/137/137 
f 136/136/136 138/138/138 137/137/137 
f 137/137/137 138/138/138 139/139/139 
f 138/138/138 140/140/140 139/139/139 
f 139/139/139 140/140/140 141/141/141 
f 140/140/140 142/142/142 141/141/141 
f 141/141/141 142/142/142 143/143/143 
f 142/142/142 144/144/144 143/143/143 
f 143/143/143 144/144/144 145/145/145 
f 144/144/144 146/146/146 145/145/145 
f 145/145/145 146/146/146 147/147/147 
f 146/146/146 148/148/148 147/147/147 
f 147/147/147 148/148/148 147/147/147 
f 148/148/148 149/149/149 147/147/147 
f 147/147/147 149/149/149 150/150/150 
f 149/149/149 151/151/151 150/150/150 
f 150/150/150 151/151/151 152/152/152 
f 151/151/151 151/151/151 152/152/152 
f 152/152/152 151/151/151 153/153/153 
f 151/151/151 154/154/154 153/153/153 
f 153/153/153 154/154/154 155/155/155 
f 154/154/154 155/155/155 155/155/155 
f 155/155/155 155/155/155 125/125/125 
f 155/155/155 125/125/125 125/125/125 
f 125/125/125 125/125/125 156/156/156 
f 125/125/125 127/127/127 156/156/156 
f 156/156/156 127/127/127 156/156/156 
f 127/127/127 130/130/130 156/156/156 
f 156/156/156 130/130/130 132/132/132 
f 130/130/130 132/132/132 132/132/132 
f 132/132/132 132/132/132 131/131/131 
f 132/132/132 131/131/131 131/131/131 
f 131/131/131 131/131/131 133/133/133 
f 131/131/131 129/129/129 133/133/133 
f 133/133/133 129/129/129 136/136/136 
f 129/129/129 136/136/136 136/136/136 
f 136/136/136 136/136/136 154/154/154 
f 136/136/136 154/154/154 154/154/154 
f 154/154/154 154/154/154 157/157/157 
f 154/154/154 151/151/151 157/157/157 
f 157/157/157 151/151/151 157/157/157 
f 151/151/151 149/149/149 157/157/157 
f 157/157/157 149/149/149 157/157/157 
f 149/149/149 148/148/148 157/157/157 
f 157/157/157 148/148/148 157/157/157 
f 148/148/148 146/146/146 157/157/157 
f 157/157/157 146/146/146 157/157/157 
f 146/146/146 144/144/144 157/157/157 
f 157/157/157 144/144/144 158/158/158 
f 144/144/144 142/142/142 158/158/158 
f 158/158/158 142/142/142 142/142/142 
f 142/142/142 154/154/154 142/142/142 
f 142/142/142 154/154/154 154/154/154 
f 154/154/154 157/157/157 154/154/154 
f 154/154/154 157/157/157 159/159/159 
f 157/157/157 160/160/160 159/159/159 
f 159/159/159 160/160/160 155/155/155 
f 160/160/160 160/160/160 155/155/155 
f 155/155/155 160/160/160 161/161/161 
f 160/160/160 158/158/158 161/161/161 
f 161/161/161 158/158/158 162/162/162 
f 158/158/158 163/163/163 162/162/162 
f 162/162/162 163/163/163 164/164/164 
f 163/163/163 165/165/165 164/164/164 
f 164/164/164 165/165/165 166/166/166 
f 165/165/165 165/165/165 166/166/166 
f 166/166/166 165/165/165 167/167/167 
f 165/165/165 165/165/165 167/167/167 
f 167/167/167 165/165/165 138/138/138 
f 165/165/165 165/165/165 138/138/138 
f 138/138/138 165/165/165 140/140/140 
f 165/165/165 165/165/165 140/140/140 
f 140/140/140 165/165/165 142/142/142 
f 165/165/165 163/163/163 142/142/142 
f 142/142/142 163/163/163 158/158/158 
f 163/163/163 158/158/158 158/158/158 
f 158/158/158 158/158/158 160/160/160 
f 158/158/158 160/160/160 160/160/160 
f 160/160/160 160/160/160 158/158/158 
f 160/160/160 157/157/157 158/158/158 
f 158/158/158 157/157/157 157/157/157 
f 157/157/157 155/155/155 157/157/157 
f 157/157/157 155/155/155 155/155/155 
f 155/155/155 154/154/154 155/155/155 
f 155/155/155 154/154/154 159/159/159 
f 154/154/154 159/159/159 159/159/159 
f 159/159/159 159/159/159 166/166/166 
f 159/159/159 166/166/166 166/166/166 
f 166/166/166 166/166/166 168/168/168 
f 166/166/166 167/167/167 168/168/168 
f 168/168/168 167/167/167 169/169/169 
f 167/167/167 138/138/138 169/169/169 
f 169/169/169 138/138/138 169/169/169 
f 138/138/138 136/136/136 169/169/169 
f 169/169/169 136/136/136 169/169/169 
f 136/136/136 129/129/129 169/169/169 
f 169/169/169 129/129/129 170/170/170 
f 129/129/129 171/171/171 170/170/170 
f 170/170/170 171/171/171 172/172/172 
f 171/171/171 128/128/128 172/172/172 
f 172/172/172 128/128/128 126/126/126 
f 128/128/128 126/126/126 126/126/126 
f 126/126/126 126/126/126 168/168/168 
f 126/126/126 168/168/168 168/168/168 
f 168/168/168 168/168/168 173/173/173 
f 168/168/168 169/169/169 173/173/173 
f 173/173/173 169/169/169 173/173/173 
f 169/169/169 170/170/170 173/173/173 
f 173/173/173 170/170/170 174/174/174 
f 170/170/170 172/172/172 174/174/174 
f 174/174/174 172/172/172 172/172/172 
f 172/172/172 171/171/171 172/172/172 
f 172/172/172 171/171/171 171/171/171 
f 171/171/171 129/129/129 171/171/171 
f 171/171/171 129/129/129 128/128/128 
f 129/129/129 128/128/128 128/128/128 
f 128/128/128 128/128/128 175/175/175 
f 128/128/128 175/175/175 175/175/175 
f 175/175/175 175/175/175 176/176/176 
f 175/175/175 177/177/177 176/176/176 
f 176/176/176 177/177/177 176/176/176 
f 177/177/177 178/178/178 176/176/176 
f 176/176/176 178/178/178 179/179/179 
f 178/178/178 180/180/180 179/179/179 
f 179/179/179 180/180/180 179/179/179 
f 180/180/180 181/181/181 179/179/179 
f 179/179/179 181/181/181 182/182/182 
f 181/181/181 181/181/181 182/182/182 
f 182/182/182 181/181/181 183/183/183 
f 181/181/181 184/184/184 183/183/183 
f 183/183/183 184/184/184 185/185/185 
f 184/184/184 186/186/186 185/185/185 
f 185/185/185 186/186/186 187/187/187 
f 186/186/186 188/188/188 187/187/187 
f 187/187/187 188/188/188 189/189/189 
f 188/188/188 190/190/190 189/189/189 
f 189/189/189 190/190/190 189/189/189 
f 190/190/190 191/191/191 189/189/189 
f 189/189/189 191/191/191 192/192/192 
f 191/191/191 193/193/193 192/192/192 
f 192/192/192 193/193/193 194/194/194 
f 193/193/193 195/195/195 194/194/194 
f 194/194/194 195/195/195 196/196/196 
f 195/195/195 195/195/195 196/196/196 
f 196/196/196 195/195/195 197/197/197 
f 195/195/195 198/198/198 197/197/197 
f 197/197/197 198/198/198 197/197/197 
f 198/198/198 199/199/199 197/197/197 
f 197/197/197 199/199/199 200/200/200 
f 199/199/199 200/200/200 200/200/200 
f 200/200/200 200/200/200 201/201/201 
f 200/200/200 201/201/201 201/201/201 
f 201/201/201 201/201/201 202/202/202 
f 201/201/201 203/203/203 202/202/202 
f 202/202/202 203/203/203 204/204/204 
f 203/203/203 205/205/205 204/204/204 
f 204/204/204 205/205/205 206/206/206 
f 205/205/205 207/207/207 206/206/206 
f 206/206/206 207/207/207 206/206/206 
f 207/207/207 208/208/208 206/206/206 
f 206/206/206 208/208/208 206/206/206 
f 208/208/208 209/209/209 206/206/206 
f 206/206/206 209/209/209 210/210/210 
f 209/209/209 211/211/211 210/210/210 
f 210/210/210 211/211/211 210/210/210 
f 211/211/211 204/204/204 210/210/210 
f 210/210/210 204/204/204 206/206/206 
f 204/204/204 206/206/206 206/206/206 
f 206/206/206 206/206/206 207/207/207 
f 206/206/206 207/207/207 207/207/207 
f 207/207/207 207/207/207 212/212/212 
f 207/207/207 205/205/205 212/212/212 
f 212/212/212 205/205/205 212/212/212 
f 205/205/205 203/203/203 212/212/212 
f 212/212/212 203/203/203 201/201/201 
f 203/203/203 201/201/201 201/201/201 
f 201/201/201 201/201/201 209/209/209 
f 201/201/201 209/209/209 209/209/209 
f 209/209/209 209/209/209 211/211/211 
f 209/209/209 213/213/213 211/211/211 
f 211/211/211 213/213/213 211/211/211 
f 213/213/213 214/214/214 211/211/211 
f 211/211/211 214/214/214 215/215/215 
f 214/214/214 216/216/216 215/215/215 
f 215/215/215 216/216/216 217/217/217 
f 216/216/216 218/218/218 217/217/217 
f 217/217/217 218/218/218 218/218/218 
f 218/218/218 211/211/211 218/218/218 
f 218/218/218 211/211/211 211/211/211 
f 211/211/211 215/215/215 211/211/211 
f 211/211/211 215/215/215 204/204/204 
f 215/215/215 217/217/217 204/204/204 
f 204/204/204 217/217/217 219/219/219 
f 217/217/217 220/220/220 219/219/219 
f 219/219/219 220/220/220 221/221/221 
f 220/220/220 222/222/222 221/221/221 
f 221/221/221 222/222/222 223/223/223 
f 222/222/222 224/224/224 223/223/223 
f 223/223/223 224/224/224 225/225/225 
f 224/224/224 225/225/225 225/225/225 
f 225/225/225 225/225/225 204/204/204 
f 225/225/225 204/204/204 204/204/204 
f 204/204/204 204/204/204 202/202/202 
f 204/204/204 219/219/219 202/202/202 
f 202/202/202 219/219/219 226/226/226 
f 219/219/219 221/221/221 226/226/226 
f 226/226/226 221/221/221 221/221/221 
f 221/221/221 202/202/202 221/221/221 
f 221/221/221 202/202/202 202/202/202 
f 202/202/202 226/226/226 202/202/202 
f 202/202/202 226/226/226 201/201/201 
f 226/226/226 201/201/201 201/201/201 
f 201/201/201 201/201/201 224/224/224 
f 201/201/201 224/224/224 224/224/224 
f 224/224/224 224/224/224 227/227/227 
f 224/224/224 222/222/222 227/227/227 
f 227/227/227 222/222/222 227/227/227 
f 222/222/222 220/220/220 227/227/227 
f 227/227/227 220/220/220 228/228/228 
f 220/220/220 217/217/217 228/228/228 
f 228/228/228 217/217/217 228/228/228 
f 217/217/217 218/218/218 228/228/228 
f 228/228/228 218/218/218 227/227/227 
f 218/218/218 229/229/229 227/227/227 
f 227/227/227 229/229/229 230/230/230 
f 229/229/229 231/231/231 230/230/230 
f 230/230/230 231/231/231 232/232/232 
f 231/231/231 233/233/233 232/232/232 
f 232/232/232 233/233/233 232/232/232 
f 233/233/233 234/234/234 232/232/232 
f 232/232/232 234/234/234 235/235/235 
f 234/234/234 234/234/234 235/235/235 
f 235/235/235 234/234/234 236/236/236 
f 234/234/234 237/237/237 236/236/236 
f 236/236/236 237/237/237 238/238/238 
f 237/237/237 239/239/239 238/238/238 
f 238/238/238 239/239/239 240/240/240 
f 239/239/239 241/241/241 240/240/240 
f 240/240/240 241/241/241 240/240/240 
f 241/241/241 242/242/242 240/240/240 
f 240/240/240 242/242/242 243/243/243 
f 242/242/242 244/244/244 243/243/243 
f 243/243/243 244/244/244 245/245/245 
f 244/244/244 246/246/246 245/245/245 
f 245/245/245 246/246/246 247/247/247 
f 246/246/246 248/248/248 247/247/247 
f 247/247/247 248/248/248 249/249/249 
f 248/248/248 225/225/225 249/249/249 
f 249/249/249 225/225/225 249/249/249 
f 225/225/225 224/224/224 249/249/249 
f 249/249/249 224/224/224 250/250/250 
f 224/224/224 224/224/224 250/250/250 
f 250/250/250 224/224/224 251/251/251 
f 224/224/224 230/230/230 251/251/251 
f 251/251/251 230/230/230 252/252/252 
f 230/230/230 232/232/232 252/252/252 
f 252/252/252 232/232/232 253/253/253 
f 232/232/232 232/232/232 253/253/253 
f 253/253/253 232/232/232 254/254/254 
f 232/232/232 235/235/235 254/254/254 
f 254/254/254 235/235/235 255/255/255 
f 235/235/235 235/235/235 255/255/255 
f 255/255/255 235/235/235 256/256/256 
f 235/235/235 236/236/236 256/256/256 
f 256/256/256 236/236/236 257/257/257 
f 236/236/236 238/238/238 257/257/257 
f 257/257/257 238/238/238 258/258/258 
f 238/238/238 238/238/238 258/258/258 
f 258/258/258 238/238/238 259/259/259 
f 238/238/238 240/240/240 259/259/259 
f 259/259/259 240/240/240 259/259/259 
f 240/240/240 243/243/243 259/259/259 
f 259/259/259 243/243/243 260/260/260 
f 243/243/243 245/245/245 260/260/260 
f 260/260/260 245/245/245 261/261/261 
f 245/245/245 245/245/245 261/261/261 
f 261/261/261 245/245/245 262/262/262 
f 245/245/245 247/247/247 262/262/262 
f 262/262/262 247/247/247 263/263/263 
f 247/247/247 247/247/247 263/263/263 
f 263/263/263 247/247/247 264/264/264 
f 247/247/247 249/249/249 264/264/264 
f 264/264/264 249/249/249 265/265/265 
f 249/249/249 250/250/250 265/265/265 
f 265/265/265 250/250/250 250/250/250 
f 250/250/250 224/224/224 250/250/250 
f 250/250/250 224/224/224 224/224/224 
f 224/224/224 227/227/227 224/224/224 
f 224/224/224 227/227/227 230/230/230 
f 227/227/227 230/230/230 230/230/230 
f 230/230/230 230/230/230 266/266/266 
f 230/230/230 266/266/266 266/266/266 
f 266/266/266 266/266/266 267/267/267 
f 266/266/266 268/268/268 267/267/267 
f 267/267/267 268/268/268 269/269/269 
f 268/268/268 270/270/270 269/269/269 
f 269/269/269 270/270/270 271/271/271 
f 270/270/270 272/272/272 271/271/271 
f 271/271/271 272/272/272 273/273/273 
f 272/272/272 274/274/274 273/273/273 
f 273/273/273 274/274/274 275/275/275 
f 274/274/274 276/276/276 275/275/275 
f 275/275/275 276/276/276 277/277/277 
f 276/276/276 276/276/276 277/277/277 
f 277/277/277 276/276/276 278/278/278 
f 276/276/276 279/279/279 278/278/278 
f 278/278/278 279/279/279 280/280/280 
f 279/279/279 281/281/281 280/280/280 
f 280/280/280 281/281/281 280/280/280 
f 281/281/281 282/282/282 280/280/280 
f 280/280/280 282/282/282 283/283/283 
f 282/282/282 284/284/284 283/283/283 
f 283/283/283 284/284/284 285/285/285 
f 284/284/284 284/284/284 285/285/285 
f 285/285/285 284/284/284 286/286/286 
f 284/284/284 287/287/287 286/286/286 
f 286/286/286 287/287/287 287/287/287 
f 287/287/287 288/288/288 287/287/287 
f 287/287/287 288/288/288 288/288/288 
f 288/288/288 289/289/289 288/288/288 
f 288/288/288 289/289/289 290/290/290 
f 289/289/289 291/291/291 290/290/290 
f 290/290/290 291/291/291 292/292/292 
f 291/291/291 293/293/293 292/292/292 
f 292/292/292 293/293/293 294/294/294 
f 293/293/293 293/293/293 294/294/294 
f 294/294/294 293/293/293 295/295/295 
f 293/293/293 293/293/293 295/295/295 
f 295/295/295 293/293/293 289/289/289 
f 293/293/293 291/291/291 289/289/289 
f 289/289/289 291/291/291 291/291/291 
f 291/291/291 294/294/294 291/291/291 
f 291/291/291 294/294/294 294/294/294 
f 294/294/294 296/296/296 294/294/294 
f 294/294/294 296/296/296 292/292/292 
f 296/296/296 297/297/297 292/292/292 
f 292/292/292 297/297/297 290/290/290 
f 297/297/297 290/290/290 290/290/290 
f 290/290/290 290/290/290 294/294/294 
f 290/290/290 294/294/294 294/294/294 
f 294/294/294 294/294/294 296/296/296 
f 294/294/294 298/298/298 296/296/296 
f 296/296/296 298/298/298 296/296/296 
f 298/298/298 299/299/299 296/296/296 
f 296/296/296 299/299/299 300/300/300 
f 299/299/299 301/301/301 300/300/300 
f 300/300/300 301/301/301 302/302/302 
f 301/301/301 303/303/303 302/302/302 
f 302/302/302 303/303/303 304/304/304 
f 303/303/303 305/305/305 304/304/304 
f 304/304/304 305/305/305 306/306/306 
f 305/305/305 307/307/307 306/306/306 
f 306/306/306 307/307/307 308/308/308 
f 307/307/307 309/309/309 308/308/308 
f 308/308/308 309/309/309 310/310/310 
f 309/309/309 311/311/311 310/310/310 
f 310/310/310 311/311/311 310/310/310 
f 311/311/311 312/312/312 310/310/310 
f 310/310/310 312/312/312 310/310/310 
f 312/312/312 313/313/313 310/310/310 
f 310/310/310 313/313/313 302/302/302 
f 313/313/313 313/313/313 302/302/302 
f 302/302/302 313/313/313 300/300/300 
f 313/313/313 313/313/313 300/300/300 
f 300/300/300 313/313/313 314/314/314 
f 313/313/313 312/312/312 314/314/314 
f 314/314/314 312/312/312 314/314/314 
f 312/312/312 315/315/315 314/314/314 
f 314/314/314 315/315/315 316/316/316 
f 315/315/315 316/316/316 316/316/316 
f 316/316/316 316/316/316 303/303/303 
f 316/316/316 303/303/303 303/303/303 
f 303/303/303 303/303/303 305/305/305 
f 303/303/303 317/317/317 305/305/305 
f 305/305/305 317/317/317 307/307/307 
f 317/317/317 307/307/307 307/307/307 
f 307/307/307 307/307/307 308/308/308 
f 307/307/307 308/308/308 308/308/308 
f 308/308/308 308/308/308 306/306/306 
f 308/308/308 310/310/310 306/306/306 
f 306/306/306 310/310/310 304/304/304 
f 310/310/310 302/302/302 304/304/304 
f 304/304/304 302/302/302 302/302/302 
f 302/302/302 300/300/300 302/302/302 
f 302/302/302 300/300/300 300/300/300 
f 300/300/300 314/314/314 300/300/300 
f 300/300/300 314/314/314 296/296/296 
f 314/314/314 318/318/318 296/296/296 
f 296/296/296 318/318/318 297/297/297 
f 318/318/318 319/319/319 297/297/297 
f 297/297/297 319/319/319 290/290/290 
f 319/319/319 288/288/288 290/290/290 
f 290/290/290 288/288/288 288/288/288 
f 288/288/288 314/314/314 288/288/288 
f 288/288/288 314/314/314 314/314/314 
f 314/314/314 316/316/316 314/314/314 
f 314/314/314 316/316/316 318/318/318 
f 316/316/316 319/319/319 318/318/318 
f 318/318/318 319/319/319 319/319/319 
f 319/319/319 266/266/266 319/319/319 
f 319/319/319 266/266/266 266/266/266 
f 266/266/266 267/267/267 266/266/266 
f 266/266/266 267/267/267 320/320/320 
f 267/267/267 321/321/321 320/320/320 
f 320/320/320 321/321/321 320/320/320 
f 321/321/321 322/322/322 320/320/320 
f 320/320/320 322/322/322 323/323/323 
f 322/322/322 323/323/323 323/323/323 
f 323/323/323 323/323/323 324/324/324 
f 323/323/323 324/324/324 324/324/324 
f 324/324/324 324/324/324 325/325/325 
f 324/324/324 326/326/326 325/325/325 
f 325/325/325 326/326/326 325/325/325 
f 326/326/326 327/327/327 325/325/325 
f 325/325/325 327/327/327 328/328/328 
f 327/327/327 327/327/327 328/328/328 
f 328/328/328 327/327/327 329/329/329 
f 327/327/327 330/330/330 329/329/329 
f 329/329/329 330/330/330 331/331/331 
f 330/330/330 332/332/332 331/331/331 
f 331/331/331 332/332/332 333/333/333 
f 332/332/332 334/334/334 333/333/333 
f 333/333/333 334/334/334 335/335/335 
f 334/334/334 336/336/336 335/335/335 
f 335/335/335 336/336/336 335/335/335 
f 336/336/336 337/337/337 335/335/335 
f 335/335/335 337/337/337 338/338/338 
f 337/337/337 339/339/339 338/338/338 
f 338/338/338 339/339/339 340/340/340 
f 339/339/339 339/339/339 340/340/340 
f 340/340/340 339/339/339 341/341/341 
f 339/339/339 342/342/342 341/341/341 
f 341/341/341 342/342/342 341/341/341 
f 342/342/342 343/343/343 341/341/341 
f 341/341/341 343/343/343 344/344/344 
f 343/343/343 343/343/343 344/344/344 
f 344/344/344 343/343/343 345/345/345 
f 343/343/343 346/346/346 345/345/345 
f 345/345/345 346/346/346 347/347/347 
f 346/346/346 348/348/348 347/347/347 
f 347/347/347 348/348/348 349/349/349 
f 348/348/348 350/350/350 349/349/349 
f 349/349/349 350/350/350 350/350/350 
f 350/350/350 325/325/325 350/350/350 
f 350/350/350 325/325/325 325/325/325 
f 325/325/325 351/351/351 325/325/325 
f 325/325/325 351/351/351 324/324/324 
f 351/351/351 352/352/352 324/324/324 
f 324/324/324 352/352/352 353/353/353 
f 352/352/352 354/354/354 353/353/353 
f 353/353/353 354/354/354 355/355/355 
f 354/354/354 354/354/354 355/355/355 
f 355/355/355 354/354/354 356/356/356 
f 354/354/354 357/357/357 356/356/356 

