mtllib model_1.mtl
o model_1
v 28.75316047668457 21.69889259338379 16.107887268066406 
v 8.310680389404297 21.69889259338379 17.8209228515625 
v 27.85655975341797 21.69889259338379 17.8209228515625 
v 27.139280319213867 21.124670028686523 18.534687042236328 
v 9.027959823608398 21.124670028686523 18.534687042236328 
v 9.745240211486816 20.16762924194336 18.96294593811035 
v 26.421998977661133 20.16762924194336 18.96294593811035 
v 24.628799438476562 18.674646377563477 19.10569953918457 
v 11.538439750671387 18.674646377563477 19.10569953918457 
v 20.14579963684082 16.837129592895508 18.96294593811035 
v 16.021440505981445 16.837129592895508 18.96294593811035 
v 7.414079666137695 21.69889259338379 16.107887268066406 
v 6.696800231933594 21.69889259338379 12.253556251525879 
v 29.470439910888672 21.69889259338379 12.253556251525879 
v 7.414079666137695 21.69889259338379 8.256471633911133 
v 28.75316047668457 21.69889259338379 8.256471633911133 
v 9.386600494384766 21.69889259338379 4.830400466918945 
v 26.7806396484375 21.69889259338379 4.830400466918945 
v 12.435039520263672 21.69889259338379 2.260845899581909 
v 23.732200622558594 21.69889259338379 2.260845899581909 
v 16.021440505981445 21.69889259338379 0.9760692119598389 
v 20.14579963684082 21.69889259338379 0.9760692119598389 
vn 0 1 2.2204500197172533e-16 
vn 0.0018687201663851738 0.9824016690254211 0.18677105009555817 
vn 5.919202438310969e-14 0.9815762042999268 0.19107110798358917 
vn 0.0037671432364732027 0.6969945430755615 0.7170665264129639 
vn 0.0037671432364732027 0.6969945430755615 0.7170665264129639 
vn 0.0037756175734102726 0.2990269064903259 0.9542372226715088 
vn 0.0037756175734102726 0.2990269064903259 0.9542372226715088 
vn 0.0018864526646211743 0.09380380809307098 0.9955888986587524 
vn 0.0018864526646211743 0.09380380809307098 0.9955888986587524 
vn 3.0952372826256735e-13 -0.04149730131030083 0.999138593673706 
vn 3.0952372826256735e-13 -0.04149730131030083 0.999138593673706 
vn 0 1 2.2204500197172533e-16 
vn 0 1 2.2204500197172533e-16 
vn 0 1 2.2204500197172533e-16 
vn 0 1 2.2204500197172533e-16 
vn 0 1 2.2204500197172533e-16 
vn 0 1 2.2204500197172533e-16 
vn 0 1 2.2204500197172533e-16 
vn 0 1 2.2204500197172533e-16 
vn 0 1 2.2204500197172533e-16 
vn 0 1 2.2204500197172533e-16 
vn 0 1 2.2204500197172533e-16 
vt 0.662729799747467 0.9658994078636169 
vt 0.7377079129219055 0.06875675171613693 
vt 0.7375896573066711 0.9313658475875854 
vt 0.779336154460907 0.8973187208175659 
vt 0.779336154460907 0.10268231481313705 
vt 0.8241574168205261 0.13648627698421478 
vt 0.8241574168205261 0.8635147213935852 
vt 0.8900293707847595 0.7870302200317383 
vt 0.8900293707847595 0.2129707932472229 
vt 0.9706840515136719 0.586516797542572 
vt 0.9706840515136719 0.41348424553871155 
vt 0.662729799747467 0.032034460455179214 
vt 0.49243250489234924 0.0020000000949949026 
vt 0.49243250489234924 0.9980010390281677 
vt 0.32213523983955383 0.032034460455179214 
vt 0.32213523983955383 0.9679665565490723 
vt 0.17229728400707245 0.11848992854356766 
vt 0.17229728400707245 0.8815110921859741 
vt 0.06113100051879883 0.25103065371513367 
vt 0.06113100051879883 0.7489703893661499 
vt 0.0020000000949949026 0.41348424553871155 
vt 0.0020000000949949026 0.586516797542572 
s on 
f 1/1/1 2/2/2 3/3/3 
f 2/2/2 2/2/2 3/3/3 
f 3/3/3 2/2/2 4/4/4 
f 2/2/2 5/5/5 4/4/4 
f 4/4/4 5/5/5 4/4/4 
f 5/5/5 6/6/6 4/4/4 
f 4/4/4 6/6/6 7/7/7 
f 6/6/6 6/6/6 7/7/7 
f 7/7/7 6/6/6 8/8/8 
f 6/6/6 9/9/9 8/8/8 
f 8/8/8 9/9/9 10/10/10 
f 9/9/9 11/11/11 10/10/10 
f 10/10/10 11/11/11 11/11/11 
f 11/11/11 2/2/2 11/11/11 
f 11/11/11 2/2/2 2/2/2 
f 2/2/2 1/1/1 2/2/2 
f 2/2/2 1/1/1 12/12/12 
f 1/1/1 1/1/1 12/12/12 
f 12/12/12 1/1/1 13/13/13 
f 1/1/1 14/14/14 13/13/13 
f 13/13/13 14/14/14 15/15/15 
f 14/14/14 16/16/16 15/15/15 
f 15/15/15 16/16/16 17/17/17 
f 16/16/16 18/18/18 17/17/17 
f 17/17/17 18/18/18 19/19/19 
f 18/18/18 20/20/20 19/19/19 
f 19/19/19 20/20/20 21/21/21 
f 20/20/20 22/22/22 21/21/21 

